<?xml version="1.0" standalone="no"?>
<!DOCTYPE svg PUBLIC "-//W3C//DTD SVG 20010904//EN"
 "http://www.w3.org/TR/2001/REC-SVG-20010904/DTD/svg10.dtd">
<svg version="1.0" xmlns="http://www.w3.org/2000/svg"
 width="260.000000pt" height="260.000000pt" viewBox="0 0 260.000000 260.000000"
 preserveAspectRatio="xMidYMid meet">
<metadata>
Created by potrace 1.14, written by Peter Selinger 2001-2017
</metadata>
<g transform="translate(0.000000,260.000000) scale(0.100000,-0.100000)"
fill="#000000" stroke="none">
<path d="M1510 2515 c-96 -31 -162 -73 -197 -126 -25 -38 -28 -51 -28 -123 1
-77 4 -90 77 -271 42 -104 98 -260 124 -345 54 -179 66 -204 111 -225 33 -16
73 -13 73 5 0 5 -65 175 -144 377 -79 202 -149 386 -155 408 -15 56 1 107 51
160 50 55 117 80 213 79 109 -1 165 -40 165 -117 0 -30 -8 -46 -38 -79 -34
-36 -45 -42 -93 -45 -45 -4 -58 -1 -76 17 -40 37 -23 84 42 114 28 13 35 23
33 39 -3 19 -8 21 -48 19 -129 -8 -210 -63 -210 -143 0 -28 44 -151 146 -412
81 -205 153 -384 161 -399 11 -23 20 -28 48 -28 94 0 305 119 305 171 0 27
-158 748 -176 802 -20 61 -57 105 -109 128 -60 27 -179 25 -275 -6z"/>
<path d="M485 1299 c-209 -633 -381 -1159 -383 -1170 -3 -19 4 -19 239 -17
l242 3 136 450 135 450 246 -3 c135 -2 305 0 379 3 l133 7 -5 34 c-3 19 -25
99 -48 179 l-42 145 -274 0 c-161 0 -273 4 -273 9 0 5 70 241 155 524 85 283
155 520 155 526 0 8 -63 11 -208 11 l-207 0 -380 -1151z"/>
<path d="M2045 1507 c-98 -73 -265 -127 -395 -127 -33 0 -60 -2 -60 -5 0 -18
94 -332 102 -342 26 -33 265 5 369 57 70 36 118 71 124 91 5 16 -75 314 -93
344 -5 9 -19 3 -47 -18z"/>
<path d="M2125 1094 c-33 -19 -107 -49 -165 -67 -94 -30 -105 -36 -108 -59 -4
-31 155 -873 170 -901 9 -17 18 -19 87 -14 139 9 282 71 345 150 28 35 31 45
31 110 -1 67 -9 95 -132 427 -72 195 -135 363 -138 373 -9 23 -19 21 -90 -19z"/>
<path d="M1712 988 c-18 -18 -16 -34 33 -227 24 -98 60 -256 79 -352 37 -188
63 -267 101 -314 58 -70 52 -21 -60 540 -58 294 -66 322 -90 342 -29 26 -45
29 -63 11z"/>
</g>
</svg>
