<svg id="Layer_1" data-name="Layer 1" xmlns="http://www.w3.org/2000/svg" xmlns:xlink="http://www.w3.org/1999/xlink" width="240.45" height="248.83" viewBox="0 0 240.45 248.83"><defs><clipPath id="clip-path" transform="translate(-9.94 -6.04)"><rect x="-138.04" y="-43.68" width="233.55" height="299.29" transform="matrix(0.96, 0.29, -0.29, 0.96, 29.66, 10.64)" style="fill:none"/></clipPath></defs><title>app-logo</title><g style="clip-path:url(#clip-path)"><path d="M134.75,181c-.07-.09-.15-.17-.22-.25.68,1.39,1.33,2.68,2,3.9A14.94,14.94,0,0,0,134.75,181Z" transform="translate(-9.94 -6.04)"/><polygon points="68.31 242.7 0 242.7 76.96 9.53 163.49 9.53 240.45 242.7 172.14 242.7 121.14 73.74 119.31 73.74 68.31 242.7"/></g><path d="M187.43,16.51C182.72,7.79,173.2,4.44,159.6,6.74a60.57,60.57,0,0,0-19.2,6.71c-8.56,5.09-12.58,11.8-12.35,20.63.06,2.16.26,3,1.76,8.21a84.5,84.5,0,0,0,4.89,13.16,318.52,318.52,0,0,1,15.15,42c4.29,14.42,4.52,15,6.85,17.51a8.91,8.91,0,0,0,8.71,2.83c1.29-.37,1.51-.52,1.39-.92s-2.11-5.5-4.53-11.63-6.67-17-9.48-24.23l-6.72-17.19c-9.81-24.85-10.23-26.1-10.18-29.35.1-6.46,4.28-13,10.62-16.55a36.68,36.68,0,0,1,19.38-4.16c5.14.48,9.75,2.48,12.27,5.32,1.25,1.44,1.42,1.76,2.13,4.18s.73,2.82.46,4.44c-.72,4.19-4.17,8.36-8.71,10.54-4.25,2.07-8.89,2-12.24,0a5.8,5.8,0,0,1-2.94-3.61c-.71-2.54.21-4.89,2.8-7.19a21.91,21.91,0,0,1,6.23-3.53c.82-.24.88-.31.73-1.41-.1-.66-.21-1.51-.25-1.93s-.11-.77-.18-.75-2.11.22-4.54.44c-5.66.5-11.08,1.79-13.47,3.21-4.84,2.83-7.11,6.81-6.74,11.82.29,3.63.72,4.82,15.17,41.21l10.29,26c2.42,6.13,4.7,11.7,5.06,12.37,1.36,2.6,2.82,3.21,6.43,2.64a65,65,0,0,0,12.15-4c5.75-2.65,13.59-7.84,15.05-10s1.74-.42-3.88-26.29c-1.63-7.48-4.78-22.14-7.06-32.6C190.41,25,189,19.27,187.43,16.51Z" transform="translate(-9.94 -6.04)" style="fill:#166fe5"/><path d="M242,205.89c-2.46-6.61-6.67-18.1-9.41-25.57s-6.62-18-8.62-23.5-3.67-10-3.74-10-1.21.67-2.59,1.53a105.12,105.12,0,0,1-11.74,6.22c-2.35,1.05-4.93,1.92-11.62,3.87-9.46,2.78-9.25,2.69-9.23,4.54,0,.57.72,4.82,1.6,9.43,8.08,42.67,12.89,68.15,13.55,71.67,1.5,8.29,2.12,9.76,4.61,10.52,2.67.83,11.32-.29,18.56-2.4q17.84-5.19,23.51-15.42a15.6,15.6,0,0,0,2-9C248.74,224.83,247.05,219.52,242,205.89Z" transform="translate(-9.94 -6.04)" style="fill:#166fe5"/><path d="M209.31,108.46l-.62-1.74-2.48,2a66.83,66.83,0,0,1-44.9,13.5l-2.14-.18,4.65,16.26c2.55,8.95,4.88,16.76,5.14,17.37.7,1.52,1.6,1.85,5.22,1.92a62.62,62.62,0,0,0,20.6-3A62.27,62.27,0,0,0,214,145.86c3-2,4-3,4.33-4.55.29-1.06.18-1.45-4.06-16.11C211.87,117,209.64,109.39,209.31,108.46Z" transform="translate(-9.94 -6.04)" style="fill:#166fe5"/><path d="M178.74,163.7c-2-3.07-5.67-3.95-7.6-1.82-1.1,1.21-1.17,2.63-.29,6,7.21,27.3,9.89,38.87,12.36,53.16,2.66,15.2,4.7,22,8.19,27.14,1.67,2.41,3.67,4.57,4.17,4.42.93-.27.79-1.51-1.08-12-3.55-19.86-7.18-38.62-11.64-60.22C180.49,168.94,179.51,164.88,178.74,163.7Z" transform="translate(-9.94 -6.04)" style="fill:#166fe5"/><path d="M72.27,157.89c9,0,87,1,88-.73.72-1.18.6-1.58-3.62-16.25-2.4-8.24-4.65-15.8-5-16.72l-.7-1.71L80.5,122" transform="translate(-9.94 -6.04)"/></svg>