<svg id="Layer_1" data-name="Layer 1" xmlns="http://www.w3.org/2000/svg" xmlns:xlink="http://www.w3.org/1999/xlink" width="1095.3" height="332.42" viewBox="0 0 1095.3 332.42"><defs><clipPath id="clip-path" transform="translate(-47.73 -6.14)"><rect x="-149.95" y="-60.28" width="312" height="399.83" transform="translate(40.54 4.19) rotate(16.77)" style="fill:none"/></clipPath></defs><title>App Logo</title><path d="M414.55,247.47q-17.43,0-29.87-7.17a48.38,48.38,0,0,1-19.12-20q-6.68-12.81-6.67-29.66t6.7-29.74a48.79,48.79,0,0,1,19.16-20q12.44-7.17,29.73-7.17,15.28,0,26.65,5.52a42.75,42.75,0,0,1,17.79,15.61q6.42,10.08,6.78,23.63H432.92q-1-8.46-5.7-13.27a16.38,16.38,0,0,0-12.24-4.8,17.44,17.44,0,0,0-10.68,3.4,21.75,21.75,0,0,0-7.14,10,45.94,45.94,0,0,0-2.55,16.39,46.54,46.54,0,0,0,2.55,16.46,21.72,21.72,0,0,0,7.14,10.12,18.65,18.65,0,0,0,19.33,1.32,16.48,16.48,0,0,0,6.2-6.13,24,24,0,0,0,3.09-9.86H465.7A47.84,47.84,0,0,1,458.92,226a42.17,42.17,0,0,1-17.57,15.82Q430.05,247.48,414.55,247.47Z" transform="translate(-47.73 -6.14)"/><path d="M514.77,247.26a46.5,46.5,0,0,1-18.69-3.55A28.63,28.63,0,0,1,483.24,233q-4.69-7.22-4.7-18.12,0-9.18,3.23-15.49a27.55,27.55,0,0,1,8.9-10.26,42.23,42.23,0,0,1,13.05-6,87.38,87.38,0,0,1,15.78-2.76q9.4-.87,15.14-1.83t8.36-2.8a6,6,0,0,0,2.62-5.2v-.36a10.27,10.27,0,0,0-3.81-8.54q-3.79-3-10.26-3-6.94,0-11.19,3a13.32,13.32,0,0,0-5.38,8.33l-32.35-1.15a38.23,38.23,0,0,1,7.43-18,40,40,0,0,1,16.49-12.48q10.51-4.56,25.29-4.56a72.34,72.34,0,0,1,19.44,2.48,49.28,49.28,0,0,1,15.5,7.17A33.13,33.13,0,0,1,577,154.93a32.76,32.76,0,0,1,3.62,15.57v74.89h-33V230h-.86a31.58,31.58,0,0,1-7.49,9.47,30.48,30.48,0,0,1-10.69,5.81A45.8,45.8,0,0,1,514.77,247.26Zm10.83-23A22.36,22.36,0,0,0,535.82,222a18.72,18.72,0,0,0,7.28-6.35,16.49,16.49,0,0,0,2.73-9.44V195.75a21.46,21.46,0,0,1-3.62,1.44c-1.41.43-3,.83-4.63,1.22s-3.4.71-5.16,1-3.47.55-5.1.79a31.32,31.32,0,0,0-8.43,2.44,13.14,13.14,0,0,0-5.31,4.27,10.6,10.6,0,0,0-1.82,6.2,9.66,9.66,0,0,0,3.91,8.32A16.27,16.27,0,0,0,525.6,224.3Z" transform="translate(-47.73 -6.14)"/><path d="M642.24,247a40.54,40.54,0,0,1-22.16-6.31q-10-6.32-15.93-18.94t-5.95-31.35q0-19.44,6.16-32t16.18-18.58a41,41,0,0,1,21.56-6,33.88,33.88,0,0,1,14.85,3,30.85,30.85,0,0,1,10.18,7.64,36.14,36.14,0,0,1,6.1,9.68H674V98.48H709V245.39H674.31V227.53h-1.08a34.38,34.38,0,0,1-6.31,9.54,30.48,30.48,0,0,1-10.22,7.18A35.5,35.5,0,0,1,642.24,247Zm12.2-27.33a16.91,16.91,0,0,0,10.9-3.62,23,23,0,0,0,7-10.23,51,51,0,0,0,0-31.06,21.89,21.89,0,0,0-7-10,17.42,17.42,0,0,0-10.94-3.52,17.21,17.21,0,0,0-11.05,3.59,21.9,21.9,0,0,0-6.85,10.12,52.1,52.1,0,0,0,0,30.91A22.61,22.61,0,0,0,643.43,216,17,17,0,0,0,654.44,219.64Z" transform="translate(-47.73 -6.14)"/><path d="M782.77,247.47q-17.28,0-29.8-6.85A46.5,46.5,0,0,1,733.74,221Q727,208.31,727,190.73q0-17.07,6.75-29.88a48.91,48.91,0,0,1,19-19.94q12.26-7.14,28.91-7.14a60.86,60.86,0,0,1,21.52,3.66,46.38,46.38,0,0,1,16.86,10.83,49.49,49.49,0,0,1,11,17.68,68.22,68.22,0,0,1,4,24.07v8.75H739.3V178.39h63.13a19.7,19.7,0,0,0-2.66-10,18.3,18.3,0,0,0-7.06-6.85,21,21,0,0,0-10.3-2.48,21.21,21.21,0,0,0-10.54,2.62,20,20,0,0,0-7.39,7.1A20.2,20.2,0,0,0,761.61,179V199.7a25,25,0,0,0,2.65,11.8,19,19,0,0,0,7.54,7.85,22.9,22.9,0,0,0,11.62,2.8,26.17,26.17,0,0,0,8.46-1.29,18.1,18.1,0,0,0,6.53-3.8,15.72,15.72,0,0,0,4.09-6.17l32.21.93a39.79,39.79,0,0,1-8.79,18.83,44.58,44.58,0,0,1-17.75,12.41Q797.19,247.47,782.77,247.47Z" transform="translate(-47.73 -6.14)"/><path d="M853.07,245.39V135.21h33.36v20.23h1.22a31.41,31.41,0,0,1,11.62-15.86,32.83,32.83,0,0,1,19.51-5.81q11.47,0,19.66,5.88a25.78,25.78,0,0,1,10.4,15.79H950a28.69,28.69,0,0,1,12-15.75q9-5.92,21.16-5.92,15.64,0,25.4,10t9.75,27.44v74.17H983.27V179.25q0-8.25-4.23-12.59a14.66,14.66,0,0,0-11-4.34q-7.25,0-11.37,4.7t-4.13,12.59v65.78H918.86v-66.5q0-7.66-4.17-12.12a14.3,14.3,0,0,0-11-4.45,15,15,0,0,0-8.11,2.19,14.8,14.8,0,0,0-5.48,6.2,21.21,21.21,0,0,0-2,9.47v65.21Z" transform="translate(-47.73 -6.14)"/><path d="M1057.59,286.71a69.26,69.26,0,0,1-11.9-1,49.55,49.55,0,0,1-9.62-2.54l7.75-25.47a38,38,0,0,0,9.36,2,13.29,13.29,0,0,0,7.25-1.33,10.54,10.54,0,0,0,4.7-5.7l1.36-3.3-39.17-114.2h36.73l20.3,78.62h1.15l20.59-78.62H1143L1101.5,255.94a52.14,52.14,0,0,1-8.5,16,37.65,37.65,0,0,1-14.14,10.87Q1070.22,286.71,1057.59,286.71Z" transform="translate(-47.73 -6.14)"/><path d="M715.82,293.45q0,9.89-3.8,16.8a26.21,26.21,0,0,1-10.32,10.57,31.38,31.38,0,0,1-29.36,0A26.21,26.21,0,0,1,662,310.22q-3.78-6.92-3.78-16.77t3.78-16.8a26.07,26.07,0,0,1,10.3-10.56,31.42,31.42,0,0,1,29.36,0A26.18,26.18,0,0,1,712,276.65Q715.82,283.58,715.82,293.45Zm-13.17,0a26.68,26.68,0,0,0-1.94-10.78,14.78,14.78,0,0,0-27.34,0,31.1,31.1,0,0,0,0,21.57,14.78,14.78,0,0,0,27.34,0A26.73,26.73,0,0,0,702.65,293.45Z" transform="translate(-47.73 -6.14)"/><path d="M725.42,323.63V263.27h40.69v10.52H738.42v14.39h25V298.7h-25v24.93Z" transform="translate(-47.73 -6.14)"/><path d="M850.92,293.45q0,9.89-3.79,16.8a26.3,26.3,0,0,1-10.33,10.57,31.38,31.38,0,0,1-29.36,0,26.34,26.34,0,0,1-10.3-10.59q-3.78-6.92-3.78-16.77t3.78-16.8a26.2,26.2,0,0,1,10.3-10.56,31.42,31.42,0,0,1,29.36,0,26.27,26.27,0,0,1,10.33,10.56Q850.93,283.58,850.92,293.45Zm-13.17,0a26.68,26.68,0,0,0-1.94-10.78,14.78,14.78,0,0,0-27.34,0,31.1,31.1,0,0,0,0,21.57,14.78,14.78,0,0,0,27.34,0A26.73,26.73,0,0,0,837.75,293.45Z" transform="translate(-47.73 -6.14)"/><path d="M898.49,263.27h13v39.2a20.88,20.88,0,0,1-3.2,11.56,21.28,21.28,0,0,1-8.92,7.7,33.76,33.76,0,0,1-26.74,0,21.22,21.22,0,0,1-8.92-7.7,21,21,0,0,1-3.18-11.56v-39.2h13v38.11a12.06,12.06,0,0,0,1.54,6.13,11,11,0,0,0,4.37,4.22,14.91,14.91,0,0,0,13.16,0,11,11,0,0,0,4.35-4.22,12.06,12.06,0,0,0,1.55-6.13Z" transform="translate(-47.73 -6.14)"/><path d="M922.16,323.63V263.27h24.25a26.72,26.72,0,0,1,11.9,2.43,17.34,17.34,0,0,1,7.53,6.87,20.27,20.27,0,0,1,2.6,10.42,19.42,19.42,0,0,1-2.64,10.33,17.07,17.07,0,0,1-7.64,6.62,28.8,28.8,0,0,1-12.08,2.3H929.84V292H944a16.45,16.45,0,0,0,6.18-1,7.4,7.4,0,0,0,3.68-3,9.47,9.47,0,0,0,1.21-5,9.86,9.86,0,0,0-1.21-5.07,7.66,7.66,0,0,0-3.69-3.14,15.66,15.66,0,0,0-6.23-1.07h-8.76v49.92Zm33.19-27.46,15.28,27.46H956.28l-14.94-27.46Z" transform="translate(-47.73 -6.14)"/><path d="M1011,280.63a7.43,7.43,0,0,0-3.09-5.54,12.38,12.38,0,0,0-7.41-2,14.61,14.61,0,0,0-5.38.87,7.46,7.46,0,0,0-3.34,2.4,5.63,5.63,0,0,0-1.16,3.48,4.79,4.79,0,0,0,.71,2.82,6.76,6.76,0,0,0,2.11,2.08,15.44,15.44,0,0,0,3.13,1.51,30.52,30.52,0,0,0,3.78,1.07l5.52,1.3a38.92,38.92,0,0,1,7.38,2.36,22.51,22.51,0,0,1,5.82,3.62,15.39,15.39,0,0,1,3.83,5.07,16,16,0,0,1,1.39,6.69,16.49,16.49,0,0,1-2.86,9.6,18.18,18.18,0,0,1-8.16,6.27,33.14,33.14,0,0,1-12.83,2.23,34.27,34.27,0,0,1-12.95-2.24,18.84,18.84,0,0,1-8.59-6.65,19.39,19.39,0,0,1-3.22-10.92h12.57a9,9,0,0,0,1.79,5.06,9.54,9.54,0,0,0,4.23,3,16.66,16.66,0,0,0,6,1,15.88,15.88,0,0,0,5.74-.94,8.83,8.83,0,0,0,3.8-2.63,6,6,0,0,0,1.35-3.86,5,5,0,0,0-1.22-3.42,9.43,9.43,0,0,0-3.54-2.35,36.72,36.72,0,0,0-5.68-1.77l-6.7-1.65q-7.77-1.86-12.27-5.81a13.35,13.35,0,0,1-4.47-10.64,15.52,15.52,0,0,1,3-9.58,19.84,19.84,0,0,1,8.29-6.39,29.68,29.68,0,0,1,12-2.3,28.79,28.79,0,0,1,12,2.3,18.77,18.77,0,0,1,8,6.39,16.72,16.72,0,0,1,2.94,9.49Z" transform="translate(-47.73 -6.14)"/><path d="M-4.55,419.92" transform="translate(-47.73 -6.14)" style="fill:red"/><path d="M-500.16,434.94" transform="translate(-47.73 -6.14)"/><g style="clip-path:url(#clip-path)"><path d="M214.47,239.82c-.09-.12-.2-.22-.3-.33.92,1.86,1.78,3.57,2.62,5.21A19.92,19.92,0,0,0,214.47,239.82Z" transform="translate(-47.73 -6.14)"/><polygon points="91.26 324.23 0 324.23 102.82 12.74 218.41 12.74 321.23 324.23 229.97 324.23 161.83 98.52 159.4 98.52 91.26 324.23"/></g><path d="M284.85,20.13c-6.3-11.65-19-16.12-37.18-13-8.85,1.47-19.15,5.08-25.66,9-11.42,6.8-16.79,15.77-16.49,27.56.07,2.88.34,4.06,2.35,11s2.73,8.86,6.53,17.57c8.65,19.87,13.29,32.8,20.25,56.17,5.72,19.27,6,20.06,9.14,23.39s7.8,4.91,11.64,3.79c1.73-.5,2-.7,1.86-1.23-.1-.35-2.83-7.35-6.05-15.54s-8.91-22.73-12.67-32.36-7.8-20-9-23c-13.1-33.19-13.67-34.86-13.59-39.2.12-8.63,5.71-17.36,14.18-22.12a49.05,49.05,0,0,1,25.89-5.55c6.87.64,13,3.31,16.39,7.11,1.67,1.92,1.9,2.35,2.85,5.58s1,3.77.62,5.94c-1,5.59-5.57,11.17-11.64,14.08-5.69,2.76-11.88,2.73-16.36,0A7.72,7.72,0,0,1,244,44.35c-.95-3.39.27-6.53,3.73-9.6A29.06,29.06,0,0,1,256.07,30c1.09-.32,1.18-.42,1-1.89-.14-.87-.28-2-.33-2.58s-.15-1-.25-1-2.82.28-6.06.58c-7.56.67-14.81,2.4-18,4.28-6.46,3.79-9.5,9.11-9,15.8.38,4.85,1,6.44,20.27,55.06l13.74,34.76c3.23,8.19,6.27,15.63,6.76,16.52,1.82,3.48,3.77,4.29,8.59,3.53,3.36-.52,11.62-3.27,16.24-5.37,7.67-3.54,18.14-10.48,20.1-13.34s2.32-.56-5.18-35.12c-2.19-10-6.4-29.57-9.43-43.55C288.82,31.42,286.88,23.81,284.85,20.13Z" transform="translate(-47.73 -6.14)" style="fill:#166fe5"/><path d="M357.77,273.12c-3.29-8.82-8.91-24.18-12.57-34.15s-8.85-24.08-11.51-31.4-4.91-13.32-5-13.37-1.61.89-3.46,2a139.52,139.52,0,0,1-15.68,8.31c-3.14,1.41-6.59,2.57-15.53,5.17-12.63,3.71-12.36,3.6-12.33,6.07,0,.77,1,6.44,2.14,12.59,10.79,57,17.23,91,18.1,95.75,2,11.07,2.84,13,6.16,14.06,3.56,1.1,15.12-.39,24.8-3.21q23.82-6.93,31.4-20.6A20.91,20.91,0,0,0,367,302.32C366.75,298.43,364.49,291.33,357.77,273.12Z" transform="translate(-47.73 -6.14)" style="fill:#166fe5"/><path d="M314.08,143l-.83-2.32-3.32,2.65a83.54,83.54,0,0,1-26.44,13.85A84.62,84.62,0,0,1,250,161.33l-2.86-.24,6.21,21.72c3.41,11.95,6.52,22.39,6.87,23.2.93,2,2.13,2.48,7,2.56,9.86.15,16.86-.86,27.53-4,10.84-3.15,17.08-6,25.67-11.67,4-2.65,5.29-4,5.79-6.08.39-1.41.24-1.94-5.43-21.53C317.49,154.3,314.52,144.21,314.08,143Z" transform="translate(-47.73 -6.14)" style="fill:#166fe5"/><path d="M273.23,216.76c-2.68-4.1-7.57-5.28-10.14-2.43-1.48,1.62-1.57,3.51-.39,8,9.62,36.46,13.21,51.92,16.51,71,3.55,20.32,6.28,29.45,10.94,36.27,2.23,3.21,4.91,6.09,5.58,5.9,1.23-.36,1-2-1.45-16-4.75-26.54-9.6-51.6-15.56-80.45C275.57,223.76,274.26,218.34,273.23,216.76Z" transform="translate(-47.73 -6.14)" style="fill:#166fe5"/><path d="M127,205" transform="translate(-47.73 -6.14)"/><path d="M154,161" transform="translate(-47.73 -6.14)"/><path d="M131,209c12,0,116.25,1.35,117.53-1,1-1.57.81-2.1-4.83-21.7-3.21-11-6.21-21.1-6.7-22.33l-.94-2.29L142,161" transform="translate(-47.73 -6.14)"/><path d="M127,230" transform="translate(-47.73 -6.14)"/><path d="M125.9,218.77" transform="translate(-47.73 -6.14)"/></svg>