<svg id="bit1Cube" xmlns="http://www.w3.org/2000/svg" width="414.75" height="485.65" viewBox="0 0 414.75 485.65"><title>bit-cube</title><path d="M463.38,155.4A59.25,59.25,0,0,0,433.54,104L285.4,19.34a59.26,59.26,0,0,0-58.8,0L78.49,104a59.27,59.27,0,0,0-29.87,51.43V353.29a59.28,59.28,0,0,0,29.81,51.43h.06L226.6,489.38l.06,0a59.23,59.23,0,0,0,58.68,0l.06,0,148.11-84.63.06-.05a59.28,59.28,0,0,0,29.81-51.41Z" transform="translate(-48.62 -11.53)" style="fill:#8153e1"/><path d="M463.38,155.38V353.29a59.25,59.25,0,0,1-29.87,51.43L285.4,489.36a59.15,59.15,0,0,1-29.4,7.8V239.55L455.34,125.62A58.91,58.91,0,0,1,463.38,155.38Z" transform="translate(-48.62 -11.53)" style="fill:#ab88f3"/><path d="M455.29,125.65,256,239.55,56.61,125.67A59,59,0,0,1,78.41,104L226.55,19.34a59.24,59.24,0,0,1,58.79,0L433.46,104A59.2,59.2,0,0,1,455.29,125.65Z" transform="translate(-48.62 -11.53)" style="fill:#d4ccf5"/></svg>