<svg width="261" height="323" viewBox="0 0 261 323" fill="none" xmlns="http://www.w3.org/2000/svg">
<path d="M156.25 320.766C156.334 320.685 156.427 320.688 156.434 320.745C156.441 320.803 156.366 320.914 156.12 321.048C156.133 320.943 156.179 320.844 156.25 320.766ZM156.564 320.499C156.633 320.502 156.698 320.527 156.751 320.572C156.792 320.607 156.771 320.636 156.575 320.599C156.526 320.534 156.536 320.504 156.564 320.499ZM156.139 318.615C156.867 317.065 158.401 314.807 155.6 316.07C155.836 315.572 156.103 315.09 156.4 314.626C160.551 308.254 166.626 314.292 171.011 315.652C169.085 316.259 171.127 318.654 172.775 319.289C169.696 320.345 165.796 319.562 160.794 321.547C159.81 322.127 159.128 321.323 158.496 320.553C158.106 320.077 157.734 319.612 157.324 319.495C156.539 319.881 156.121 319.962 155.938 319.845C155.699 319.692 155.862 319.203 156.139 318.615L156.139 318.615ZM156.329 319.248C156.205 319.418 156.273 319.721 156.518 319.158C156.481 319.154 156.444 319.16 156.411 319.176C156.378 319.192 156.349 319.217 156.329 319.248L156.329 319.248ZM167.557 319.409C167.446 319.659 168.018 320.066 167.943 319.265C167.705 319.259 167.595 319.326 167.557 319.409L167.557 319.409ZM169.884 317.451C169.821 317.479 169.763 317.517 169.712 317.563C169.555 317.726 170.051 317.764 170.069 317.636C170.074 317.599 170.039 317.549 169.939 317.485C169.923 317.474 169.904 317.463 169.884 317.451L169.884 317.451ZM137.846 295.778C138.443 294.705 139.987 293.725 142.789 292.967C143.589 294.194 146.161 295.147 148.815 296.152C151.402 297.132 154.068 298.163 155.251 299.548C156.05 300.484 156.171 301.579 155.134 302.929C155.142 303.154 159.014 305.256 157.342 305.026C153.017 306.163 145.54 304.111 141.12 301.279C138.425 299.553 136.866 297.538 137.847 295.778L137.846 295.778ZM171.718 319.909C171.787 319.911 171.853 319.936 171.906 319.981C171.946 320.017 171.924 320.047 171.727 320.01C171.676 319.943 171.688 319.912 171.717 319.908L171.718 319.909ZM171.983 319.854C172.052 319.824 172.129 319.815 172.203 319.828C172.278 319.841 172.347 319.875 172.403 319.926C172.419 319.949 172.43 319.975 172.434 320.003C172.437 320.03 172.433 320.058 172.423 320.084C172.283 320.057 172.149 320.009 172.023 319.943C171.964 319.906 171.958 319.875 171.982 319.853L171.983 319.854ZM172.462 318.463C172.524 318.414 172.686 318.449 172.761 318.506C172.835 318.563 172.821 318.64 172.527 318.685C172.421 318.562 172.421 318.494 172.461 318.462L172.462 318.463ZM173.78 319.384C173.849 319.388 173.914 319.413 173.968 319.456C174.007 319.492 173.988 319.519 173.791 319.484C173.742 319.416 173.75 319.387 173.78 319.383L173.78 319.384ZM171.182 317.473C171.275 317.441 172.043 317.509 171.982 317.552C171.853 317.58 171.721 317.59 171.59 317.582C171.45 317.565 171.312 317.533 171.178 317.487C171.168 317.48 171.17 317.475 171.181 317.473L171.182 317.473ZM170.606 316.608C170.638 316.585 170.676 316.574 170.715 316.576C170.754 316.578 170.791 316.593 170.82 316.619C170.866 316.666 170.843 316.747 170.619 316.817C170.563 316.707 170.572 316.642 170.606 316.607L170.606 316.608ZM183.773 322.047C183.818 322.015 183.92 322.054 183.962 322.107C184.005 322.16 183.992 322.217 183.802 322.226C183.746 322.119 183.746 322.065 183.773 322.046L183.773 322.047ZM184.989 319.995C185.484 319.243 186.131 318.602 186.888 318.115C187.645 317.628 188.496 317.304 189.385 317.166L184.188 322.185C184.274 321.401 184.549 320.649 184.989 319.994L184.989 319.995ZM48.5538 232.971C48.9837 232.884 49.4291 232.916 49.8422 233.063C50.2554 233.211 50.6207 233.467 50.8991 233.806C50.4662 234.432 50.7214 234.509 50.9177 235.418L48.5538 232.971ZM35.6641 219.293C35.9949 219.133 35.8358 219.476 35.7297 219.461C35.7236 219.46 35.7178 219.458 35.7126 219.455C35.6864 219.437 35.664 219.388 35.6646 219.292L35.6641 219.293ZM33.0191 216.887C33.648 216.475 34.25 216.024 34.8215 215.535L35.4566 215.215C34.7509 216.355 34.819 217.516 34.8479 218.782L33.0191 216.887ZM35.6223 214.994C35.596 214.953 35.5799 214.906 35.5755 214.857C36.0524 214.65 35.8542 215.045 35.6962 215.037C35.6809 215.036 35.6662 215.031 35.6534 215.023C35.6413 215.015 35.6308 215.005 35.6222 214.993L35.6223 214.994ZM15.6034 198.855C15.6349 198.843 15.656 198.839 15.6875 198.828C15.6736 198.796 15.6388 198.792 15.6385 198.729C15.7741 198.703 15.8367 198.722 15.8707 198.747C16.0617 198.667 16.2382 198.6 16.4761 198.48C16.2626 198.69 16.0731 198.922 15.9109 199.173L15.6034 198.855ZM179.213 300.708C178.76 298.08 178.832 296.546 179.283 295.746C180.637 293.341 185.411 297.553 189.764 298.743C189.532 298.953 190.668 301.808 193.117 302.51C192.844 302.517 192.652 302.541 192.44 302.561C192.421 302.599 192.373 302.646 192.237 302.688C192.206 302.63 192.232 302.61 192.231 302.575C189.989 302.842 190.852 303.773 183.641 303.475C182.249 304.374 181.261 304.385 180.576 303.946C179.63 303.341 179.263 301.876 179.214 300.708L179.213 300.708ZM189.179 300.379C189.187 300.511 189.962 300.683 189.5 300.284C189.258 300.296 189.175 300.335 189.179 300.379L189.179 300.379ZM16.0936 197.482C17.0283 196.573 15.8413 198.354 15.7311 198.308L15.7296 198.307C15.6966 198.285 15.778 198.064 16.0939 197.482L16.0936 197.482ZM50.6906 219.317C49.4204 217.913 48.8967 216.652 50.7194 217.437C49.3724 216.227 50.7467 214.206 51.0152 213.066C55.5826 208.965 58.5662 208.959 59.3761 208.877C58.4241 213.021 60.1753 213.8 55.9562 219.73C56.2684 222.385 54.9525 222.445 53.4339 221.588C53.3169 221.522 53.1987 221.45 53.0798 221.374C52.2004 220.791 51.3979 220.099 50.6909 219.316L50.6906 219.317ZM30.2427 205.542C29.2453 204.533 28.6835 203.539 29.267 203.597C29.0627 202.028 29.8929 201.635 29.3904 199.221C29.469 196.982 38.7434 194.451 41.7668 192.045C41.3762 192.773 41.7443 192.95 42.1221 193.134C42.4497 193.293 42.7845 193.457 42.6408 193.988C47.0447 196.31 40.0841 203.985 35.4077 206.437C34.7965 207.844 33.57 207.777 32.354 207.149C32.1809 207.06 32.0083 206.958 31.8376 206.849C31.2605 206.471 30.7258 206.033 30.2429 205.541L30.2427 205.542ZM154.675 283.871C154.694 283.826 154.729 283.789 154.772 283.766C154.816 283.744 154.867 283.739 154.914 283.751C154.98 283.784 154.979 283.898 154.755 284.129C154.659 284.026 154.649 283.938 154.676 283.87L154.675 283.871ZM0.761713 183.489C0.657913 182.847 0.400918 182.279 1.35527 182.146C1.35581 182.114 1.33294 182.114 1.34963 182.066C1.50919 182.047 1.57111 182.072 1.58976 182.108C1.62718 182.106 1.63802 182.095 1.6774 182.095C1.60092 178.923 5.77137 178.408 7.0075 173.697C9.61867 171.628 7.65168 173.653 10.4268 172.443C10.4066 173.733 10.4512 173.919 10.1566 175.07C14.5734 173.117 18.1182 180.999 10.1537 183.83C9.12757 186.575 7.10491 187.775 5.0743 187.954L0.761713 183.489ZM2.06059 181.236C2.04112 181.31 2.20772 181.24 2.73128 180.874C3.05005 180.487 3.1414 180.329 3.10571 180.306C3.01683 180.248 2.10414 181.076 2.0616 181.236L2.06059 181.236ZM9.49199 174.848C9.50757 174.871 9.56884 174.881 9.71327 174.852C9.74643 174.771 9.7401 174.729 9.71474 174.713C9.65072 174.671 9.46027 174.795 9.49296 174.847L9.49199 174.848ZM10.9339 175.321C10.9343 175.352 11.0143 175.338 11.2223 175.236C11.325 175.106 11.3474 175.048 11.3267 175.035C11.2737 174.999 10.933 175.256 10.9349 175.321L10.9339 175.321ZM48.9522 216.003C48.9335 215.962 48.9243 215.917 48.9254 215.872C49.3732 215.788 49.1528 216.094 49.013 216.055C49.0049 216.052 48.9971 216.048 48.9898 216.044C48.9741 216.034 48.9616 216.019 48.9535 216.002L48.9522 216.003ZM155.351 282.819C153.479 281.699 154.116 277.981 155.496 275.414C156.875 272.847 158.999 271.434 160.107 274.924C161.252 275.65 162.439 276.306 163.662 276.89C165.799 277.962 167.888 279.001 169.48 280.806C169.846 281.219 170.175 281.664 170.465 282.134C168.361 282.335 170.36 282.964 169.048 283.345C164.724 284.144 158.035 284.76 155.908 283.397C155.674 283.258 155.482 283.058 155.352 282.818L155.351 282.819ZM1.1258 181.343C1.62342 181.287 1.26995 181.62 1.14028 181.561L1.13277 181.556C1.09499 181.532 1.08356 181.471 1.12704 181.343L1.1258 181.343ZM192.521 303.028C192.579 302.957 193.686 303.522 193.692 303.652C193.694 303.696 193.573 303.691 193.251 303.6C192.676 303.218 192.496 303.059 192.522 303.027L192.521 303.028ZM30.8013 196.712C31.1338 196.552 30.9668 196.892 30.8639 196.876C30.8581 196.875 30.8525 196.873 30.8475 196.87C30.8233 196.853 30.8024 196.807 30.803 196.71L30.8013 196.712ZM191.577 299.671C191.662 299.672 191.746 299.69 191.823 299.727C191.896 299.76 191.904 299.791 191.688 299.772C191.667 299.758 191.647 299.748 191.631 299.738C191.569 299.696 191.558 299.678 191.578 299.671L191.577 299.671ZM57.6415 208.796C57.5547 208.701 57.8847 208.459 57.8911 208.815C57.7624 208.839 57.6912 208.831 57.6557 208.808C57.6509 208.805 57.6465 208.8 57.6426 208.795L57.6415 208.796ZM11.8305 174.484C12.3651 174.041 11.8594 174.606 11.7513 174.661C11.7439 174.664 11.7384 174.665 11.7354 174.663C11.7244 174.655 11.7482 174.604 11.8314 174.483L11.8305 174.484ZM24.7604 181.793C24.7374 181.751 24.726 181.704 24.7274 181.655C25.2889 181.64 25.0087 181.92 24.833 181.857C24.825 181.854 24.8174 181.85 24.8101 181.845C24.7903 181.831 24.7737 181.814 24.7616 181.793L24.7604 181.793ZM27.5361 183.522C27.3462 183.398 27.1695 183.254 27.0088 183.094C26.4094 182.453 25.9588 181.688 25.6892 180.854C23.572 178.815 28.7698 178.304 26.4921 176.032C28.8705 175.151 31.7945 173.445 35.5143 171.84C36.2379 171.292 36.4002 171.442 36.5941 171.61C36.8846 171.864 37.2462 172.163 39.6656 170.243C38.8416 171.694 38.1072 172.052 37.9311 172.824C38.3124 174.217 39.6879 175.161 39.0387 178.117C35.727 180.588 30.7157 185.559 27.5575 183.536L27.5361 183.522ZM32.2533 173.533C32.2944 173.555 32.3406 173.565 32.3872 173.564C32.585 173.422 32.6267 173.357 32.597 173.338C32.5358 173.297 32.1562 173.461 32.2543 173.532L32.2533 173.533ZM42.4629 192.921C42.7661 192.678 42.5857 192.984 42.4992 193.015C42.4955 193.016 42.4915 193.017 42.4875 193.016C42.4835 193.016 42.4797 193.015 42.4763 193.013C42.4633 193.003 42.4565 192.977 42.4641 192.921L42.4629 192.921ZM9.63404 171.36C9.58545 171.309 9.56145 171.203 9.59334 171.014C9.87814 171.09 9.90634 171.232 9.84915 171.319C9.83047 171.352 9.80005 171.376 9.76409 171.387C9.72812 171.398 9.68936 171.394 9.65582 171.377C9.64826 171.372 9.64129 171.366 9.63507 171.36L9.63404 171.36ZM204.47 295.577C203.756 293.142 202.81 293.187 202.234 291.666C201.431 292.203 201.984 288.876 203.313 286.946C204.111 285.786 205.191 285.13 206.428 286.11C209.88 286.083 215.182 287.524 217.858 289.666L210.998 296.291C208.293 296.484 205.824 296.571 204.825 295.931C204.681 295.843 204.559 295.721 204.472 295.576L204.47 295.577ZM155.96 255.883C156.247 255.325 156.655 254.84 157.154 254.461C157.653 254.082 158.231 253.819 158.844 253.693C159.536 255.832 162.013 256.723 164.429 257.577C166.53 258.319 168.586 259.031 169.384 260.513C169.965 260.75 170.515 261.058 171.022 261.429C172.079 262.31 170.019 262.384 170.702 263.247C170.629 263.216 170.55 263.201 170.47 263.203C170.241 263.278 170.178 263.319 170.2 263.337C170.251 263.379 170.732 263.311 170.707 263.254C170.874 263.443 171.068 263.607 171.282 263.74C171.855 263.455 172.391 264.139 172.688 264.669C172.903 265.054 172.991 265.357 172.875 265.151C168.095 264.609 161.73 263.34 156.095 264.697C155.686 264.325 154.267 259.042 155.961 255.882L155.96 255.883ZM156.173 263.256C156.13 263.419 156.555 263.764 156.414 263.195C156.258 263.167 156.188 263.202 156.174 263.256L156.173 263.256ZM171.135 264.339C170.798 264.32 170.688 264.353 170.703 264.398C170.739 264.502 171.39 264.687 171.393 264.569C171.394 264.531 171.33 264.463 171.157 264.352L171.135 264.339ZM167.579 259.397C167.573 259.518 168.036 259.678 167.786 259.312C167.637 259.321 167.584 259.356 167.58 259.397L167.579 259.397ZM206.943 296.985C206.988 296.952 207.088 296.995 207.131 297.046C207.174 297.098 207.159 297.158 206.97 297.167C206.914 297.061 206.919 297.005 206.945 296.984L206.943 296.985ZM11.1186 171.582C11.4217 171.338 11.2468 171.64 11.1593 171.671C11.1553 171.673 11.1509 171.674 11.1465 171.674C11.1421 171.674 11.1379 171.672 11.1341 171.67C11.121 171.66 11.1123 171.634 11.1197 171.581L11.1186 171.582ZM42.9308 191.36C43.4648 190.916 42.9578 191.476 42.8498 191.531C42.8425 191.535 42.8373 191.536 42.8345 191.534C42.8255 191.526 42.8477 191.477 42.9323 191.359L42.9308 191.36ZM22.3333 177.718C22.6958 177.811 23.0526 177.925 23.4019 178.06C23.8942 178.38 22.4994 177.843 22.3318 177.736C22.3119 177.721 22.3103 177.715 22.3346 177.718L22.3333 177.718ZM153.81 261.589C153.854 261.557 153.952 261.597 153.993 261.65C154.035 261.702 154.021 261.766 153.832 261.774C153.776 261.668 153.785 261.609 153.811 261.588L153.81 261.589ZM154.255 261.723C154.323 261.724 154.389 261.749 154.441 261.792C154.481 261.829 154.459 261.855 154.263 261.818C154.217 261.751 154.228 261.724 154.257 261.721L154.255 261.723ZM58.0704 198.163C57.6544 197.723 57.3564 197.053 57.2251 196.095C56.2459 194.536 57.042 193.153 58.3593 191.018C58.283 189.67 64.6378 188.78 67.2593 188.263C68.3096 188.655 67.6365 188.869 67.2288 189.318C64.6895 191.909 71.1201 190.339 66.1105 195.054C64.0426 197.397 60.4724 199.684 58.52 198.525C58.5015 198.513 58.4829 198.501 58.4643 198.49C58.321 198.396 58.1893 198.286 58.0723 198.161L58.0704 198.163ZM63.2832 189.617C63.298 189.637 63.3168 189.655 63.3383 189.668C63.3599 189.682 63.384 189.691 63.4091 189.695C63.5782 189.736 63.9062 189.682 64.4642 189.439C64.4004 189.353 64.3218 189.278 64.232 189.219C63.7261 188.893 63.1546 189.4 63.2847 189.616L63.2832 189.617ZM26.7918 175.168C27.1226 175.008 26.9592 175.348 26.8545 175.332C26.8485 175.331 26.843 175.329 26.8379 175.325C26.8139 175.308 26.7928 175.263 26.7932 175.167L26.7918 175.168ZM184.218 275.1C182.669 272.236 182.618 270.11 183.447 268.741C185.271 265.727 191.353 266.365 195.087 270.808C196.771 271.405 197.824 272.183 198.562 273.023C200.185 274.87 200.284 277.007 202.212 278.125L201.48 278.143C196.4 276.985 188.951 278.447 185.371 276.153C184.927 275.874 184.537 275.517 184.219 275.1L184.218 275.1ZM170.701 263.247C170.704 263.249 170.705 263.251 170.707 263.254L170.701 263.247ZM49.5173 181.356C49.2134 180.974 49.0129 180.521 48.935 180.04C47.8807 178.398 47.4032 178.645 50.5654 177.509C48.0145 174.613 56.7832 173.395 57.0266 170.759C59.7902 170.579 58.7912 168.779 61.9622 168.108C60.871 170.308 61.0376 170.891 62.2116 170.586C59.1767 172.841 68.015 176.032 58.2499 180.182C58.0578 182.813 53.2894 183.701 50.6377 182.268C50.5423 182.216 50.4498 182.162 50.3601 182.104C50.04 181.903 49.7557 181.65 49.5186 181.355L49.5173 181.356ZM50.3755 175.98C50.3247 176.076 50.3412 176.215 50.4375 176.228C50.5035 176.237 50.6047 176.187 50.7507 176.023C50.7193 175.99 50.6845 175.961 50.6466 175.936C50.5125 175.848 50.4202 175.898 50.3768 175.979L50.3755 175.98ZM58.9487 171.012C58.9679 171.037 58.9954 171.055 59.0264 171.062C59.0908 171.076 59.1572 171.078 59.2225 171.069C59.2435 170.905 59.2146 170.824 59.1681 170.794C59.0674 170.73 58.8822 170.91 58.9498 171.012L58.9487 171.012ZM38.5368 173.252C39.0812 173.06 38.7298 173.499 38.5799 173.474C38.572 173.473 38.5644 173.47 38.5575 173.465C38.5237 173.443 38.5083 173.379 38.5381 173.252L38.5368 173.252ZM202.516 278.17C202.558 278.154 202.604 278.152 202.647 278.163C202.691 278.174 202.729 278.198 202.758 278.232C202.803 278.293 202.761 278.37 202.494 278.391C202.449 278.266 202.471 278.197 202.517 278.17L202.516 278.17ZM46.7284 178.379C47.0164 178.202 46.9442 178.547 46.8358 178.539C46.8256 178.538 46.8157 178.535 46.8072 178.529C46.7646 178.489 46.7371 178.436 46.7296 178.378L46.7284 178.379ZM39.5391 172.348C39.9758 172.261 39.6708 172.521 39.5567 172.496C39.5516 172.494 39.5466 172.492 39.5421 172.489C39.5174 172.471 39.509 172.429 39.5418 172.347L39.5391 172.348ZM37.412 170.659C37.3765 170.61 37.3501 170.556 37.3339 170.497C37.905 170.481 37.7088 170.811 37.5075 170.737C37.4973 170.732 37.4875 170.727 37.4782 170.721C37.4534 170.704 37.4316 170.682 37.4138 170.658L37.412 170.659ZM65.733 188.371C65.7421 188.316 65.9448 188.147 66.502 187.786C67.0089 187.72 66.7104 187.958 66.347 188.155C66.0847 188.297 65.7883 188.418 65.7398 188.387C65.7371 188.385 65.7352 188.382 65.7343 188.379C65.7334 188.376 65.7336 188.372 65.7348 188.369L65.733 188.371ZM200.398 274.143C200.443 274.11 200.544 274.152 200.586 274.205C200.628 274.257 200.611 274.319 200.422 274.327C200.367 274.218 200.373 274.161 200.4 274.141L200.398 274.143ZM65.8224 187.496C65.7908 187.445 65.8223 187.377 65.9789 187.295C66.2668 187.452 66.2602 187.538 66.168 187.568C66.0643 187.594 65.9548 187.58 65.8605 187.53C65.8461 187.521 65.8337 187.509 65.8241 187.495L65.8224 187.496ZM48.528 176.092C48.5233 176.052 48.637 176.016 48.9451 176.003C50.6195 176.527 48.8614 176.303 48.5689 176.13L48.5577 176.123C48.5416 176.111 48.5308 176.101 48.5299 176.09L48.528 176.092ZM66.449 187.087C67.1541 186.806 66.5231 187.407 66.3717 187.379C66.3668 187.378 66.362 187.377 66.3578 187.374C66.3256 187.352 66.3412 187.27 66.4503 187.086L66.449 187.087ZM0.96976 134.492C1.09955 134.489 1.22728 134.525 1.33671 134.595C1.44106 134.659 1.44889 134.72 1.11716 134.689C0.95895 134.564 0.932192 134.51 0.96976 134.492ZM214.102 270.787C214.133 270.764 214.172 270.753 214.21 270.755C214.249 270.757 214.287 270.772 214.316 270.798C214.361 270.845 214.336 270.925 214.113 270.994C214.059 270.887 214.067 270.825 214.103 270.788L214.102 270.787ZM62.7346 173.667C62.701 173.635 62.6921 173.566 62.7402 173.44C62.9758 173.485 62.9737 173.583 62.91 173.642C62.8653 173.682 62.7904 173.704 62.7451 173.675C62.7417 173.673 62.7386 173.67 62.7357 173.668L62.7346 173.667ZM4.8237 136.244C4.86812 136.186 5.01215 136.189 5.08339 136.232C5.15463 136.274 5.1563 136.355 4.91683 136.45C4.80827 136.349 4.79694 136.285 4.82481 136.245L4.8237 136.244ZM214.978 268.706C212.94 271.259 213.822 266.147 215.427 263.623C216.389 262.108 217.61 261.526 218.617 264.087C221.131 265.337 222.532 266.339 223.453 267.273C224.987 268.832 225.189 270.21 226.986 272.272C226.21 272.59 223.502 274.03 217.37 272.527C216.574 271.623 214.343 270.458 214.98 268.707L214.978 268.706ZM3.59355 134.813C3.39496 134.177 3.09234 133.473 1.58008 133.724C1.57024 133.528 1.57599 133.331 1.59727 133.136L6.79424 128.117C8.40077 127.887 10.1909 128.311 11.8962 129.812C15.1206 129.327 17.2233 130.272 18.3276 131.662C20.1698 133.977 19.2461 137.526 16.1499 137.759C16.9748 138.662 17.0249 138.851 17.6698 140.013C14.565 140.261 17.3307 141.143 13.958 140.533C12.3245 138.771 10.5481 138.211 8.97959 137.785C7.27555 137.321 5.81766 137.015 5.05316 135.498C5.01781 135.517 4.99909 135.512 4.96584 135.53C4.96645 135.57 4.92229 135.623 4.76851 135.684C4.7302 135.649 4.75054 135.639 4.73367 135.611C4.38129 135.74 4.15718 135.729 4.00283 135.63C3.77982 135.487 3.70261 135.16 3.59502 134.814L3.59355 134.813ZM6.59761 136.096C5.9445 136.019 5.76362 136.036 5.81687 136.093C5.93951 136.224 7.26972 136.554 7.21309 136.416C7.19572 136.389 7.17154 136.368 7.14305 136.353C6.96843 136.254 6.78665 136.169 6.59913 136.097L6.59761 136.096ZM15.6551 138.281C15.6497 138.369 16.1022 138.375 15.8555 138.171C15.7117 138.215 15.6594 138.255 15.656 138.283L15.6551 138.281ZM17.0357 137.095C16.7976 137.103 16.7199 137.127 16.7332 137.155C16.7638 137.217 17.2331 137.289 17.2295 137.218C17.2288 137.206 17.214 137.19 17.1807 137.168C17.1346 137.141 17.0866 137.117 17.037 137.096L17.0357 137.095ZM2.90991 134.166C2.95379 134.134 3.05397 134.173 3.09656 134.225C3.13915 134.277 3.12316 134.338 2.93436 134.346C2.87932 134.241 2.88404 134.187 2.9113 134.167L2.90991 134.166ZM192.375 255.357C192.478 255.328 192.588 255.332 192.689 255.368C192.778 255.399 192.781 255.449 192.492 255.489C192.47 255.477 192.451 255.465 192.434 255.455C192.355 255.404 192.346 255.374 192.376 255.357L192.375 255.357ZM17.4763 141.379C17.5051 141.277 17.6405 141.265 17.7151 141.327C17.7898 141.39 17.8072 141.522 17.6049 141.711C17.4869 141.555 17.4588 141.448 17.4781 141.38L17.4763 141.379ZM60.1387 168.487C60.7807 168.189 60.3009 168.755 60.1396 168.743C60.1313 168.743 60.1232 168.741 60.1161 168.736C60.0844 168.715 60.0811 168.641 60.1407 168.488L60.1387 168.487ZM194.52 252.406C193.011 250.204 192.808 252.501 194.087 247.929C194.234 247.541 194.416 247.168 194.632 246.814C196.536 243.792 199.596 246.393 202.306 248.769C203.773 250.055 205.138 251.276 206.16 251.505C206.889 253.192 206.335 253.326 207.201 253.772C206.592 256.602 202.698 256.033 199.41 255.884C198.503 255.853 197.6 255.742 196.713 255.55C196.716 255.511 196.727 255.471 196.643 255.396C196.614 255.404 196.588 255.418 196.565 255.437C196.542 255.455 196.523 255.479 196.509 255.505C195.872 255.371 195.261 255.136 194.699 254.808C193.846 254.263 193.571 253.48 194.522 252.407L194.52 252.406ZM196.509 255.506C196.577 255.526 196.645 255.535 196.713 255.552C196.705 255.64 196.578 255.651 196.517 255.613C196.486 255.592 196.472 255.555 196.511 255.507L196.509 255.506ZM225.449 273.187C225.461 273.144 225.519 273.094 225.668 273.047C225.796 273.297 225.581 273.32 225.487 273.26C225.474 273.254 225.464 273.243 225.457 273.23C225.451 273.217 225.449 273.202 225.451 273.187L225.449 273.187ZM18.7087 140.357C18.7774 140.359 18.8434 140.385 18.8962 140.429C18.9356 140.464 18.912 140.494 18.7158 140.457C18.6701 140.392 18.681 140.361 18.7093 140.357L18.7087 140.357ZM62.6585 167.499C62.6545 167.472 62.726 167.421 62.9408 167.337C63.1683 167.39 63.074 167.455 62.9353 167.492C62.8487 167.521 62.7561 167.527 62.6664 167.51C62.6644 167.509 62.6626 167.507 62.6612 167.505C62.6599 167.504 62.659 167.502 62.6585 167.499ZM193.126 249.963C193.158 249.945 193.193 249.935 193.229 249.933C193.265 249.93 193.302 249.937 193.335 249.951C193.37 249.978 193.33 250.032 193.094 250.099C193.086 250.088 193.081 250.076 193.078 250.063C193.075 250.05 193.076 250.037 193.079 250.024C193.082 250.011 193.087 249.999 193.096 249.988C193.104 249.978 193.114 249.969 193.125 249.963L193.126 249.963ZM17.7993 137.36C17.8913 137.358 18.3269 137.505 18.2426 137.52C18.1455 137.518 18.0489 137.505 17.955 137.48C17.8991 137.452 17.8586 137.43 17.8313 137.412C17.7745 137.376 17.7715 137.36 17.7983 137.36L17.7993 137.36ZM26.2922 128.949C26.5178 128.692 26.7553 128.443 26.7692 128.494C26.7741 128.508 26.7598 128.55 26.7181 128.625C26.4658 128.916 26.1968 129.193 25.9127 129.453C25.9035 129.46 25.8981 129.462 25.8957 129.46C26.0084 129.276 26.1409 129.104 26.2906 128.949L26.2922 128.949ZM31.1711 129.427C31.215 129.394 31.3156 129.434 31.3577 129.486C31.3999 129.537 31.3847 129.598 31.1958 129.606C31.1386 129.501 31.1446 129.448 31.1695 129.426L31.1711 129.427ZM28.9302 126.853C27.9453 126.616 26.9814 126.393 27.438 124.982C27.2271 123.528 27.3865 122.449 27.817 121.665C29.6825 118.267 36.6595 120.351 40.8722 120.989C42.8951 123.354 42.1061 124.881 42.4354 126.33C42.97 126.946 43.8067 126.91 45.2591 127.828C40.0436 126.879 43.022 128.755 40.7204 128.393C36.5683 128.74 33.0883 128.613 30.5041 128.968C30.9939 127.357 29.9506 127.098 28.9297 126.853L28.9302 126.853ZM36.073 127.908C35.927 128.294 36.5685 127.9 36.4717 127.83L36.4696 127.828C36.4347 127.806 36.3208 127.821 36.0725 127.908L36.073 127.908ZM37.0473 128.348C37.0046 128.368 36.9682 128.399 36.9422 128.438C36.8826 128.564 37.4056 128.506 37.3452 128.427C37.3411 128.422 37.3363 128.418 37.3309 128.415C37.2407 128.376 37.1444 128.354 37.0465 128.348L37.0473 128.348ZM41.9817 125.021C41.9133 125.206 42.289 125.1 42.2245 125.046L42.2202 125.043C42.1437 125.017 42.0621 125.009 41.9818 125.019L41.9817 125.021ZM26.1716 124.489C26.2023 124.457 26.243 124.436 26.287 124.43C26.331 124.423 26.3758 124.432 26.4141 124.455C26.4627 124.499 26.4321 124.594 26.1734 124.723C26.1142 124.612 26.1326 124.536 26.1718 124.488L26.1716 124.489ZM43.062 128.426C43.0756 128.409 43.0929 128.394 43.1128 128.384C43.1326 128.374 43.1545 128.368 43.1768 128.367C43.1991 128.367 43.2212 128.371 43.2416 128.38C43.262 128.389 43.2802 128.403 43.2947 128.419C43.3325 128.483 43.2856 128.598 43.0224 128.729C43.0056 128.678 43.0005 128.625 43.0074 128.572C43.0143 128.52 43.0331 128.469 43.0623 128.425L43.062 128.426ZM42.7078 125.426C42.7694 125.377 42.934 125.411 43.0084 125.467C43.0828 125.523 43.0682 125.601 42.7747 125.646C42.6692 125.523 42.667 125.455 42.7076 125.424L42.7078 125.426ZM44.0684 125.843C44.1026 125.823 44.1408 125.812 44.18 125.811C44.2192 125.809 44.2583 125.816 44.2941 125.832C44.352 125.86 44.3437 125.915 44.1242 125.981C44.044 125.909 44.042 125.867 44.0691 125.84L44.0684 125.843ZM35.2699 100.62C35.4846 100.786 35.6893 100.965 35.8832 101.155C36.9728 102.261 37.3367 103.524 36.4395 104.849C37.2751 105.736 35.2663 106.154 36.5867 107.033C34.6754 106.684 31.3983 107.031 28.4095 107.245L35.2699 100.62ZM37.8204 106.977C37.9134 106.974 38.3496 107.123 38.2649 107.135C38.1676 107.131 38.0711 107.117 37.977 107.092C37.9317 107.07 37.8875 107.046 37.8447 107.02C37.7974 106.988 37.7951 106.975 37.8201 106.975L37.8204 106.977ZM36.7807 105.801C36.8496 105.804 36.9158 105.829 36.9698 105.872C37.0101 105.908 36.9913 105.938 36.7951 105.901C36.7459 105.832 36.7512 105.804 36.7808 105.799L36.7807 105.801ZM200.002 208.093C199.519 207.124 199.576 205.512 200.422 203.096C203.82 203.172 211.95 193.375 213.817 199.079C213.984 199.186 217.443 197.418 216.442 198.517C214.482 204.001 204.034 211.02 200.713 208.892C200.406 208.696 200.16 208.418 200.002 208.091L200.002 208.093ZM193.981 185.106C192.801 182.824 192.83 180.576 195.922 181.509C199.5 180.05 202.299 177.375 206.328 177.563C205.829 178.465 206.051 178.519 206.285 178.581C206.474 178.632 206.672 178.688 206.504 179.199C204.741 183.167 201.335 189.179 199.296 188.9C198.565 189.237 197.72 189.026 196.899 188.5C195.76 187.769 194.666 186.432 193.981 185.104L193.981 185.106ZM183.083 179.441C183.079 179.348 183.404 179.233 183.228 179.518C183.188 179.516 183.149 179.505 183.114 179.485C183.106 179.481 183.099 179.475 183.093 179.467C183.088 179.459 183.084 179.451 183.083 179.441ZM222.959 203.984C220.39 197.79 227.809 196.378 230.984 193.867C230.466 195.571 233.226 195.279 234.508 194.396C233.744 197.161 231.231 199.609 230.182 204.236C230.075 205.86 227.722 205.11 226.96 205.739C226.708 207.498 226.244 207.037 225.73 206.164C224.965 204.862 224.088 202.622 223.611 205.288C223.365 204.868 223.147 204.432 222.959 203.984L222.959 203.984ZM226.286 206.34C226.347 206.515 226.603 206.616 226.315 206.159C226.294 206.183 226.28 206.213 226.274 206.245C226.269 206.277 226.273 206.31 226.285 206.34L226.286 206.34ZM232.084 197.901C231.962 198.071 231.954 198.185 231.997 198.253C232.017 198.277 232.042 198.296 232.071 198.31C232.099 198.324 232.13 198.332 232.161 198.333C232.193 198.335 232.224 198.33 232.254 198.32C232.283 198.309 232.311 198.292 232.334 198.271C232.397 198.204 232.383 198.088 232.161 197.946C232.137 197.931 232.112 197.916 232.084 197.901L232.084 197.901ZM231.733 195.583C231.723 195.643 231.721 195.704 231.727 195.764C231.751 195.878 231.854 195.81 231.919 195.718C231.969 195.648 231.997 195.565 231.953 195.536C231.921 195.517 231.854 195.524 231.732 195.584L231.733 195.583ZM199.725 189.912C199.62 189.75 199.84 189.431 199.953 189.987C199.892 190 199.828 189.991 199.774 189.961C199.754 189.949 199.737 189.932 199.724 189.913L199.725 189.912ZM183.402 179.182C183.438 179.105 183.727 178.976 183.476 179.225C183.453 179.227 183.429 179.224 183.408 179.214C183.395 179.207 183.394 179.195 183.4 179.183L183.402 179.182ZM227.352 207.152C227.318 206.95 227.541 206.895 227.492 207.388C227.423 207.326 227.373 207.244 227.351 207.153L227.352 207.152ZM227.314 206.791C227.35 206.715 227.64 206.585 227.391 206.834C227.368 206.837 227.344 206.834 227.323 206.823C227.318 206.821 227.314 206.816 227.312 206.81C227.31 206.804 227.31 206.798 227.312 206.792L227.314 206.791ZM180.005 175.034C179.742 174.548 179.591 174.009 179.564 173.457C179.537 172.906 179.633 172.355 179.847 171.845C183.404 172.897 186.889 167.237 190.06 167.575C192.153 166.31 192.168 166.836 192.204 167.374C192.225 167.689 192.253 168.008 192.705 167.978C192.647 168.016 192.597 168.066 192.56 168.124C192.499 168.329 192.495 168.395 192.521 168.389C192.578 168.373 192.767 167.989 192.713 167.977C192.934 167.951 193.149 167.892 193.353 167.803C193.488 166.838 195.67 167.39 195.175 167.347C192.399 170.554 188.306 174.55 186.485 179.326C186.198 179.395 184.403 178.832 182.713 177.749C181.622 177.05 180.574 176.136 180.004 175.035L180.005 175.034ZM185.55 178.346C185.452 178.446 185.442 178.513 185.475 178.55C185.519 178.602 185.643 178.601 185.714 178.567C185.777 178.537 185.799 178.481 185.695 178.414C185.649 178.387 185.599 178.364 185.549 178.347L185.55 178.346ZM188.392 168.139C188.324 168.253 188.324 168.31 188.35 168.332C188.385 168.358 188.461 168.332 188.515 168.291C188.569 168.251 188.598 168.199 188.548 168.167C188.499 168.144 188.445 168.135 188.391 168.14L188.392 168.139ZM193.717 168.208C193.535 168.444 193.503 168.538 193.545 168.55C193.639 168.577 194.103 168.19 194.013 168.132C193.983 168.115 193.895 168.131 193.715 168.209L193.717 168.208ZM231.478 194.635C231.457 194.506 231.757 194.338 231.636 194.731C231.596 194.728 231.558 194.717 231.523 194.697C231.512 194.691 231.502 194.682 231.494 194.672C231.486 194.661 231.48 194.649 231.477 194.637L231.478 194.635ZM171.108 155.423C170.665 154.854 170.289 154.235 169.988 153.58C168.297 149.71 172.738 148.77 176.004 148.289C177.755 147.97 180.948 146.11 179.561 149.551C180.097 149.8 180.354 148.692 180.919 148.992C178.824 150.306 177.536 156.675 176.152 155.94C175.038 154.935 174.148 155.298 173.4 155.75C172.746 156.145 172.201 156.609 171.706 156.292C171.425 156.068 171.216 155.766 171.107 155.424L171.108 155.423ZM171.262 154.581C171.231 154.815 171.248 154.868 171.279 154.83C171.373 154.658 171.428 154.469 171.441 154.274C171.423 154.265 171.37 154.343 171.26 154.584L171.262 154.581ZM232.393 194.648C232.425 194.538 233.185 193.643 232.677 194.405C232.597 194.505 232.501 194.591 232.393 194.658C232.389 194.659 232.39 194.655 232.392 194.651L232.393 194.648ZM234.435 195.473C234.472 195.397 234.759 195.267 234.512 195.516C234.488 195.519 234.465 195.515 234.443 195.505C234.438 195.502 234.434 195.498 234.432 195.492C234.43 195.486 234.431 195.48 234.433 195.475L234.435 195.473ZM234.526 195.253C234.514 195.157 234.762 194.851 234.912 195.047C234.682 195.252 234.575 195.299 234.539 195.276C234.535 195.274 234.532 195.271 234.529 195.267C234.527 195.263 234.525 195.259 234.524 195.255L234.526 195.253ZM192.714 167.975L192.706 167.976C192.708 167.976 192.71 167.977 192.712 167.978L192.714 167.975ZM233.753 194.211C233.745 194.073 234.174 193.803 233.947 194.273C233.892 194.286 233.833 194.28 233.781 194.257C233.773 194.253 233.766 194.247 233.761 194.239C233.756 194.231 233.753 194.223 233.752 194.213L233.753 194.211ZM235.08 193.709C235.117 193.633 235.405 193.505 235.157 193.752C235.134 193.755 235.109 193.752 235.088 193.742C235.083 193.739 235.079 193.734 235.077 193.729C235.075 193.723 235.075 193.717 235.078 193.712L235.08 193.709ZM220.622 177.929C219.548 175.748 224.993 174.371 228.027 171.797C228.065 172.071 230.706 172.669 232.435 171.236C232.305 171.439 232.228 171.592 232.136 171.755C232.156 171.789 232.163 171.846 232.127 171.966C232.115 171.966 232.103 171.962 232.092 171.956C232.081 171.95 232.072 171.942 232.065 171.932C232.059 171.925 232.051 171.918 232.043 171.913C231.121 173.676 232.23 173.515 228.42 178.61C228.327 182.088 225.705 181.393 224.198 180.452C223.479 180.131 222.782 179.762 222.113 179.346C221.308 178.833 220.835 178.366 220.621 177.93L220.622 177.929ZM229.015 172.757C228.904 172.94 228.892 173.02 228.925 173.04C229.003 173.086 229.327 172.809 229.227 172.746C229.197 172.729 229.132 172.728 229.014 172.759L229.015 172.757ZM242.974 188.666C242.997 188.555 243.568 188.208 243.192 188.658C243.067 188.698 243.006 188.704 242.983 188.69C242.98 188.688 242.977 188.684 242.975 188.681C242.973 188.677 242.973 188.672 242.973 188.668L242.974 188.666ZM241.996 187.767C241.99 187.672 242.317 187.552 242.139 187.835C242.098 187.833 242.057 187.823 242.021 187.804C242.014 187.801 242.008 187.796 242.003 187.79C241.998 187.784 241.995 187.777 241.994 187.77L241.996 187.767ZM241.106 185.863C240.046 183.301 240.82 179.449 245.014 178.385C248.357 171.487 255.111 175.464 252.913 179.253C253.982 179.103 254.144 179.159 255.31 179.268C253.943 181.651 255.964 180.078 253.839 182.228C249.468 182.875 248.593 186.583 245.74 186.198C245.735 186.234 245.723 186.244 245.719 186.276C245.75 186.296 245.765 186.357 245.732 186.498C245.687 186.509 245.692 186.488 245.664 186.485C245.247 188.126 243.814 185.49 242.719 187.84C242.689 187.822 242.658 187.803 242.629 187.784C241.938 187.313 241.407 186.644 241.105 185.864L241.106 185.863ZM246.947 185.372C246.565 185.809 246.486 185.95 246.555 185.94C246.707 185.916 247.58 185.141 247.492 185.085C247.459 185.067 247.304 185.14 246.946 185.374L246.947 185.372ZM253.067 179.673C253.028 179.8 253.03 179.858 253.049 179.874C253.074 179.893 253.125 179.853 253.16 179.803C253.195 179.752 253.213 179.694 253.178 179.672C253.159 179.66 253.124 179.658 253.066 179.674L253.067 179.673ZM252.873 178.275C252.759 178.453 252.74 178.521 252.767 178.526C252.827 178.534 253.111 178.229 253.059 178.196C253.041 178.188 252.985 178.206 252.871 178.278L252.873 178.275ZM181.294 148.34C181.27 148.209 181.738 147.805 181.527 148.335C181.407 148.381 181.341 148.384 181.312 148.365C181.303 148.359 181.296 148.35 181.294 148.34ZM203.051 161.445C201.767 158.616 205.261 154.509 210.353 154.005C214.426 151.04 216.644 153.698 219.227 152.47L218.876 153.01C215.078 156.52 212.2 163.868 208.06 164.052C206.458 163.883 205.26 163.488 204.414 162.946C203.823 162.59 203.349 162.068 203.051 161.446L203.051 161.445ZM243.703 187.092C243.699 186.999 244.023 186.883 243.845 187.165C243.805 187.163 243.766 187.152 243.73 187.133C243.723 187.13 243.716 187.124 243.711 187.117C243.707 187.11 243.704 187.102 243.703 187.094L243.703 187.092ZM246.168 186.738C246.129 186.615 246.464 186.332 246.364 186.773C246.275 186.793 246.223 186.789 246.194 186.77C246.182 186.763 246.173 186.752 246.168 186.739L246.168 186.738ZM229.602 170.941C229.62 170.876 229.976 170.615 229.733 170.911C229.654 170.949 229.616 170.96 229.605 170.953C229.601 170.951 229.601 170.947 229.602 170.942L229.602 170.941ZM232.515 171.928C232.485 171.825 234.206 170.929 233.294 171.682C232.768 171.897 232.554 171.956 232.52 171.934C232.518 171.933 232.516 171.931 232.516 171.928L232.515 171.928ZM197.761 148.282C197.765 148.173 198.146 147.8 197.917 148.26C197.831 148.304 197.787 148.315 197.77 148.304C197.766 148.301 197.764 148.298 197.762 148.294C197.761 148.29 197.761 148.286 197.761 148.282L197.761 148.282ZM194.21 145.049C194.217 144.917 194.431 144.73 194.291 145.14C194.274 145.138 194.258 145.133 194.244 145.125C194.232 145.116 194.223 145.105 194.217 145.092C194.211 145.078 194.209 145.064 194.211 145.05L194.21 145.049ZM193.212 143.336C193.003 143.036 192.822 142.717 192.671 142.383C190.745 137.927 199.902 138.13 201.828 136.335C203.417 136.646 203.238 137.115 203.994 136.707C205.748 138.56 203.397 141.111 201.65 143.427C201.177 144.072 200.646 144.673 200.065 145.223C200.039 145.201 200.014 145.174 199.918 145.196C199.901 145.247 199.905 145.301 199.929 145.349C199.977 145.308 200.019 145.263 200.065 145.224C200.158 145.3 199.974 145.493 199.928 145.351C198.582 146.569 197.157 147.147 196.682 145.25C195.389 145.251 195.28 145.641 195 145.462C194.77 145.313 194.424 144.782 193.213 143.336L193.212 143.336ZM256.207 180.092C256.087 179.948 256.441 179.682 256.514 180.164C256.42 180.177 256.325 180.162 256.239 180.12C256.227 180.112 256.217 180.103 256.207 180.092L256.207 180.092ZM253.442 177.856C253.5 177.765 254.059 177.365 253.607 177.802C253.499 177.862 253.45 177.88 253.44 177.873C253.436 177.871 253.437 177.865 253.442 177.857L253.442 177.856ZM256.077 178.686C256.114 178.61 256.404 178.481 256.154 178.731C256.131 178.733 256.108 178.729 256.087 178.718C256.082 178.715 256.078 178.71 256.076 178.704C256.074 178.698 256.075 178.692 256.078 178.687L256.077 178.686ZM215.426 151.803C215.421 151.709 215.747 151.595 215.571 151.878C215.53 151.876 215.491 151.865 215.455 151.846C215.448 151.842 215.441 151.836 215.436 151.828C215.432 151.821 215.429 151.813 215.428 151.804L215.426 151.803ZM226.191 156.064C225.746 154.906 225.806 153.793 227.136 153.382C229.809 149.409 237.419 143.895 239.076 148.095C239.564 148.018 239.682 148.332 239.791 148.64C239.919 149.001 240.039 149.358 240.739 149.077C238.271 151.564 235.073 159.674 233.046 159.52C230.92 158.83 230.483 159.539 229.087 159.198C229.085 159.453 228.889 159.446 228.597 159.259C227.916 158.825 226.711 157.413 226.191 156.064ZM219.41 152.27C219.418 152.127 219.794 151.989 219.56 152.397C219.527 152.39 219.495 152.377 219.465 152.359C219.449 152.351 219.435 152.338 219.425 152.322C219.416 152.307 219.41 152.289 219.41 152.27L219.41 152.27ZM235.304 158.426C235.3 158.33 235.625 158.213 235.448 158.497C235.407 158.495 235.368 158.484 235.332 158.465C235.325 158.461 235.318 158.456 235.314 158.449C235.309 158.442 235.306 158.434 235.305 158.426L235.304 158.426ZM251.544 167.438C251.453 167.077 251.39 166.735 251.531 167.016C251.618 167.344 251.685 167.678 251.733 168.014C251.733 168.027 251.731 168.031 251.728 168.029C251.648 167.838 251.587 167.64 251.543 167.437L251.544 167.438ZM248.25 165.35C248.21 165.186 248.49 164.962 248.421 165.467C248.382 165.464 248.345 165.452 248.311 165.432C248.281 165.413 248.259 165.384 248.25 165.35L248.25 165.35ZM249.239 164.677C248.078 164.107 247.372 163.454 247.017 162.749C245.474 159.701 250.467 155.663 253.03 152.916C254.975 152.707 255.898 153.325 256.708 153.872C257.015 154.096 257.345 154.286 257.693 154.439C258.408 154.357 258.801 153.731 260.19 153.131C256.902 156.452 259.751 155.222 258.341 156.716C256.524 159.909 254.697 162.376 253.668 164.434C252.753 163.29 252.051 163.887 251.374 164.499C250.827 164.993 250.295 165.497 249.679 165.103C249.509 164.987 249.36 164.843 249.239 164.677L249.239 164.677ZM256.474 159.363C256.467 159.404 256.473 159.447 256.49 159.486C256.52 159.538 256.591 159.461 256.643 159.371C256.688 159.293 256.719 159.205 256.693 159.188C256.671 159.175 256.607 159.215 256.474 159.362L256.474 159.363ZM254.331 164.175C254.326 164.081 254.652 163.965 254.475 164.248C254.435 164.245 254.395 164.235 254.36 164.216C254.353 164.212 254.346 164.206 254.341 164.198C254.336 164.191 254.333 164.183 254.332 164.174L254.331 164.175ZM215.261 135.632C214.639 134.178 214.822 132.998 217.187 133.543C222.952 130.328 223.478 131.981 227.309 131.534C227.155 132.256 226.853 134.944 222.706 138.655C221.652 138.786 219.691 139.824 218.734 138.49C219.07 139.589 218.75 139.742 218.18 139.377C217.32 138.825 215.885 137.09 215.262 135.631L215.261 135.632ZM219.811 140.165C219.788 140.034 220.088 139.866 219.968 140.26C219.928 140.257 219.89 140.245 219.855 140.226C219.844 140.219 219.834 140.21 219.827 140.2C219.819 140.189 219.814 140.177 219.812 140.164L219.811 140.165ZM239.938 148.32C239.974 148.246 240.266 148.111 240.017 148.361C239.993 148.364 239.969 148.361 239.947 148.351C239.944 148.349 239.942 148.347 239.94 148.345C239.938 148.342 239.937 148.34 239.936 148.337C239.936 148.334 239.935 148.331 239.936 148.328C239.937 148.325 239.938 148.322 239.939 148.32L239.938 148.32ZM241.312 148.152C241.371 148.06 241.927 147.657 241.474 148.094C241.367 148.155 241.318 148.173 241.308 148.167C241.306 148.164 241.308 148.158 241.313 148.151L241.312 148.152ZM173.949 104.087C172.158 101.96 177.813 98.2238 181.301 96.3115C185.144 93.1098 183.949 93.6658 186.963 92.1571C187.952 91.1482 187.997 92.1078 188.014 93.0501C188.026 93.6944 188.025 94.3305 188.304 94.3227C186.495 98.8914 187.97 103.016 182.289 105.795C181.839 107.57 179.566 107.563 178.51 106.976C177.876 106.621 177.683 106.061 178.58 105.548C176.54 105.373 175.225 105.012 174.462 104.523C174.27 104.404 174.098 104.256 173.95 104.086L173.949 104.087ZM257.169 153.788C257.16 153.65 257.59 153.378 257.362 153.851C257.306 153.864 257.248 153.858 257.196 153.835C257.188 153.83 257.181 153.823 257.177 153.815C257.172 153.806 257.17 153.797 257.17 153.787L257.169 153.788ZM259.528 155.027C259.48 154.838 259.8 154.694 259.727 155.206C259.697 155.194 259.669 155.179 259.641 155.162C259.589 155.132 259.549 155.083 259.531 155.026L259.528 155.027ZM258.147 153.005C258.134 152.898 258.4 152.65 258.278 153.036C258.222 153.052 258.188 153.05 258.168 153.037C258.163 153.033 258.158 153.028 258.155 153.023C258.152 153.017 258.15 153.01 258.149 153.004L258.147 153.005ZM227.209 133.105C227.183 133.076 227.177 133.01 227.217 132.876C227.396 132.9 227.397 132.995 227.349 133.06C227.315 133.107 227.256 133.137 227.22 133.114C227.217 133.111 227.214 133.108 227.212 133.104L227.209 133.105ZM164.979 86.7208C164.505 86.4141 164.007 86.0675 163.474 85.6766C164.081 80.2472 175.228 78.345 176.779 76.0559C177.759 76.6709 177.735 78.2176 177.38 79.023C177.934 83.9481 183.806 85.7626 173.841 86.0984C170.44 88.8882 168.323 88.8629 165.026 86.7511L164.979 86.7208ZM162.413 84.6818C162.395 84.6405 162.386 84.5956 162.387 84.5503C162.833 84.4659 162.614 84.7743 162.475 84.7333C162.448 84.7248 162.426 84.7061 162.414 84.6814L162.413 84.6818ZM157.383 70.5258C155.168 68.139 155.498 64.4706 163.218 63.6519C165.447 63.3288 166.464 61.8103 166.645 60.7531C167.916 60.1729 167.86 60.943 167.874 61.758C167.886 62.4281 167.946 63.1286 168.831 63.1344C175.367 62.0535 168.544 68.8746 166.597 70.0874C164.672 73.0242 161.577 73.0832 159.263 71.9216C159.047 71.8135 158.838 71.6943 158.635 71.5642C158.175 71.2716 157.754 70.9224 157.382 70.5248L157.383 70.5258ZM177.987 79.5229C177.994 79.4247 178.033 79.3316 178.099 79.258C178.251 79.4376 178.157 79.5633 178.073 79.5825C178.064 79.5851 178.054 79.5857 178.044 79.5845C178.035 79.5833 178.025 79.5803 178.017 79.5754C178.008 79.5697 178 79.5618 177.995 79.5525C177.989 79.5432 177.986 79.5326 177.985 79.5218L177.987 79.5229ZM174.626 77.244C175.044 77.1567 174.94 77.401 174.784 77.3769C174.76 77.3733 174.737 77.3645 174.716 77.3512C174.677 77.3242 174.645 77.2867 174.625 77.2429L174.626 77.244ZM176.28 76.1963C176.701 75.8566 176.343 76.2867 176.249 76.3265C176.242 76.3299 176.236 76.3308 176.232 76.3284C176.22 76.3206 176.23 76.2835 176.279 76.1957L176.28 76.1963ZM168.598 59.716C168.952 59.4882 168.628 59.8426 168.554 59.8544C168.55 59.8553 168.546 59.8549 168.543 59.8532C168.529 59.8452 168.541 59.8048 168.596 59.7154L168.598 59.716ZM195.042 72.9128C194.675 72.663 194.337 72.3734 194.033 72.0493C191.861 69.7568 190.961 65.736 191.119 65.2933C196.573 63.8727 201.446 59.8675 205.296 57.2114C205.308 56.664 205.65 59.1236 204.576 59.1552C204.454 59.3675 204.363 59.5964 204.307 59.8347C204.305 59.7725 203.857 59.935 203.832 59.9955C203.821 60.0214 203.897 60.0264 204.128 59.9844C204.197 59.9505 204.258 59.902 204.306 59.8421C204.216 60.34 204.569 60.405 204.915 60.4667C205.498 60.5698 206.06 60.6589 204.43 62.7904C204.419 66.3051 197.796 69.4449 198.519 73.4693C197.949 73.6379 197.349 73.6797 196.761 73.5919C196.173 73.5042 195.612 73.2888 195.116 72.9611L195.042 72.9128ZM191.847 66.4937C191.884 66.5323 191.959 66.5299 192.08 66.4359C192.043 66.287 192 66.2135 191.961 66.1882C191.851 66.1183 191.763 66.4056 191.845 66.493L191.847 66.4937ZM203.394 64.5733C203.415 64.6063 203.477 64.6095 203.61 64.5494C203.623 64.4269 203.605 64.3675 203.577 64.3492C203.502 64.2999 203.348 64.4998 203.393 64.5729L203.394 64.5733ZM203.78 58.8553C203.788 58.9021 203.895 58.8786 204.176 58.7078C204.297 58.495 204.318 58.4016 204.285 58.3807C204.2 58.3261 203.762 58.7527 203.778 58.8546L203.78 58.8553ZM215.463 85.0233C215.171 84.8796 214.909 84.6804 214.693 84.4367C213.65 83.1149 217.4 82.064 215.506 79.4338C214.867 77.8285 222.002 77.1867 223.694 75.0484C223.956 75.7032 222.711 75.85 222.921 76.4684C226.859 75.3617 224.434 78.6359 223.873 80.5159C222.953 84.0374 221.387 88.794 217.35 86.474C217.253 86.4185 217.155 86.3589 217.056 86.2954C216.486 85.9209 215.953 85.4949 215.462 85.0226L215.463 85.0233ZM216.135 84.9099C216.113 84.9234 216.114 84.9359 216.154 84.9452C216.237 84.9568 216.321 84.9605 216.405 84.9563C216.702 84.8582 216.785 84.8107 216.759 84.794C216.545 84.7903 216.332 84.8294 216.134 84.9092L216.135 84.9099ZM190.519 68.8393C190.852 68.679 190.689 69.0224 190.585 69.0076C190.579 69.0065 190.574 69.0043 190.569 69.0011C190.541 68.9833 190.518 68.9354 190.518 68.8378L190.519 68.8393ZM190.868 68.6019C191.172 68.3589 190.992 68.6611 190.903 68.6899C190.899 68.6916 190.895 68.6923 190.891 68.6922C190.887 68.6921 190.883 68.6911 190.88 68.6893C190.865 68.6803 190.859 68.6542 190.867 68.6015L190.868 68.6019ZM161.222 47.0146C161.091 46.93 160.969 46.8329 160.857 46.7246C157.495 43.4491 167.1 31.7211 173.693 30.1497C175.02 29.1863 172.668 32.7642 172.763 32.9596C178.792 35.6916 167.074 43.4233 166.748 47.1576C164.002 47.7915 162.23 47.6591 161.226 47.0159L161.222 47.0146ZM185.69 56.3827C185.081 55.9754 184.511 55.5109 183.99 54.9954C182.413 53.4344 181.352 51.4649 182.171 50.1006C182.111 47.8326 189.108 44.8226 193.671 43.369C194.246 43.2474 194.288 43.4652 194.32 43.6768C194.362 43.9437 194.387 44.1997 195.443 43.7593C195.165 48.197 191.896 50.9412 189.867 54.6884C190.504 58.118 188.147 57.9568 185.83 56.4732C185.783 56.4425 185.736 56.4119 185.689 56.3804L185.69 56.3827ZM181.11 49.5089C181.056 49.4634 181.021 49.3819 181.057 49.2503C181.398 49.3591 181.42 49.4722 181.346 49.5236C181.312 49.5428 181.274 49.5527 181.236 49.5522C181.197 49.5516 181.159 49.5406 181.126 49.5203C181.121 49.5163 181.115 49.5119 181.11 49.5072L181.11 49.5089ZM224.489 74.458C225.096 74.2901 224.595 74.7582 224.456 74.7153C224.452 74.7142 224.449 74.7125 224.445 74.7104C224.409 74.6858 224.409 74.6121 224.489 74.4564L224.489 74.458ZM204.307 59.8361C204.307 59.8385 204.307 59.841 204.306 59.8432L204.307 59.8361ZM167.135 21.477C170.114 21.2753 167.765 20.0435 166.431 19.0486C165.535 18.3815 165.086 17.8164 167.043 17.7508C167.825 16.9929 167.287 14.325 169.08 14.4026C174.278 13.8105 177.262 11.3518 180.385 10.8459C179.264 12.144 178.612 15.1373 180.542 14.7732C177.407 17.9496 174.965 25.9108 168.485 22.3495C168.285 22.2398 168.082 22.1186 167.875 21.9861C167.634 21.8317 167.387 21.662 167.135 21.477ZM166.159 18.2514C166.169 18.2888 166.187 18.3236 166.213 18.3528C166.238 18.3821 166.27 18.4052 166.306 18.4203C166.337 18.4375 166.372 18.4457 166.407 18.4437C166.442 18.4418 166.477 18.4299 166.505 18.4094C166.445 18.3615 166.392 18.3237 166.349 18.2959C166.215 18.2095 166.161 18.2139 166.159 18.2514ZM175.856 13.1362C175.926 13.1897 176.052 13.1943 176.253 13.0809C176.213 12.957 176.139 12.847 176.038 12.7642C175.833 12.6325 175.698 13.0128 175.856 13.1357L175.856 13.1362ZM178.493 13.6827C178.498 13.6948 178.506 13.7055 178.516 13.714C178.526 13.7225 178.537 13.7285 178.55 13.7314C178.615 13.7465 178.682 13.7518 178.748 13.7473C178.847 13.5923 178.849 13.5171 178.809 13.4914C178.726 13.4396 178.469 13.5909 178.493 13.6824L178.493 13.6827ZM231.373 62.2524C230.575 61.419 230.055 60.9114 229.725 60.5791C228.738 59.5804 229.483 60.1515 229.695 58.2172C227.676 57.4691 228.479 55.9772 229.977 54.6481C229.907 54.6154 229.922 54.5591 229.966 54.5199C230.014 54.477 230.096 54.4557 230.134 54.5143C230.084 54.5586 230.03 54.5996 229.981 54.6478C230.029 54.6786 230.086 54.6898 230.142 54.6791C230.178 54.5761 230.154 54.5452 230.133 54.514C230.805 53.9429 231.528 53.4336 232.292 52.9924C234.066 51.9382 235.973 50.6268 237.592 50.3979L239.957 52.8462C240.019 53.1109 240.062 53.3799 240.085 53.6508C237.885 55.5439 237.005 65.6047 232.354 62.9574C232.284 62.917 232.212 62.8737 232.14 62.8274C231.872 62.6531 231.615 62.4609 231.373 62.2521L231.373 62.2524ZM229.554 60.9298C229.544 60.9193 229.537 60.907 229.533 60.8937C229.528 60.8803 229.526 60.8663 229.527 60.8523C229.993 60.7492 229.765 60.9606 229.618 60.9535C229.599 60.9539 229.581 60.949 229.564 60.9391C229.56 60.9364 229.557 60.9331 229.554 60.9296L229.554 60.9298ZM211.793 48.4909C210.968 47.4885 210.447 45.8596 210.458 43.4855C211.071 39.5401 217.56 37.3082 222.06 34.3143L223.89 36.2085C223.929 37.9177 223.893 39.8216 221.744 42.1809C220.58 47.7004 215.658 51.0349 212.712 49.2874C212.68 49.2684 212.649 49.2489 212.617 49.2288C212.306 49.0275 212.027 48.7788 211.792 48.4916L211.793 48.4909ZM226.545 56.5025C227.079 56.3063 226.623 56.6803 226.503 56.6722C226.497 56.672 226.492 56.6703 226.488 56.6676C226.465 56.6543 226.475 56.607 226.545 56.5035L226.545 56.5025ZM165.301 16.9714C165.846 16.979 165.76 17.2142 165.542 17.1515C165.507 17.1408 165.474 17.1253 165.443 17.1052C165.388 17.0694 165.34 17.0244 165.3 16.9722L165.301 16.9714ZM165.896 17.1488C166.199 16.9066 166.021 17.2075 165.933 17.238C165.929 17.2394 165.925 17.24 165.921 17.2397C165.917 17.2394 165.913 17.2381 165.91 17.2361C165.896 17.229 165.888 17.2026 165.896 17.1495L165.896 17.1488ZM196.192 27.5328C195.621 26.8545 195.039 25.6691 194.425 23.8233C193.576 22.0592 193.129 19.1023 196.952 19.4201C202.903 15.9139 202.703 17.0098 204.645 16.283L204.951 16.6009C203.826 18.3243 204.114 20.6065 204.372 20.6712C201.185 23.6866 199.022 29.4883 196.76 28.0476C196.547 27.9051 196.355 27.732 196.192 27.5337L196.192 27.5328ZM203.12 19.5362C203.136 19.5767 203.225 19.5695 203.439 19.4712C203.498 19.3162 203.496 19.2436 203.462 19.2221C203.373 19.1665 203.081 19.4521 203.119 19.5369L203.12 19.5362ZM179.698 14.0858C179.679 14.0447 179.67 13.9998 179.671 13.9547C180.117 13.87 179.897 14.18 179.756 14.1393C179.749 14.1372 179.743 14.1341 179.737 14.1301C179.72 14.1191 179.706 14.1042 179.697 14.0866L179.698 14.0858ZM180.153 12.8541C181.05 12.388 179.977 13.1118 179.852 13.1341C179.849 13.1352 179.846 13.1352 179.842 13.1341C179.827 13.1252 179.905 13.0479 180.152 12.8548L180.153 12.8541ZM180.441 11.6411C180.432 11.5866 180.435 11.5308 180.451 11.4778C180.995 11.2853 180.645 11.7212 180.494 11.6965C180.486 11.6951 180.479 11.6921 180.472 11.6878C180.456 11.6769 180.444 11.6605 180.44 11.6418L180.441 11.6411ZM179.158 10.7083C179.46 10.4665 179.283 10.7655 179.195 10.7975C179.191 10.7993 179.187 10.8002 179.183 10.8C179.179 10.7999 179.175 10.7988 179.171 10.7968C179.156 10.7881 179.148 10.7621 179.156 10.7088L179.158 10.7083ZM179.719 10.3275C179.916 10.5146 179.551 10.7507 179.446 10.7261C179.442 10.725 179.438 10.7232 179.434 10.7207C179.388 10.6929 179.434 10.5817 179.716 10.3277L179.719 10.3275ZM181.167 10.2131C181.47 9.97098 181.292 10.2726 181.205 10.3046C181.201 10.3062 181.197 10.307 181.193 10.3067C181.189 10.3065 181.185 10.3052 181.181 10.3031C181.165 10.2944 181.158 10.2675 181.166 10.2135L181.167 10.2131ZM205.552 18.9098C205.907 18.6784 205.575 19.0355 205.503 19.0468C205.499 19.0478 205.496 19.0474 205.493 19.0459C205.479 19.0381 205.494 18.9998 205.549 18.9096L205.552 18.9098ZM188.494 3.27257C188.825 3.11163 188.658 3.45665 188.553 3.44101C188.547 3.44016 188.542 3.4382 188.537 3.43516C188.51 3.41916 188.492 3.3698 188.492 3.27305L188.494 3.27257ZM189.351 3.7652C189.022 3.43891 188.754 3.05697 188.558 2.63702C189.869 2.19247 189.905 1.5222 189.806 0.91835L194.12 5.38415C192.877 5.49259 191.631 5.23564 190.533 4.64486C190.421 4.5834 190.312 4.51868 190.206 4.45078C189.896 4.25447 189.609 4.02471 189.349 3.76552L189.351 3.7652ZM187.72 2.02269C188.259 1.66413 187.809 2.24793 187.685 2.25948C187.679 2.26029 187.673 2.25904 187.668 2.25595C187.643 2.23983 187.651 2.17428 187.719 2.02198L187.72 2.02269ZM189.434 1.48361C189.765 1.32375 189.601 1.66549 189.498 1.65008C189.492 1.6491 189.486 1.64675 189.481 1.64331C189.453 1.62639 189.432 1.57915 189.432 1.4834L189.434 1.48361Z" fill="currentColor" fill-opacity="1"/>
</svg>
