<svg width="210" height="252" viewBox="0 0 210 252" fill="none" xmlns="http://www.w3.org/2000/svg">
<path d="M77.2245 251.184C76.6287 250.419 76.1355 249.376 75.7875 248.145V239.778C75.547 239.368 75.3255 238.916 75.1256 238.428C75.0032 238.086 74.9368 237.678 74.9358 237.258C74.9348 236.839 74.9991 236.428 75.1198 236.084C75.3411 235.469 75.5809 234.881 75.8379 234.324V231.439C75.5 230.247 75.2069 229.006 74.9609 227.728L75.8272 225.819V224.178C76.0311 223.814 76.2554 223.499 76.4956 223.238C76.7438 223.028 77.0624 223.135 77.2916 222.887C77.5266 222.544 77.7365 222.137 77.9153 221.678C78.4785 221.454 79.0541 221.379 79.6272 221.452C79.9357 221.464 80.251 221.477 80.5753 221.452C81.0924 220.88 81.4381 219.219 82.3366 219.77C82.7503 218.983 83.159 218.198 83.5537 217.442C83.8532 216.473 83.5537 215.071 84.2073 214.443H87.6523C87.9783 215.056 88.2918 215.641 88.6145 216.242H91.1934C91.9338 217.727 92.6445 219.183 93.3783 220.591C93.5906 220.932 93.8212 221.224 94.0658 221.463H95.4516C95.7296 221.934 96.0474 222.479 96.437 223.139H98.0677C98.4028 223.739 98.7196 224.302 99.0671 224.934H100.752C101.073 225.541 101.389 226.132 101.705 226.723C102.568 226.723 103.443 226.695 104.311 226.751C104.418 226.751 104.545 227.101 104.612 227.342C104.627 227.441 104.632 227.547 104.624 227.65C104.617 227.754 104.598 227.852 104.569 227.939C104.379 228.384 104.164 228.774 103.917 229.272V232.694C103.459 233.877 102.891 234.873 102.244 235.627H100.742C100.163 236.783 99.6488 237.819 99.0953 238.928H96.5487C96.2137 239.522 95.8985 240.093 95.5402 240.723H93.8623C93.5396 241.331 93.2294 241.915 92.9067 242.519H92.0637C91.7427 243.126 91.4308 243.717 91.1123 244.307H86.7985C86.4535 244.933 86.1366 245.505 85.8098 246.096H82.3755C81.52 247.806 80.6994 249.452 79.8257 251.194L77.2245 251.184ZM130.57 228.425C130.137 227.549 129.723 226.724 129.297 225.873V215.368C129.567 214.777 129.852 214.145 130.125 213.552C129.857 212.938 129.589 212.336 129.343 211.771C129.649 211.05 129.922 210.412 130.149 209.874C130.224 207.398 130.033 205.073 130.201 203.391L131.413 200.412C132.694 200.324 132.703 200.312 132.791 197.916C132.526 197.325 132.239 196.693 131.941 196.022C131.941 195.755 131.931 195.489 131.908 195.226C131.858 194.947 131.858 194.641 131.911 194.363C131.963 194.084 132.063 193.853 132.194 193.71C132.394 193.466 132.573 193.735 132.821 194.292C133.204 195.169 133.638 195.954 134.051 196.787C134.217 196.413 134.505 196.063 134.523 195.652C134.615 193.947 134.616 192.216 134.681 190.512C134.69 190.279 134.874 190.09 134.979 189.876H135.859C136.68 191.516 137.502 193.177 138.336 194.814C138.389 194.913 138.536 194.827 138.642 194.827C139.156 193.799 139.671 192.768 140.214 191.678H141.919C142.25 191.068 142.563 190.483 142.885 189.876H144.008C144.427 190.939 144.961 192.312 145.422 193.488H147.242L148.242 195.122C148.567 195.158 148.894 195.161 149.22 195.132C149.788 195.029 150.362 195.134 150.912 195.444C151.117 195.858 151.325 196.269 151.582 196.787H154.336C154.793 197.967 155.329 199.332 155.748 200.406C156.595 200.406 157.18 200.406 157.747 200.406C158.068 201.01 158.358 202.013 158.686 202.088C159.858 202.363 159.872 202.265 159.955 204.651C159.688 205.248 159.401 205.887 159.089 206.573V210.083C158.371 211.455 157.632 212.854 156.845 214.354L156.053 214.453C155.757 215.009 155.441 215.598 155.117 216.202H154.355C153.233 217.803 152.567 220.163 151.459 221.468C148.93 221.468 146.448 221.469 143.969 221.484C143.836 221.537 143.709 221.634 143.593 221.77C143.385 222.185 143.179 222.595 142.974 223.015C142.221 223.256 141.456 223.321 140.695 223.208C139.919 223.078 139.138 223.16 138.373 223.452L137.639 224.926H135.938C135.607 225.535 135.295 226.124 134.969 226.726H134.127C133.803 227.34 133.489 227.924 133.217 228.441L130.57 228.425ZM6.16181 205.563C5.82343 204.972 5.50569 204.408 5.18551 203.849C4.78638 203.614 4.36301 203.596 3.95944 203.799C3.66799 203.999 3.35464 204.036 3.05343 203.905C2.75222 203.775 2.47463 203.483 2.25093 203.06V199.645C1.94399 198.974 1.65193 198.341 1.35078 197.69V194.294C1.05873 193.634 0.790668 193.028 0.523438 192.424C1.07279 191.335 1.59238 190.304 2.0954 189.249C2.14174 189.157 2.07719 188.843 2.06561 188.617C1.80448 188.318 1.59847 187.859 1.47783 187.309C1.35719 186.758 1.32834 186.145 1.39552 185.559C1.62552 185.04 1.91089 184.404 2.20377 183.754C1.93075 183.163 1.6478 182.537 1.37643 181.938V176.701C2.10449 175.242 2.82755 173.788 3.55396 172.336H11.427C11.7373 172.915 12.0557 173.501 12.3817 174.113H20.1935C20.541 174.739 20.8553 175.311 21.1862 175.908H33.3391C33.7205 176.569 34.0407 177.113 34.3915 177.71H36.0345L37.6404 180.927C38.1377 181.012 38.6031 181.451 38.9517 182.163C38.4366 183.194 37.9215 184.227 37.4063 185.264C37.3021 186.056 37.1987 186.845 37.0754 187.772C36.6816 188.432 36.2423 189.148 35.8079 189.876C35.1361 189.618 34.8259 190.805 34.3427 191.276C33.7329 191.866 32.975 191.866 32.558 193.209C32.2025 193.181 31.8496 193.341 31.5353 193.673C31.2209 194.005 30.9563 194.498 30.7685 195.101H28.1517C27.8257 195.713 27.5105 196.304 27.1878 196.902H26.353L25.4123 198.644C25.0913 198.683 24.8075 198.731 24.5262 198.771C23.3903 201.037 22.256 203.311 21.1027 205.624H14.0869C13.8072 205.098 13.4936 204.516 13.171 203.915H7.94556C7.6229 204.516 7.30933 205.098 7.00653 205.669C6.69875 205.63 6.41415 205.604 6.16181 205.563ZM180.585 195.138C180.048 194.117 179.628 193.314 179.229 192.545V177.993C179.766 177.13 180.443 176.055 181.023 175.133V169.786C181.354 168.907 181.724 168.3 181.825 167.538C181.931 166.713 181.898 165.86 182.302 165.308C183.019 165.308 183.019 165.307 183.47 164.703C183.822 163.383 183.366 161.852 183.785 160.578C183.879 160.368 183.987 160.184 184.106 160.033L184.929 160.114C185.25 160.663 185.549 161.182 185.847 161.698C186.29 160.826 186.615 159.85 187.309 160.005C187.707 160.043 188.107 160.003 188.502 159.885C189.076 158.743 189.59 157.71 190.104 156.678C190.386 156.629 190.664 156.576 190.985 156.513L191.945 158.249H192.748C193.079 158.86 193.393 159.444 193.716 160.041H195.425C195.756 160.655 196.072 161.239 196.394 161.83H201.562C201.92 162.472 202.237 163.029 202.576 163.626H205.066C205.465 164.286 205.787 164.839 206.055 165.276C206.338 165.304 206.615 165.297 206.894 165.291C207.609 165.21 208.325 165.355 209.017 165.719C209.017 167.91 209.017 169.653 209.017 171.494C208.63 172.333 208.216 173.118 207.776 173.846C207.584 174.131 207.234 174.011 206.683 174.12C206.279 175.141 205.74 176.493 205.311 177.585H204.21C203.884 178.189 203.568 178.768 203.274 179.324C202.959 179.359 202.672 179.399 202.388 179.439C202.197 180.036 201.931 180.52 201.615 180.844C201.3 181.168 200.947 181.318 200.593 181.28C200.077 182.316 199.563 183.344 199.045 184.374C198.685 184.348 198.328 184.51 198.009 184.845C197.691 185.181 197.422 185.678 197.229 186.285H192.904C192.578 186.876 192.26 187.455 191.917 188.074H188.478C188.155 188.678 187.843 189.269 187.523 189.869H185.791C185.378 190.695 184.964 191.52 184.55 192.345C184.508 192.609 184.486 192.883 184.483 193.16C184.553 194.15 184.328 195.015 183.892 195.069C183.395 195.137 182.899 195.155 182.418 195.155C181.784 195.172 181.161 195.138 180.585 195.138ZM77.2046 166.952C76.3493 165.649 75.5942 164.104 74.9634 162.365C74.9634 159.533 74.9559 156.901 74.9634 154.279C74.9634 154.031 75.0718 153.784 75.1289 153.566C75.3945 152.906 75.8825 152.51 75.8254 151.501C75.7427 150.062 76.3393 149.551 76.6975 148.642V145.248C77.0045 144.577 77.2965 143.942 77.5977 143.283V133.931C78.0091 134.063 78.4308 133.952 78.811 133.612C79.1913 133.272 79.5134 132.718 79.7379 132.018H81.5664L82.7503 129.127C82.7446 128.731 82.7822 128.337 82.8604 127.972C83.1206 127.152 83.4077 126.366 83.7199 125.62C83.7364 124.89 83.7345 124.158 83.7142 123.429C83.687 123.148 83.6942 122.86 83.735 122.586C83.7757 122.312 83.8488 122.062 83.9483 121.857C84.1659 121.444 84.3066 121.675 84.5796 122.241C86.2012 125.56 87.8509 128.842 89.4708 132.068H91.2289C91.6715 132.991 92.0207 133.954 92.7049 133.718C93.0629 133.553 93.4379 133.622 93.7747 133.915C94.1114 134.208 94.3919 134.71 94.5747 135.345C94.9907 135.508 95.4161 135.55 95.8381 135.469C96.4026 135.323 96.9764 135.465 97.506 135.882C97.7186 136.3 97.9196 136.717 98.1545 137.175H104.238C104.569 137.784 104.882 138.371 105.206 138.976H111.581C111.994 140.054 112.534 141.419 112.954 142.486C117.076 142.486 117.076 142.486 117.942 143.385C117.489 144.166 117.056 144.919 116.489 145.887H113.134C112.238 147.676 111.323 149.506 110.445 151.252C110.09 151.302 109.805 151.33 109.52 151.363C109.338 151.822 109.127 152.234 108.893 152.586C108.313 153.258 107.486 152.988 107.085 154.455C107.037 154.637 106.851 154.724 106.723 154.766C106.525 154.796 106.325 154.796 106.126 154.766C105.758 154.661 105.382 154.764 105.041 155.063C104.52 156.103 104.005 157.14 103.463 158.23H100.005C99.6744 158.834 99.3624 159.427 99.0381 160.031H94.6914C94.3687 160.639 94.0534 161.223 93.7291 161.831H83.2632C82.8011 162.92 82.1442 163.605 81.4324 163.741C80.917 164.777 80.4023 165.805 79.8307 166.951L77.2046 166.952ZM133.278 154.645C132.737 153.673 132.301 152.909 131.93 152.252V139.875C132.24 139.191 132.527 138.544 132.83 137.874V134.519C133.282 133.608 133.695 132.781 134.104 131.955H134.894V131.968L138.063 125.823V124.06C138.8 122.58 139.522 121.127 140.23 119.701C140.537 120.267 140.843 120.818 141.119 121.323C141.481 120.754 141.812 120.216 142.142 119.673C142.638 119.97 142.969 119.389 143.295 118.807C143.621 118.224 143.931 117.679 144.404 117.92C145.225 117.193 145.668 115.61 146.347 114.478C146.65 115.029 146.955 115.592 147.274 116.164H148.112C148.436 116.778 148.75 117.353 149.048 117.919C149.363 117.953 149.647 117.978 149.896 118.015C150.236 118.612 150.558 119.17 150.899 119.775H153.435C153.694 120.287 153.899 120.701 154.137 121.172C154.902 121.488 155.687 121.574 156.465 121.427C157.234 121.284 158.009 121.365 158.766 121.668L159.465 123.068H161.993C162.339 123.675 162.661 124.223 163.035 124.883H164.689L165.666 126.683H170.006C170.327 127.281 170.64 127.873 170.968 128.478H175.287C175.474 128.72 175.616 129.078 175.691 129.498C175.766 129.917 175.769 130.374 175.7 130.798C175.66 131.053 175.591 131.286 175.497 131.477C175.404 131.668 175.289 131.812 175.162 131.898C174.625 131.991 174.086 132.007 173.548 131.947C172.803 133.22 172.351 134.786 171.516 135.454H170.198C169.399 136.68 168.659 138.05 167.986 139.547C167.193 141.298 166.325 142.91 165.393 144.365H163.827C163.554 144.91 163.347 145.328 163.135 145.752C162.382 146.032 161.613 146.105 160.85 145.971C160.068 145.822 159.279 145.913 158.51 146.24C158.249 146.767 158.042 147.174 157.799 147.667H154.367L153.365 149.468H147.31C146.979 150.079 146.662 150.666 146.341 151.257H138.481C137.903 152.55 137.262 153.726 136.567 154.767C136.105 154.714 135.641 154.742 135.186 154.767C134.921 154.782 134.659 154.797 134.403 154.797C134.026 154.812 133.65 154.761 133.278 154.645H133.278ZM41.1649 151.135C40.7507 150.305 40.3384 149.48 39.928 148.659C39.9584 148.244 39.947 147.822 39.8944 147.416C39.8419 147.01 39.7492 146.629 39.6219 146.295C39.3051 145.981 38.9466 145.875 38.5977 145.991C38.3519 146.111 38.0941 146.087 37.8548 145.924C37.6156 145.76 37.4048 145.464 37.2475 145.069C36.7411 143.645 35.51 144.574 35.1509 142.593C34.8589 142.554 34.5768 142.513 34.2202 142.483C33.3449 140.734 32.4306 138.905 31.5412 137.131H29.7749C29.0626 134.821 28.0574 135.382 27.3541 135.646C26.7113 136.661 26.2604 137.382 26.0535 137.704C25.8533 139.097 25.74 139.877 25.6399 140.57C24.5858 138.453 23.5789 136.426 22.4132 134.101V127.779C21.6388 125.682 20.5261 124.293 19.8485 122.226C20.1496 121.498 20.4168 120.851 20.6303 120.328C20.572 118.537 20.6232 116.74 20.7826 114.974C21.2202 114.238 21.638 113.442 21.5139 112.11C22.0806 110.819 22.6722 109.572 23.2455 108.088C23.4192 107.641 23.061 106.372 23.5648 105.975C24.0166 105.628 24.1671 106.788 24.5088 107.211C25.085 107.439 25.6751 107.495 26.2596 107.376C26.9254 107.215 27.6006 107.323 28.2451 107.694C28.4983 108.204 28.7043 108.613 28.9343 109.08C29.2354 108.526 29.5415 107.97 29.8609 107.39H33.3291C33.641 107.975 33.9563 108.567 34.245 109.105H36.8396C37.1903 108.48 37.5081 107.91 37.8034 107.372C38.1244 107.438 38.4041 107.499 38.6862 107.537C39.3316 108.639 39.7849 110.199 40.6123 110.887C40.9016 110.918 41.1916 110.918 41.4809 110.887C42.047 110.766 42.6195 110.886 43.1604 111.24C43.6759 112.277 44.1896 113.305 44.7216 114.368H46.4333C46.7577 114.98 47.0713 115.565 47.3923 116.163H48.2287C48.5597 116.782 48.8774 117.361 49.2017 117.965H52.7592C52.888 118.548 53.1042 119.037 53.378 119.365C53.6517 119.693 53.9697 119.844 54.2881 119.797C54.8449 120.751 55.281 121.502 55.7129 122.241C54.9434 123.789 54.2236 125.228 53.4981 126.68H52.6153C52.2148 127.505 51.8087 128.33 51.3859 129.193C51.3627 129.409 51.3296 129.68 51.3032 129.949C51.1435 131.777 51.0971 131.903 50.2945 131.944C49.8726 131.957 49.4474 131.944 49.1273 131.944C48.3736 133.216 47.9276 134.789 47.0911 135.449H45.7814C45.6535 135.54 45.5332 135.669 45.4248 135.832C44.4924 137.674 43.5675 139.532 42.5399 141.59V146.552C42.5399 147.425 42.5399 148.301 42.5399 149.174C42.5399 150.691 42.3695 151.155 41.6025 151.155C41.4776 151.171 41.3304 151.158 41.1641 151.135H41.1649ZM95.474 109.105C94.8791 107.785 94.1998 106.273 93.4238 104.545C93.4147 104.357 93.3882 103.793 93.3585 103.134C93.0978 102.562 92.8125 101.922 92.4989 101.23V92.5349C92.7794 91.9276 93.0714 91.2908 93.3758 90.6373V88.9967C93.6864 88.3091 93.9729 87.6777 94.2355 87.1023C94.2653 86.4422 94.2917 85.8762 94.3132 85.3135C94.8312 84.2771 95.3466 83.2409 95.8777 82.1782C96.0564 81.2029 95.9075 79.9185 96.4801 79.2073C96.921 78.6627 96.8697 77.762 96.8648 76.5111C97.5324 75.3691 98.3002 74.0356 99.3029 72.3226C99.087 72.4283 99.2202 72.3406 99.3509 72.2944C100.344 71.9099 100.335 71.9104 100.378 70.3146C100.408 69.2189 100.169 67.9672 100.799 67.0794H102.491C102.822 66.4606 103.133 65.8754 103.456 65.2648H104.301C104.625 65.8688 104.939 66.4523 105.268 67.0794H106.967C107.537 68.4039 108.193 69.5697 108.918 70.5451C109.058 70.5451 109.202 70.5451 109.345 70.5451C110.063 70.5137 110.784 70.4789 111.226 72.0978C111.581 72.0845 111.932 72.253 112.246 72.5869C112.559 72.9209 112.825 73.4095 113.017 74.0059H116.555C117.466 75.8212 118.376 77.6368 119.271 79.4256H120.956C121.37 80.1138 121.701 80.6517 121.965 81.0759C122.5 81.0759 122.939 81.0475 123.377 81.0888C123.503 81.097 123.695 81.2092 123.737 81.399C124.247 83.4007 125.717 82.3327 126.187 84.4714C126.217 84.6084 126.456 84.6084 126.588 84.5738C126.691 84.5224 126.798 84.5156 126.903 84.5528C127.008 84.5901 127.107 84.6712 127.195 84.7905C127.283 84.9099 127.357 85.0644 127.413 85.245C127.469 85.4256 127.505 85.6278 127.519 85.838C127.575 86.3331 127.547 87.2093 127.391 87.4254C126.716 88.3331 126.729 89.8188 126.469 91.0813C126.423 91.3041 126.257 91.4341 126.111 91.6469H124.443C123.593 93.3566 122.766 95.0086 121.925 96.6952C121.067 96.9085 120.202 96.9639 119.339 96.8603C118.37 96.7212 117.396 96.8194 116.439 97.1537L115.732 98.5646H113.152L112.188 100.38H104.336C104.015 100.984 103.699 101.568 103.398 102.126C103.088 102.169 102.803 102.194 102.52 102.233C101.871 103.357 101.404 104.899 100.594 105.623C100.332 105.802 100.06 105.912 99.7836 105.953C99.2665 106.986 98.7536 108.024 98.2117 109.113L95.474 109.105ZM44.8647 84.8461C44.3584 83.8378 43.8546 82.8278 43.3756 81.8591V76.5997C42.5052 74.8505 41.6811 73.2042 40.8257 71.4846V68.0947C40.5229 67.4346 40.2342 66.8043 39.9272 66.1326V58.6404C40.4205 58.6208 40.9037 58.3601 41.3347 57.8814C41.7657 57.4027 42.1312 56.7204 42.3993 55.8943C42.5962 54.5906 42.7162 53.8231 42.832 53.0491H46.4077C46.7337 52.4451 47.0489 51.8611 47.3807 51.2538H49.9802C50.2872 51.8331 50.6024 52.4092 50.9349 53.0314H53.4873C53.8331 53.6502 54.1491 54.226 54.4867 54.8267H56.119C56.5104 55.4868 56.8281 56.0314 57.1078 56.5083C57.6182 56.5083 58.0575 56.4935 58.4935 56.5083C58.6269 56.553 58.7568 56.6324 58.8799 56.7444C58.9753 56.9657 59.0796 57.1711 59.1918 57.3584C59.4119 57.6802 59.6476 57.9623 59.8776 58.2577C61.3536 58.1785 61.3669 58.1786 62.2613 60.0071H63.4468C65.7758 60.0071 68.1055 59.9853 70.4345 60.0183C70.7038 60.089 70.9683 60.2193 71.223 60.4075C71.4306 60.825 71.6367 61.2326 71.8419 61.6452C73.3708 61.9753 73.5792 62.7729 72.7825 65.2648H71.055C70.2881 65.9645 70.8896 68.118 70.0622 68.8078H68.2694C68.1436 69.5438 68.0162 70.3125 67.8739 71.1607C68.2414 72.0692 68.6554 72.8988 69.1092 73.6361C69.6821 74.1924 70.2835 74.6244 70.9028 74.9237C70.0507 76.2769 69.3731 77.3509 68.7865 78.2717V81.9187C68.3166 82.9171 67.9178 83.7668 67.5455 84.5738H60.5296C60.2037 85.1778 59.8901 85.7657 59.6196 86.274H57.0217C56.6585 85.6353 56.3408 85.072 56.0983 84.6479H47.3368C46.699 85.8245 46.349 86.4021 46.0173 86.4021C45.6913 86.4202 45.386 85.8892 44.8639 84.8429L44.8647 84.8461ZM153.366 63.5283H152.215V63.5138C152.258 62.6933 152.189 61.8648 152.017 61.115C151.844 60.3652 151.574 59.7216 151.234 59.2512V55.6735C151.453 55.1917 151.731 54.559 152.051 53.8444V46.8857C152.751 45.4797 153.447 43.9978 154.202 42.6545C154.367 42.3476 154.746 42.5092 155.242 42.4184C155.791 41.1444 156.449 39.6012 157.255 37.7199C157.115 36.6637 157.581 35.6276 158.143 34.72C158.162 34.4114 158.186 34.1407 158.206 33.8602C158.295 32.54 158.461 31.977 158.807 31.944C159.374 31.8879 159.94 31.8952 160.315 31.882C160.894 30.8456 161.322 30.0793 161.679 29.4324C161.762 28.3994 161.561 27.436 162.114 26.8056C162.388 27.2693 162.688 27.7811 162.998 28.3075C163.805 27.763 163.164 25.5893 163.9 24.9144H164.77C164.916 25.3715 165.219 25.8834 165.184 26.2762C165.019 28.1954 166.394 28.8287 166.086 30.7974C166.365 31.4443 166.64 32.0878 166.922 32.7281C167.02 32.941 167.11 33.2449 167.234 33.3324C167.876 33.7912 168.623 33.8027 169.04 35.1889C169.089 35.2824 169.148 35.3519 169.213 35.3928C169.277 35.4337 169.346 35.445 169.413 35.425C170.109 35.2187 170.421 36.291 170.868 37.1244H172.547C172.878 37.7251 173.198 38.2942 173.545 38.9229H178.734L179.686 40.7126H183.154C183.475 41.31 183.788 41.9006 184.113 42.5079H185.939C186.058 43.2604 186.183 44.0246 186.265 44.5296C185.465 46.1402 184.752 47.5622 183.818 49.432C183.354 49.6034 182.88 49.6294 182.412 49.5093C181.734 49.3334 181.046 49.4315 180.388 49.797C180.16 50.2524 179.954 50.6633 179.747 51.0725C179.467 51.1286 179.187 51.214 178.907 51.2272C178.652 51.2388 178.397 51.2371 178.142 51.2272C177.961 51.2272 177.779 51.2272 177.597 51.2272C177.025 51.2388 176.584 51.7554 176.701 52.2885C176.754 52.5671 176.859 52.7942 176.994 52.9218C177.129 53.0494 177.284 53.0678 177.425 52.9734C177.565 52.8767 177.716 52.8786 177.855 52.979C177.993 53.0794 178.11 53.2722 178.186 53.5245C178.317 53.9305 178.203 54.2989 177.911 54.7791C177.576 55.3089 177.282 55.9341 176.961 56.543H173.546C173.179 57.1849 172.86 57.7513 172.536 58.3173H159.483C158.935 59.4131 158.42 60.4407 157.892 61.5018C157.417 61.9325 156.801 61.6111 156.403 62.6887C156.026 63.5751 155.618 64.4055 155.181 65.1737C154.896 65.2133 154.612 65.2431 154.305 65.2761C153.999 64.7062 153.686 64.1225 153.365 63.5251L153.366 63.5283ZM86.8721 33.6837C85.7842 31.5731 84.7434 29.5583 83.7159 27.5582V24.0691C83.4056 23.3876 83.1201 22.7492 82.8827 22.2376V18.7308C83.2864 17.8232 83.7705 17.2295 83.7473 15.8252C83.7241 14.4208 84.7128 13.9201 84.6425 12.1758C84.5978 11.052 85.3044 10.4266 85.6899 9.59162C86.1863 8.53052 86.7729 7.61195 87.2106 6.47163C87.6242 5.39732 88.2671 5.91384 88.7188 5.2686C88.9778 4.89894 88.9777 4.38845 88.9967 3.74486C89.0356 2.3009 89.0794 2.28992 90.2261 2.10509C90.5116 1.59022 90.8268 1.02726 91.1825 0.39522H92.9051C93.1872 0.924948 93.4991 1.50908 93.8151 2.11637H96.4081C96.7291 1.50908 97.046 0.918315 97.3421 0.362183H113.934L114.89 2.14619H121.822C122.173 2.77658 122.491 3.34067 122.825 3.94631H124.456C124.847 4.6064 125.166 5.15624 125.421 5.58366C125.671 5.65646 125.925 5.66604 126.177 5.61186C126.684 5.54915 127.162 5.48424 127.527 6.49419V8.84063C127.108 8.7535 126.685 8.89863 126.305 9.25964C125.925 9.62065 125.602 10.184 125.372 10.8873C124.574 10.8873 123.709 10.8134 122.853 10.9405C122.724 11.0114 122.606 11.1457 122.509 11.3313C122.412 11.517 122.341 11.7474 122.301 12.0025C122.256 13.1103 122.248 14.223 122.277 15.3328C121.982 15.6861 121.736 16.183 121.562 16.7768C121.389 17.3705 121.293 18.0421 121.285 18.7292C120.834 19.7788 120.457 20.6585 120.141 21.4044C119.737 21.444 119.452 21.4668 119.195 21.485C118.864 22.0923 118.544 22.6554 118.206 23.2561H116.586C116.189 23.9162 115.868 24.4571 115.593 24.9208C113.911 24.9208 112.311 24.9206 110.712 24.9305C110.578 24.9713 110.448 25.0509 110.326 25.1666C110.12 25.5759 109.912 25.9924 109.581 26.6525C109.055 26.7167 108.527 26.7234 108.001 26.6734C107.336 26.5973 106.67 26.6341 106.009 26.7838L105.188 28.4341C101.519 28.4341 97.75 28.4192 93.9815 28.4341C93.859 28.4341 93.7391 28.6605 93.629 28.7644C93.2981 29.2975 93.0995 30.2773 92.599 30.1568C91.885 29.9802 91.6293 31.172 91.1743 31.8997H90.3469C90.021 32.5037 89.7058 33.0981 89.3956 33.6741L86.8721 33.6837Z" fill="currentColor" fill-opacity="1"/>
</svg>
