<svg width="352" height="113" viewBox="0 0 352 113" fill="none" xmlns="http://www.w3.org/2000/svg">
<path d="M97.6288 112.738C97.4326 112.35 97.213 111.915 97.0205 111.533C96.6554 111.41 96.3745 111.314 96.0813 111.216C95.9852 111.025 95.8855 110.827 95.7863 110.631C95.6161 110.567 95.4526 110.506 95.2839 110.443L94.9849 109.851C94.8695 109.819 94.7565 109.78 94.6464 109.734C94.3966 109.616 94.3197 109.333 93.9946 109.245C93.859 109.19 93.7482 109.094 93.6813 108.972C93.6143 108.851 93.5952 108.712 93.6272 108.58C93.8347 108.018 93.457 107.67 93.2364 107.273L92.8246 107.133C92.3635 106.219 91.8831 105.276 91.4122 104.329C91.3789 104.231 91.3595 104.13 91.3545 104.028C91.3959 103.924 91.4374 103.821 91.4815 103.709C91.2334 103.218 90.982 102.72 90.7272 102.215L90.2426 102.031C90.1438 101.836 90.0436 101.637 89.9367 101.425C89.652 101.364 89.3616 101.292 89.3422 100.961C89.392 100.795 89.4383 100.642 89.4894 100.475C89.1897 99.8804 88.8903 99.2872 88.6015 98.7155L88.746 98.3535C88.0798 97.0347 87.4068 95.7016 86.7494 94.3991C86.5888 94.3442 86.4764 94.3067 86.3206 94.2535L86.1807 93.9764L86.1376 94.0946C85.9828 94.1435 85.8602 94.2595 85.6801 94.1435C85.7142 94.0321 85.7497 93.9119 85.7889 93.7827L85.4061 93.6337C85.4471 93.5117 85.4896 93.3872 85.5284 93.2716C85.3939 93.213 85.2724 93.1605 85.165 93.1132C85.2013 92.9734 85.2305 92.8604 85.2634 92.7337C85.0299 92.7513 84.8443 92.7658 84.6616 92.7803C84.49 92.4849 84.33 92.2089 84.1778 91.9473C83.9472 91.9674 83.7608 91.9825 83.586 91.9984C83.5103 91.8542 83.3836 91.7519 83.5637 91.4472C83.6179 91.3566 84.0688 91.4518 84.1209 91.1092L83.9499 90.7708C83.7262 90.7245 83.4326 90.6652 83.2363 90.6242C83.0305 90.3587 83.0518 90.072 82.7388 90.012L82.2829 90.2056C82.1961 90.2267 82.1038 90.2164 82.0252 90.1767C81.9063 90.1311 81.8067 90.0856 81.7105 90.2623C81.7935 90.4276 81.877 90.5926 81.9743 90.7862C82.0775 90.8274 82.2133 90.8811 82.3634 90.9408C82.5263 91.2631 82.695 91.5982 82.8681 91.9402C82.8253 92.0619 82.7792 92.1925 82.7336 92.3226C82.7838 92.5382 83.0426 92.7002 82.9346 92.9496C82.7219 93.196 82.4904 93.0786 82.2621 92.9933C81.9495 93.1193 81.5963 93.1753 81.3669 93.4346C81.3568 93.4788 81.3563 93.5243 81.3655 93.5686C81.3747 93.6128 81.3933 93.655 81.4204 93.6927C81.4475 93.7303 81.4825 93.7627 81.5233 93.7879C81.5641 93.8131 81.6099 93.8306 81.6582 93.8395C81.7986 93.8059 81.9151 93.6687 82.0809 93.7743C82.0679 94.0338 82.0407 94.2887 81.7383 94.4232C81.6874 94.4373 81.6339 94.4417 81.581 94.4363C81.5282 94.4308 81.4771 94.4155 81.4309 94.3914C81.3006 94.3444 81.1707 94.2976 81.0382 94.4132C80.9404 94.5618 80.842 94.7096 80.7542 94.8434C80.2663 94.9909 79.8747 95.0006 79.1913 94.8893C78.9626 94.986 78.733 95.083 78.621 94.7485C78.5441 95.3511 78.7593 95.4801 78.6279 95.7167C78.5086 95.6889 78.3816 95.6601 78.2271 95.624C78.131 95.796 78.1049 96.0505 77.7851 96.0836C77.5784 96.0454 77.3474 95.866 77.1257 96.0726C77.0635 96.2024 77.0072 96.3201 76.9559 96.4288C76.8106 96.3935 76.6824 96.3629 76.6117 96.3458C76.5045 96.5349 76.4148 96.6942 76.3306 96.8438C76.4957 96.9142 76.6188 96.9671 76.7149 97.0086C76.727 97.2336 76.5264 97.2181 76.414 97.294C76.2695 97.2507 76.1273 97.2092 76.0997 97.2009C75.9685 97.1985 75.839 97.2283 75.7246 97.2871C75.6619 97.3288 75.5889 97.3557 75.5122 97.3653C75.4354 97.375 75.3572 97.367 75.2846 97.3424C75.2671 96.9259 75.9014 97.1083 75.9346 96.7439C75.6967 96.6141 75.5038 96.7242 75.3113 96.8337C75.1265 96.9393 74.9416 97.0449 74.718 96.9382C74.6374 96.8277 74.6448 96.6539 74.4392 96.6389L74.0322 96.7057C73.7837 96.5069 73.5372 96.3096 73.2928 96.1138C73.312 95.9482 73.3295 95.791 73.3489 95.6297L72.4976 95.6932C73.0279 95.4052 73.2196 95.1241 73.2871 94.7833C73.1358 94.6858 72.9989 94.7405 72.8451 94.7949C72.7296 94.851 72.5976 94.872 72.4682 94.8549C72.3388 94.8377 72.2186 94.7834 72.1252 94.6996C72.0498 94.6554 72.3829 94.4427 72.3144 94.2401C71.947 94.1242 71.6062 93.947 71.3093 93.7173C71.0246 93.4897 70.5803 93.4316 70.2099 93.2915C70.1755 93.2781 70.1663 93.2107 70.1311 93.141C70.1476 93.0055 70.1666 92.844 70.1809 92.7285C69.9953 92.6405 69.82 92.5603 69.6563 92.4821C69.5795 92.6321 69.5245 92.7462 69.4536 92.8849C69.298 92.743 69.1654 92.6219 69.032 92.4995C68.9618 92.4966 68.8916 92.5078 68.8266 92.5325C68.7703 92.56 68.7064 92.5717 68.6429 92.5663C68.5793 92.561 68.5189 92.5386 68.4691 92.5021C68.3922 92.349 68.3073 92.182 68.2193 92.0082C67.9143 92.0033 67.6098 91.9971 67.3266 91.9922C67.2735 92.1266 67.238 92.2138 67.1377 92.4653L66.4133 91.9876C66.2807 92.3337 66.1912 92.608 65.7856 92.4371C65.8255 92.3126 65.8636 92.1906 65.9024 92.0691C65.8471 92.0566 65.7937 92.0381 65.7431 92.0142C65.5579 91.8848 65.378 91.7502 65.1242 91.5653C65.0495 91.8658 64.983 92.1353 64.9513 92.2649C64.6613 92.5161 64.3393 92.4832 64.2761 92.7671C64.3093 92.8953 64.4577 93.0028 64.3497 93.1469C64.1556 93.4045 63.9222 93.2905 63.6726 93.1998C63.6149 93.3148 63.559 93.4286 63.4996 93.5499C63.3698 93.5117 63.2306 93.4718 63.0948 93.4313C62.9117 93.5087 62.7295 93.5861 62.548 93.6633C62.5614 93.9896 62.1654 94.052 62.0703 94.2903C62.1051 94.4274 62.1354 94.5543 62.1641 94.6659C62.0063 94.8054 61.8712 94.9238 61.764 95.018C61.7874 95.1921 61.9521 95.297 61.8291 95.4546C61.804 95.4767 61.7715 95.5324 61.7369 95.5341C61.3718 95.5431 61.0068 95.5445 60.6561 95.5482C60.5858 95.3631 60.5178 95.2444 60.3345 95.2173C60.0706 95.3293 59.7965 95.4462 59.5286 95.559C59.3793 95.5141 59.2381 95.4725 59.1007 95.4315C58.9151 95.5104 58.7329 95.5875 58.5608 95.6604C58.4993 95.7946 58.4418 95.9195 58.3942 96.0214L56.1832 96.9582C55.8458 96.8366 55.4167 96.7972 55.2184 96.5796C54.9583 96.296 54.7027 96.1571 54.3473 96.2245C53.9685 96.2964 53.6992 96.0309 53.3254 96.0211L52.1047 96.5383C51.1279 96.2082 50.0455 95.8417 48.9029 95.4548C48.7585 95.5155 48.5291 95.6132 48.2378 95.7364C47.8637 95.5392 47.3488 95.5452 47.0171 95.1272C46.9291 95.0453 46.8165 94.9892 46.6936 94.966C46.5707 94.9428 46.443 94.9535 46.3268 94.9968C46.1702 95.0496 45.9563 94.9652 45.7225 94.9367C45.3067 95.1127 44.854 95.3044 44.4257 95.4859C44.0136 95.3465 43.6337 95.218 43.2582 95.0912C43.2025 95.212 43.1466 95.3336 43.0916 95.4537L42.5075 95.2558C42.1705 94.5883 41.8312 93.9155 41.4636 93.1878C41.0357 93.3209 41.0449 92.7613 40.6566 92.7356C40.5894 92.7312 40.4952 92.6233 40.4754 92.5488C40.3934 92.2457 40.0223 92.1957 39.8876 92.0003C39.6571 91.6659 39.2801 91.7116 38.9727 91.5408C38.8975 91.3922 38.8145 91.2274 38.74 91.0798C38.4027 90.891 38.0038 90.8162 37.6127 90.8686C37.5717 90.7871 37.5297 90.7043 37.4893 90.6247C37.009 90.4624 36.5355 90.2991 36.0598 90.143C35.7919 90.0549 34.9042 90.1015 34.5211 90.1958C34.4417 90.2152 34.341 90.1643 34.2423 90.1448C34.1598 89.981 34.0753 89.8145 34.0021 89.6694L33.0001 89.313C32.8137 89.5196 33.1743 89.753 32.947 89.9495C32.8552 89.9806 32.7633 90.0122 32.6765 90.0421C31.9177 89.4825 31.162 88.9244 30.4165 88.3759C30.4497 88.2421 30.482 88.1137 30.5183 87.9672C30.3942 87.7207 30.2709 87.4766 30.1623 87.2611C30.2132 87.1317 30.2488 87.0448 30.2868 86.948C30.1561 86.8966 30.0255 86.8449 29.852 86.7775C30.1853 86.4885 29.8649 86.1157 30.0101 85.7918C29.6066 85.5999 29.6066 85.5998 29.612 85.2337C29.7321 85.1587 29.915 85.1547 29.9369 84.9005C29.8349 84.683 29.5859 84.4033 29.8395 84.0713C29.7146 83.8248 29.5884 83.5746 29.4552 83.3097C29.2 83.2157 28.9297 83.1161 28.6674 83.0189C28.7116 82.8763 28.7527 82.7474 28.781 82.6571C28.6374 82.3732 28.512 82.1243 28.3942 81.8903C28.1855 81.8217 27.9772 81.7891 27.9117 81.5279C27.9367 81.4385 27.9732 81.3096 28.0205 81.1464C27.8251 80.7591 27.6146 80.3426 27.3864 79.8922C27.2884 79.8526 27.1533 79.7983 27.0042 79.738C26.8486 79.5861 26.8824 79.301 26.6034 79.1887C26.5337 79.1863 26.4644 79.1989 26.4011 79.2255C26.3502 79.2527 26.2919 79.2661 26.233 79.2639C26.1741 79.2618 26.1171 79.2443 26.0687 79.2136C26.1132 79.0854 26.1597 78.9561 26.2066 78.82C26.1229 78.654 26.0391 78.4876 25.9584 78.3285C26.1505 78.0236 26.5675 77.8442 26.4725 77.3231C26.392 77.1647 26.2675 76.9182 26.1699 76.7246C26.2141 76.5361 26.2452 76.4078 26.266 76.3152C26.1382 76.0628 26.0318 75.8515 25.9255 75.6412C25.7505 75.4982 25.4138 75.5355 25.3846 75.2273C25.4751 74.9775 25.5654 74.724 25.6525 74.4798C25.5032 74.4168 25.3702 74.3616 25.2836 74.3246C25.1804 74.1197 25.098 73.9568 25.0338 73.8299C25.0799 73.6588 25.1143 73.5307 25.1523 73.3856C24.8578 72.8012 24.563 72.2187 24.2815 71.6614C24.3313 71.5382 24.3653 71.4512 24.4082 71.3478C24.2831 71.295 24.1584 71.2433 24.0206 71.1868C23.8333 70.9393 23.8042 70.5899 23.4265 70.3351C23.3304 70.5837 23.1919 70.518 23.0422 70.4519C22.9358 70.4052 22.8237 70.3584 22.7194 70.4255C22.6312 70.6478 22.5447 70.8656 22.4516 71.0965C22.0921 70.8772 22.0033 70.5272 21.8959 70.2031C21.9376 70.0975 21.9727 70.0095 22.0071 69.9214C21.7677 69.6961 21.3252 69.8038 21.1129 69.4189C21.1404 69.3009 21.1803 69.1316 21.2245 68.9436C20.9782 68.4558 20.7249 67.9541 20.4786 67.4662C20.5537 67.2725 20.6218 67.0984 20.69 66.924C20.8276 66.8874 20.9448 66.7513 21.1354 66.8766C21.1054 66.9822 21.0731 67.1003 21.0266 67.2623C21.1763 67.5587 21.3417 67.8943 21.5168 68.2254C21.5339 68.2592 21.5956 68.2713 21.6361 68.2936C21.6734 68.2891 21.7375 68.2936 21.7437 68.2792C21.8651 67.9879 21.9812 67.6955 22.0932 67.4136C21.9234 67.3399 21.7912 67.2833 21.6455 67.2201C21.4355 66.8043 21.2253 66.3881 21.0779 66.0957L20.1285 65.4092C20.3001 65.258 20.436 65.1396 20.5787 65.0115C20.4096 64.9465 20.2734 64.8939 20.1468 64.845C20.0594 64.6716 19.9752 64.5046 19.9133 64.3826C19.8749 64.1974 20.1868 64.0317 19.9646 63.9534C19.8256 63.9453 19.687 63.9748 19.5661 64.0382C19.5082 64.0761 19.4418 64.1018 19.3718 64.1137C19.3018 64.1256 19.2298 64.1234 19.1609 64.1071C18.9555 63.7628 19.5569 63.9013 19.4658 63.5545C19.4466 63.5193 19.3813 63.4086 19.2623 63.2047C18.9198 63.5552 18.6298 63.2514 18.2248 63.1695C18.3664 62.916 18.5026 62.6711 18.6212 62.4592C18.465 62.1504 18.3397 61.9019 18.2207 61.667C18.2947 61.4792 18.4085 61.3129 18.2463 61.1112C18.0563 60.9122 17.8082 60.9214 17.5546 60.9307C17.4256 60.9398 17.2959 60.9352 17.168 60.9173C17.2101 60.7913 17.2525 60.6661 17.2975 60.536C17.2158 60.3737 17.1309 60.2055 17.0477 60.0409L16.6238 59.8825C16.498 59.6327 16.3714 59.3815 16.2461 59.1338C15.8712 59.1627 15.8403 58.7488 15.5338 58.6877C15.3718 58.7567 15.2047 58.8273 15.191 58.8333C14.7808 58.7954 14.5323 58.7725 14.3577 58.7576C14.316 58.544 14.3 58.4583 14.2829 58.3733C14.4872 58.0342 15.0559 58.1621 15.2137 57.7627L15.06 57.4106C14.6926 57.647 14.3465 57.4436 13.9865 57.325C13.5666 57.1842 13.1499 57.042 12.775 56.9156C12.7446 56.7522 12.7293 56.667 12.7131 56.5802C12.8624 56.377 13.1132 56.3431 13.361 56.2604C13.6389 56.4096 13.9096 56.4602 13.9968 56.2299C14.0579 55.756 13.6996 55.8171 13.5401 55.6812C13.5745 55.558 13.6097 55.4395 13.6262 55.3805C13.3791 55.1427 13.0175 55.2135 12.7598 54.8988C12.6899 54.8384 12.7646 54.7023 12.8305 54.5852C12.9176 54.4322 12.8152 54.324 12.7537 54.1747C12.579 54.1268 12.3865 54.0737 12.1667 54.0117C12.1217 54.0997 12.0643 54.2105 11.9684 54.4001L10.793 54.8981C11.0005 55.3088 11.1854 55.6754 11.3351 55.9719C11.2849 56.1736 11.2563 56.2857 11.2278 56.3977C11.4316 56.4264 11.6396 56.3811 11.8076 56.2716C11.8886 56.215 11.9821 56.1751 12.0816 56.1547C12.1812 56.1344 12.2843 56.134 12.384 56.1537C12.4656 56.4529 11.9824 56.3808 12.0074 56.6563C12.0842 56.8105 12.1696 56.9782 12.2572 57.1502C12.5189 57.2465 12.7871 57.3471 13.045 57.443C13.0008 57.5905 12.9623 57.7197 12.9385 57.7998L13.1856 58.2886C13.3284 58.3951 13.5176 58.3426 13.5415 58.516C13.5059 58.6041 13.4711 58.6921 13.4306 58.7937C13.5572 58.8452 13.6863 58.8968 13.8193 58.9521C13.8833 59.1556 14.1179 59.3186 14.0364 59.5682C13.8871 59.8087 13.4377 59.7091 13.3973 60.0541C13.5368 60.1094 13.6725 60.1627 13.8172 60.2197C13.9855 60.5542 14.1538 60.8871 14.3423 61.2603C14.7706 61.1888 14.7343 61.5771 14.9289 61.7635C15.0807 61.9033 15.2536 62.0225 15.4422 62.1175C15.574 62.1812 15.7235 62.2077 15.8718 62.1937C16.0005 62.1871 16.0831 62.1803 16.1383 62.3382C15.9875 62.4724 15.8528 62.5912 15.725 62.7041C15.7826 62.8164 15.8237 62.8996 15.867 62.9857C16.0001 63.0364 16.1392 63.0883 16.2678 63.1376C16.4406 63.4792 16.6102 63.8151 16.7766 64.1452C16.7049 64.3264 16.6346 64.5005 16.5652 64.6755C16.3416 64.7493 16.1617 64.9475 15.8395 64.874C15.8687 64.76 15.8971 64.648 15.9337 64.5065C15.8278 64.4595 15.7067 64.4072 15.5619 64.3431C15.4894 64.1996 15.4056 64.0333 15.3211 63.8661C15.0418 63.7634 14.7698 63.663 14.5049 63.5651C14.5452 63.4373 14.5817 63.3165 14.6144 63.2083C14.4607 63.1408 14.3304 63.0825 14.2213 63.0341C14.1016 62.7966 13.9951 62.5861 13.8879 62.3736C13.5761 62.1825 13.2634 61.9864 12.9483 61.7945C12.9333 61.7851 12.9178 61.7765 12.9018 61.7686C12.9251 61.767 12.955 61.7487 12.9654 61.6781C13.001 61.5913 13.035 61.5041 13.094 61.3566C12.7145 61.0724 12.3158 60.7757 11.9071 60.472C11.9382 60.296 11.9678 60.1245 11.9932 59.9847C11.9467 59.6327 11.439 59.7439 11.3933 59.4163C11.0372 59.3566 10.9066 59.0114 10.5863 58.8857C10.3334 58.7863 10.2078 58.4866 9.88822 58.4388C9.72068 58.1064 9.55179 57.7722 9.38866 57.45C9.08564 57.284 8.6537 57.3581 8.4971 56.9892C8.45426 56.6304 8.90733 56.3343 8.63833 55.9456C8.50613 55.8956 8.36741 55.8444 8.2258 55.7907C8.10071 55.5425 7.97333 55.2904 7.84593 55.0383C7.49354 55.0463 7.41956 54.6901 7.135 54.5882C7.08005 54.7061 7.02374 54.8257 6.96206 54.9539C6.72669 54.7794 6.48959 54.6037 6.26228 54.4347C6.31051 54.3153 6.3449 54.2287 6.38314 54.1339C6.25863 53.8874 6.13201 53.6362 6.00097 53.3769C5.87358 53.3292 5.73523 53.2771 5.59324 53.2231C5.51023 53.0581 5.42568 52.8907 5.34575 52.7321L4.95916 52.5772C4.99758 52.4449 5.03025 52.3271 5.06272 52.2118C4.94013 52.1699 4.84502 52.1377 4.67843 52.0817C4.51588 51.759 4.33066 51.3925 4.16119 51.0573C3.89699 50.9996 3.71714 50.9296 3.66161 50.6919C3.69639 50.5863 3.73963 50.4572 3.81783 50.2242C3.39512 50.1309 2.96144 50.0348 2.63018 49.9619C2.48262 49.731 2.44937 49.6042 2.54372 49.4854C2.70108 49.3039 3.04617 49.3847 3.13225 49.1286C3.1532 48.7999 2.89726 48.7472 2.64479 48.6723C2.68533 48.549 2.72414 48.4258 2.76776 48.2913C2.68937 48.1357 2.60482 47.9681 2.51798 47.7966L2.11678 47.6441L1.35762 46.1404C1.40047 46.0043 1.43966 45.8821 1.47482 45.7707C1.32476 45.7049 1.19257 45.6475 1.11283 45.6133C1.00715 45.4038 0.925095 45.2415 0.863033 45.1163C0.901462 44.9579 0.92933 44.8485 0.956806 44.7351C0.701063 44.6823 0.52602 44.6061 0.476447 44.3905C0.453389 44.2201 0.682806 44.0712 0.547152 43.8799C0.501037 43.593 0.0460464 43.7602 0.0030062 43.4534C-0.011981 43.1381 0.0143416 42.8279 0.43187 42.6922C0.70971 42.7802 0.99254 42.8683 1.26423 42.9531C1.40988 42.8882 1.56475 42.8522 1.58588 42.6772C1.37656 42.5863 1.19184 42.4541 1.045 42.29C0.898199 42.1106 0.535437 42.0774 0.28123 41.9846C0.319659 41.8438 0.350013 41.7273 0.374992 41.6358C0.248753 41.5302 0.046231 41.5956 0.0408509 41.4098C0.129814 41.1886 0.215515 40.9717 0.303325 40.7536C0.260861 40.67 0.218015 40.5851 0.171132 40.4927C0.360778 40.2771 0.553881 40.0587 0.738147 39.8498C1.07421 39.9772 0.945274 40.4108 1.31823 40.4659C1.44331 40.4066 1.61912 40.4077 1.65601 40.2031C1.58857 40.0211 1.51171 39.8118 1.43793 39.6127C1.51767 39.4282 1.59011 39.2593 1.65832 39.1022L1.95441 39.0055C2.09275 38.9795 2.13734 39.0807 2.17884 39.1816C2.22457 39.2939 2.26588 39.4062 2.42709 39.345C2.66131 39.1496 2.26742 38.9919 2.37406 38.8896C2.56428 38.6875 2.81599 38.6676 2.79313 38.297C2.82099 38.1136 2.43305 38.2035 2.30335 38.0294C2.33967 37.939 2.37463 37.852 2.40921 37.7654C2.44956 37.4029 1.91445 37.1692 2.19786 36.6564C2.4267 36.7953 2.66823 36.9403 2.85922 37.0547C3.08538 36.8197 2.90533 36.7203 2.84193 36.4552C2.62154 36.4258 2.3218 36.3848 2.03704 36.3455C1.9817 35.8942 2.09237 35.4874 1.8543 35.1452C2.04164 34.9369 2.21515 34.7445 2.38904 34.5526C2.47916 34.5734 2.58118 34.5964 2.6004 34.6008C3.29961 34.207 3.34035 33.5777 3.62473 33.0494L4.46073 32.6953C4.44383 32.527 4.42596 32.3577 4.40886 32.1869C4.62022 31.8575 5.18762 31.9857 5.33999 31.5708C5.25725 31.4078 5.17257 31.2403 5.08598 31.0682C4.9019 30.9978 4.90191 30.9978 4.74012 30.7822C5.03103 30.6061 5.31904 30.4125 5.68508 30.6325C6.01172 30.0562 6.67769 29.6783 6.82737 28.9954C6.83141 28.9766 6.8881 28.968 6.91922 28.9549C7.01664 28.9872 7.11137 29.0193 7.20744 29.0514L7.86995 28.8527C8.13569 28.9451 8.3724 29.0265 8.60278 29.1072C8.70052 29.0656 8.79179 29.027 8.87658 28.9912C8.93423 28.8601 8.99188 28.7337 9.03991 28.6257L10.4095 28.0448C10.6145 28.0925 10.7902 28.2286 10.9984 28.0894C11.0903 27.9642 11.1873 27.833 11.2811 27.7061C11.3983 27.7457 11.4924 27.7782 11.5885 27.8107C11.8166 27.7403 12.0643 27.7017 12.2159 27.5049C12.2522 27.4141 12.2866 27.3279 12.3194 27.2427C12.3863 27.2429 12.4525 27.256 12.5135 27.2812C12.5882 27.3143 12.6718 27.327 12.7542 27.3176C12.8366 27.3082 12.9143 27.2773 12.9779 27.2284C12.8759 26.9126 13.3681 26.894 13.4967 26.5854C13.4177 26.428 13.3338 26.2621 13.2961 26.1873C13.224 25.5439 13.9788 25.3514 13.9384 24.7925C13.7859 24.4288 13.5132 24.0883 13.4498 23.6399C13.945 23.5475 14.2828 23.2298 14.7862 23.1893C14.8542 23.3768 15.158 23.2215 15.2004 23.4602C15.1632 23.5561 15.1284 23.6436 15.0884 23.7418C15.2139 23.8037 15.3469 23.8517 15.4848 23.8848C15.7069 23.9048 15.93 23.9135 16.1531 23.911C16.1114 24.0499 16.0751 24.1695 16.0322 24.3121C16.2886 24.3209 16.5411 24.2529 16.7514 24.1184C16.9534 23.9863 17.197 23.9183 17.4451 23.9248C17.7035 24.0592 17.5972 24.4705 17.9769 24.514C18.0828 24.1133 18.6087 23.933 18.6156 23.4859C18.5772 23.3572 18.4256 23.2505 18.5168 23.1338C18.7009 22.8796 19.1526 22.9754 19.1749 22.6072C19.1196 22.4839 19.016 22.3653 19.1232 22.2211C19.3271 22.1129 19.535 22.0039 19.7256 21.9042C19.7026 21.69 19.6835 21.5196 19.6641 21.3362C19.837 21.3862 19.9771 21.4275 20.118 21.4677C20.3072 21.3339 20.6191 21.364 20.7117 21.098C20.5474 20.8934 20.3793 21.0896 20.2313 21.0896C20.0252 21.0245 19.8359 20.9641 19.6634 20.9083C19.6622 20.7298 19.8038 20.6778 19.9643 20.6118C20.0868 20.6437 20.2281 20.6799 20.3368 20.7081L20.7019 19.7967C20.5878 19.6749 20.1016 19.7349 20.2836 19.3091C20.3355 19.2739 20.3877 19.2375 20.4056 19.225C20.8512 19.3095 21.2238 19.3796 21.6365 19.4579C21.4495 19.6406 21.3206 19.766 21.1688 19.9156C21.2947 19.973 21.4122 20.0256 21.5479 20.0873C21.5131 20.1982 21.4755 20.3192 21.4359 20.4444C21.5637 20.4947 21.6976 20.5467 21.8367 20.6007C21.9197 20.7653 22.0042 20.9331 22.0865 21.0973C22.4231 21.2107 22.7548 21.3236 23.0876 21.436C23.0827 21.1173 23.4557 21.0403 23.5769 20.7847C23.4503 20.7331 23.3222 20.6807 23.1825 20.6231C23.1045 20.4682 23.0203 20.3014 22.9373 20.1369C22.5267 19.9812 22.5267 19.9812 22.5859 19.8323C22.8764 19.6915 23.1763 19.5461 23.4572 19.4099C23.5195 19.1201 23.6413 18.9452 23.9535 19.005C24.1322 19.0965 24.1336 19.3477 24.3832 19.3551C24.5127 19.3211 24.6303 19.1861 24.8195 19.3111C24.7899 19.4167 24.7561 19.5341 24.6918 19.7624C24.8647 19.6905 25.0549 19.6607 25.2441 19.6758C25.4333 19.6909 25.6151 19.7505 25.7718 19.8487C25.7278 19.9788 25.6848 20.1089 25.6448 20.2312C25.7941 20.4176 25.7678 20.7065 26.0735 20.7734C26.1649 20.7382 26.2564 20.7048 26.3715 20.6625C26.3726 20.4613 26.3744 20.2515 26.3755 20.0404C26.5462 20.0674 26.7095 20.1251 26.8558 20.2101C27.0021 20.2951 27.1287 20.4057 27.2282 20.5356C27.4152 20.518 27.6001 20.5014 27.7649 20.4863C27.8714 20.6218 27.8644 20.7954 28.2923 20.8383C28.2382 20.8334 28.4117 20.65 28.5856 20.8052C28.5471 20.9263 28.512 21.0471 28.4977 21.0929C28.8805 21.4905 29.3981 21.7587 29.9673 21.8545C30.4782 21.6378 30.9313 21.4476 31.3811 21.2498C31.4133 21.235 31.4179 21.1668 31.4352 21.1223C31.3321 20.8231 31.049 20.5822 31.1003 20.2354C31.2925 20.1566 31.347 20.2646 31.4183 20.3725C31.4445 20.4316 31.4929 20.4802 31.5549 20.5093C31.6168 20.5384 31.6881 20.5461 31.7557 20.531C31.4621 20.0616 31.5474 19.5628 31.5786 19.0699C31.6712 19.0303 31.7627 18.9918 31.9511 18.9115C32.1498 19.0111 32.4123 19.1428 32.6344 19.2543L32.9226 19.1322C33.1477 19.0812 33.3836 19.0873 33.6051 19.1498C33.7511 19.2075 33.9149 19.215 34.0663 19.1706C33.9873 18.9506 33.9125 18.7407 33.8628 18.6009C33.9291 18.3679 33.9781 18.1922 34.0267 18.025C34.1889 18.0683 34.3212 18.1033 34.4494 18.1383C34.602 17.9183 34.1873 17.5703 34.7883 17.4209C35.0508 17.5232 35.4101 17.6622 35.8405 17.8296C35.8405 18.1817 35.6349 18.6152 36.1059 18.7916C36.4012 18.9372 36.6952 19.0814 37.0261 19.2442C37.0814 18.9186 36.8675 18.7458 36.8101 18.5225C36.8627 18.2519 37.3289 18.2337 37.2854 17.8417C37.6697 17.6791 38.0681 17.5098 38.3659 17.3841C38.6802 17.032 38.4189 16.6944 38.5847 16.4243C38.7744 16.4562 38.9471 16.6056 39.1433 16.4757C39.3852 16.3701 39.2724 16.0073 39.5971 15.9762C39.6865 15.991 39.776 16.0066 39.86 16.021C39.8196 16.1443 39.7799 16.2664 39.7414 16.3835C39.9109 16.4891 40.0387 16.3954 40.182 16.3412C40.2366 16.2208 40.2921 16.0937 40.3486 15.9665C40.4448 15.9829 40.53 16.0336 40.5855 16.1074C40.6411 16.1812 40.6625 16.2722 40.6451 16.3604C40.5106 16.4817 40.379 16.6021 40.2272 16.741C40.3849 16.8047 40.5131 16.8577 40.641 16.91C40.6026 17.03 40.5605 17.1554 40.5196 17.2818C40.7089 17.3452 40.8991 17.41 41.0972 17.4765C41.1529 17.3549 41.2081 17.2334 41.2655 17.1091C42.511 16.581 42.511 16.581 42.6201 16.317C42.3774 16.3201 42.1411 16.3894 41.9415 16.516C41.7364 16.6464 41.4924 16.7155 41.2428 16.7139C41.1781 16.3986 41.6327 16.453 41.6231 16.19C41.5847 16.1129 41.5422 16.0297 41.4982 15.9436C41.3637 15.8929 41.2271 15.8402 41.0889 15.7883C41.0396 15.6638 40.9187 15.55 41.0409 15.3873C41.1639 15.4188 41.2957 15.4528 41.4352 15.4889C41.4874 15.3743 41.5436 15.2524 41.5981 15.1317C41.9632 14.9771 42.3294 14.8201 42.698 14.6717C42.7312 14.6583 42.7913 14.7002 42.8532 14.721C42.8766 15.1371 42.2383 14.9498 42.2064 15.322C42.331 15.372 42.4605 15.4232 42.5992 15.479C42.6789 15.6374 42.7639 15.8054 42.8818 16.0387C43.3211 15.8098 43.2317 16.3773 43.5645 16.4259C43.6191 16.3136 43.6758 16.1988 43.7401 16.0687C43.9052 15.9983 44.086 15.9219 44.2764 15.8416C44.4086 15.8809 44.5506 15.9235 44.6918 15.9661C44.9276 15.9209 45.1024 15.6835 45.4397 15.8059C45.1949 16.0675 44.9049 16.2988 44.8661 16.6701L45.5386 16.6753C45.6203 16.8151 45.6466 16.9674 45.8914 16.9908C46.2088 16.8563 46.5745 16.7091 46.9301 16.5431C46.981 16.519 46.9818 16.407 47.007 16.3349C46.8169 16.2697 46.6069 16.2427 46.5377 15.976C46.384 15.8623 46.7785 15.7232 46.5773 15.5616C46.4745 15.5264 46.38 15.4945 46.2933 15.4656C46.2461 15.1813 46.6886 15.2273 46.6776 14.9667C46.391 14.8122 45.9694 14.8787 45.7938 14.5362C45.7258 14.2683 46.1231 13.8891 45.5474 13.758L45.2878 13.868C44.9833 13.8016 44.9478 13.3942 44.5739 13.4214C44.6175 13.293 44.6599 13.1675 44.7016 13.0464C44.5735 12.9964 44.4428 12.9445 44.3319 12.9015C44.3254 12.7028 44.5106 12.697 44.6202 12.6143C44.6703 12.5768 44.6647 12.4782 44.6845 12.4074C44.5831 12.3722 44.4883 12.3414 44.2962 12.2756C44.6728 11.9973 44.1901 11.623 44.4908 11.3084C44.2243 11.2088 43.9586 11.1088 43.703 11.0134C43.7415 10.8789 43.7759 10.7602 43.7916 10.7053C43.5858 10.603 43.4127 10.5161 43.2477 10.4346C43.1708 10.5931 43.1132 10.718 43.0599 10.8274C42.9062 10.9004 42.7717 10.9574 42.6226 10.8702C42.663 10.7458 42.7043 10.6205 42.7452 10.4957C42.5973 10.4112 42.467 10.4781 42.3246 10.5188C42.2612 10.5364 42.1698 10.4714 42.0915 10.4437C42.1492 10.2781 42.2793 10.1147 42.13 9.92639C41.9774 9.83591 41.8177 9.74104 41.6586 9.64686L41.3282 8.99232C41.3618 8.8816 41.3998 8.75292 41.4531 8.57794C41.3891 8.45084 41.3451 8.18297 41.214 8.13966C40.8367 8.01257 40.6877 7.6061 40.2844 7.55294C40.3229 7.43095 40.3613 7.30845 40.4018 7.18188C40.2894 7.17906 40.1801 7.14773 40.1065 7.18188C40.0425 7.21746 39.9664 7.23006 39.8929 7.21729C39.8193 7.20452 39.7535 7.16725 39.7082 7.11269C39.4776 6.86624 39.9783 6.49299 39.55 6.27137C39.3641 6.28651 39.1786 6.30153 38.9757 6.31667C38.7569 5.88274 38.545 5.46588 38.3382 5.04481C38.3225 5.01224 38.3517 4.95998 38.3605 4.91545C38.5025 4.77088 38.6929 4.67351 38.9018 4.63867C39.4369 4.67388 39.7945 5.00365 40.1663 4.98111C40.4458 4.88729 40.6245 4.82582 40.7588 4.78093C40.9879 4.90415 40.9919 5.15377 41.2471 5.1587C41.3272 5.1249 41.4181 5.08617 41.508 5.0485C41.7001 5.11346 41.8902 5.17792 42.1317 5.25978C42.1742 5.54302 42.4812 5.76739 42.4509 6.11347C42.4161 6.1999 42.3813 6.28741 42.3388 6.39514C42.6767 6.48406 43.0077 6.59378 43.3295 6.72349C43.6562 6.87769 43.8694 7.22039 44.295 7.21635C44.35 6.81428 44.7003 6.74691 45.0167 6.66805C45.1584 6.69885 45.2804 6.72436 45.416 6.75323C45.3816 6.25188 46.068 6.37544 46.1373 5.98763C45.8234 5.88113 45.5396 5.71075 45.2544 5.70811C44.9086 5.70371 44.5792 5.72744 44.2683 5.56285C44.4075 5.14231 44.9733 5.26787 45.2738 4.84909C45.6427 4.70281 45.1564 4.33467 45.3098 4.08453C45.4546 3.98595 45.5678 3.90995 45.6581 3.84781C45.6581 3.60665 45.5824 3.46383 45.3559 3.43197C45.2982 3.54991 45.2423 3.66648 45.1726 3.80819C45.0189 3.66877 44.8882 3.54726 44.7429 3.41383C44.622 3.41086 44.5034 3.44537 44.4065 3.51173C44.3414 3.56373 44.2606 3.59632 44.1748 3.60525C44.089 3.61418 44.0023 3.59905 43.9261 3.56176L43.8016 3.31524C43.8493 3.1797 43.8946 3.04961 43.9375 2.92639C43.8683 2.79771 43.8318 2.65252 43.6231 2.63105L43.0715 2.86484C42.9586 2.7954 42.8218 2.76643 42.6872 2.78362C42.6443 2.78555 42.6155 2.78771 42.6119 2.78173C42.4626 2.29816 42.8311 2.10768 42.6803 1.74822C42.5218 1.50177 42.3365 1.6019 42.148 1.70189C41.9899 1.78603 41.8297 1.86982 41.6809 1.74976C41.7416 1.41002 42.1997 1.51231 42.3976 1.14052C41.9503 1.23276 41.9793 0.801022 41.6533 0.6866C41.3704 0.587669 40.8928 0.639178 40.9677 0C41.1306 0.232012 41.2997 0.184703 41.4725 0.137526C41.5359 0.109057 41.6061 0.0957693 41.6767 0.098847C41.7472 0.101925 41.8158 0.121285 41.876 0.155147C41.9155 0.233658 41.9576 0.31675 41.9978 0.397021C42.3609 0.522112 42.7016 0.696062 43.0086 0.91326C43.3557 1.18488 43.7056 1.5699 44.2384 1.54983C44.3788 1.82814 44.5062 2.08023 44.6307 2.3272C45.5175 2.68349 46.5714 2.78945 47.0325 3.76555C47.2961 3.86184 47.5734 3.96341 47.8572 4.06639C47.94 4.23028 48.0242 4.39699 48.1091 4.56475C48.5532 5.06398 49.2927 5.11553 49.8113 5.52709C50.0742 5.73464 50.0909 6.06102 50.4585 6.22667C50.9478 6.44601 51.3231 6.8727 51.767 7.18798C52.1747 7.47738 52.5521 7.80874 52.9719 8.07262C53.4392 8.36659 53.875 8.70226 54.3192 9.01648C54.6307 9.23775 55.0797 9.43524 55.1454 9.8755C55.3467 9.92512 55.5417 9.9938 55.7274 10.0804C56.0167 10.2236 56.2745 10.4146 56.4879 10.6438C56.6626 10.8714 57.0853 10.8222 57.1093 11.1695C57.1333 11.5169 57.5897 11.4392 57.7225 11.7027C57.8425 11.9425 58.228 11.921 58.3669 12.2074C58.4226 12.3219 58.7343 12.313 58.7962 12.5266C58.8234 12.6386 58.8875 12.7404 58.9796 12.8182C59.0718 12.896 59.1877 12.9462 59.3119 12.9619C59.3678 13.2925 59.7909 13.2418 59.9327 13.4566C60.048 13.6854 60.1538 13.8949 60.2635 14.1129C60.3967 14.1625 60.5351 14.2137 60.677 14.2671C60.7601 14.4318 60.845 14.5994 60.9295 14.7666C61.3313 14.7573 61.4437 15.1428 61.7557 15.287C62.0616 15.4299 62.1606 15.8397 62.5372 16.0263C62.7455 16.1289 62.8008 16.4923 62.883 16.6553C63.11 16.7672 63.2366 16.8294 63.3826 16.9002C63.5064 17.1457 63.6297 17.3893 63.7366 17.602C63.881 17.6516 63.9767 17.6838 64.0711 17.7157C64.2713 17.9702 64.2961 18.3212 64.5997 18.5314C64.6886 18.5571 64.7841 18.5858 64.8746 18.6119C65.0064 18.8724 65.1337 19.1248 65.2564 19.3689C65.4017 19.4245 65.5393 19.4771 65.6828 19.5325C65.9368 20.0351 66.1904 20.538 66.4393 21.0311C66.549 21.0679 66.6435 21.1015 66.8097 21.1564C67.0564 21.6449 67.3285 22.1826 67.5746 22.6725C67.7405 22.7285 67.8352 22.7605 68.001 22.817L69.0211 24.8377C69.1873 24.8944 69.2816 24.9256 69.4471 24.9822C70.0348 26.1464 70.6457 27.3562 71.2329 28.5194C71.3983 28.5747 71.493 28.6074 71.6062 28.6458C72.0645 29.5538 72.5257 30.4661 72.9896 31.3828L73.9475 30.9768C74.1271 31.0296 74.2949 31.0787 74.4297 31.1176C74.7816 30.9687 75.1036 30.8323 75.4208 30.6982C75.3845 30.2347 75.969 30.1877 76.0903 29.781C76.1792 29.483 76.8688 29.5232 76.8871 29.018L78.5011 28.3332C78.5739 28.1765 78.6423 28.0285 78.717 27.8669L79.9885 27.328C80.1312 27.0171 80.185 26.6228 80.4277 26.4454C80.6406 26.2687 80.8004 26.0449 80.8917 25.7955C81.0381 25.5075 81.0514 25.1598 81.3337 24.9329C81.4431 24.9089 81.5553 24.8967 81.6678 24.8966C81.8348 24.913 81.9848 25.0715 82.1726 24.9389C83.0664 23.8609 83.0664 23.8609 83.6988 23.6046C83.8796 23.6488 84.0469 23.6908 84.231 23.7361L85.8331 23.0575C85.9945 23.2428 86.1805 23.1953 86.3638 23.1476C86.5288 23.1046 86.6904 23.0616 86.8319 23.1887C86.8895 23.2819 86.946 23.3748 87.0029 23.4679C87.4527 23.6205 87.9021 23.7725 88.2587 23.8929C88.6622 24.2171 88.9904 24.4894 89.3322 24.7475C89.436 24.8045 89.5483 24.8473 89.6656 24.8743C89.8651 25.2693 90.0664 25.6681 90.2613 26.0537C90.4355 26.1215 90.5973 26.1838 90.7685 26.2512C90.9182 26.5473 91.0675 26.8434 91.2104 27.1264C91.3436 27.1717 91.4564 27.2092 91.6182 27.2647C91.7994 27.6234 91.9967 28.014 92.229 28.4749V28.4738C93.1019 28.6935 92.9768 29.4896 93.4555 29.8714C93.5679 29.9099 93.6806 29.9483 93.8768 30.0143C94.0701 30.3965 94.2894 30.8314 94.4892 31.2271C94.8416 31.2965 95.0923 31.5373 95.4411 31.3076C95.496 31.2009 95.5702 31.0584 95.6939 30.8211C96.5146 30.4731 97.4232 30.0881 98.29 29.7209C98.4756 28.8349 99.3177 28.4161 99.6874 27.6757L100.917 27.1546C101.106 26.6603 101.589 26.4153 101.849 26.0366C102.15 25.5994 102.645 25.258 102.718 24.6959C103.253 24.4609 103.209 23.8839 103.549 23.4813C104.054 23.2674 104.589 23.0413 105.087 22.83C105.145 22.6815 105.188 22.5787 105.236 22.4565C105.544 22.3257 105.866 22.1894 106.243 22.0296C106.636 22.1626 107.072 22.3787 107.532 22.4464C108.016 22.5181 108.523 22.4473 109.029 22.4394C109.067 22.8256 109.454 22.8001 109.654 22.9708C109.855 23.1416 109.875 23.4252 110.135 23.6194C110.557 23.9376 111.165 24.1122 111.324 24.6848C112.045 24.7935 111.972 25.5224 112.408 25.8546C112.521 25.8921 112.633 25.9299 112.766 25.9754C113.062 26.5605 113.362 27.1583 113.669 27.7533C113.689 27.7901 113.77 27.8003 113.845 27.8331C113.922 27.8324 113.998 27.8176 114.069 27.7894C114.135 27.7565 114.209 27.7415 114.284 27.7462C114.359 27.7508 114.431 27.7749 114.491 27.8156C114.786 28.4004 115.089 28.9993 115.386 29.5881C115.559 29.6539 115.721 29.7168 115.854 29.7686C116.117 30.2889 116.367 30.7848 116.567 31.1809C116.528 31.6937 116.496 32.102 116.464 32.5141C117.294 34.1585 118.126 35.805 118.958 37.4535C119.059 37.6533 119.299 37.9112 119.235 38.0427C119.01 38.5004 119.36 38.8616 119.369 39.2689C119.348 39.3823 119.306 39.4916 119.247 39.5928C119.694 40.48 120.15 41.3764 120.596 42.2761C120.613 42.3136 120.567 42.377 120.551 42.4287C120.513 42.5317 120.476 42.6348 120.436 42.7426C123.004 47.83 125.572 52.9157 128.138 57.9995C128.081 58.1655 128.029 58.3191 127.974 58.4814C128.93 60.3752 129.886 62.2687 130.827 64.1335C130.779 64.3049 130.74 64.444 130.701 64.5796C130.85 64.6303 130.963 64.6686 131.159 64.7348C131.504 65.4159 131.875 66.1522 132.218 66.8319C132.415 66.8983 132.527 66.9365 132.641 66.975C132.833 67.301 133.086 67.6068 133.093 67.9925C133.047 68.1067 133.006 68.21 132.963 68.3186C133.112 68.614 133.263 68.9127 133.415 69.2146C133.572 69.275 133.735 69.3379 133.89 69.3958C134.195 70.0002 134.496 70.5969 134.791 71.1805C134.734 71.3491 134.683 71.5029 134.629 71.6663C134.879 72.1618 135.129 72.6576 135.363 73.1209C135.308 73.3094 135.262 73.4626 135.213 73.6314L135.591 74.3807C135.562 74.9284 135.541 75.3371 135.52 75.746C135.646 75.9955 135.772 76.2453 135.91 76.5183C135.622 76.9251 135.924 77.416 135.683 77.8913C135.49 78.2739 135.609 78.7892 135.583 79.3963C135.477 79.6616 135.312 80.0743 135.147 80.4877C135.361 80.8221 135.528 81.1637 135.286 81.549C135.577 81.8835 135.087 82.2778 135.382 82.613C134.993 83.0335 135.603 83.3997 135.457 83.8366C135.356 84.1828 135.34 84.5451 135.411 84.8975C135.473 85.257 135.317 85.5085 135.129 85.7706C134.442 85.8252 133.769 85.8085 133.16 85.5279C132.688 86.2613 133.16 87.1122 132.744 87.8567L132.123 88.1207C131.965 88.5339 131.706 88.9044 131.683 89.3017C131.834 89.601 131.96 89.8495 132.097 90.1226C132.028 90.3597 131.953 90.6135 131.926 90.7063C131.607 90.9323 131.348 90.9665 131.292 90.8387C131.131 90.4584 130.747 90.46 130.443 90.3229C130.279 90.5212 130.3 90.866 129.92 90.8862C129.74 91.0974 129.987 91.2911 129.818 91.4539C129.735 91.8271 129.652 92.2006 129.595 92.4594C129.247 92.6261 129.043 92.7235 128.779 92.8511C128.581 93.3947 128.377 93.9579 128.176 94.5112L127.694 94.3919C127.618 94.904 127.202 94.9703 126.789 95.0497C126.575 94.9524 126.355 94.882 126.122 95.046C126.099 95.0786 126.043 95.122 126.044 95.1646C126.045 95.2655 126.091 95.3671 126.089 95.4681C126.08 95.851 126.041 96.2251 125.375 96.4158C125.209 96.3209 124.918 96.1549 124.626 95.9885C124.539 96.2094 124.497 96.3124 124.45 96.4325C124.219 96.5603 123.975 96.6965 123.85 96.7659C123.64 96.9391 123.747 97.1828 123.51 97.1602C123.116 96.8485 122.743 96.5528 122.324 96.221C122.271 96.9714 122.926 97.4439 122.98 98.0979C122.892 98.294 122.803 98.4915 122.713 98.692C122.376 98.8346 122.057 98.9697 121.798 99.0793C121.658 99.2349 121.729 99.4428 121.448 99.4724C121.317 99.2802 121.154 99.343 121.006 99.4053C120.933 99.4493 120.846 99.4693 120.758 99.462C120.332 99.3182 119.995 99.2037 119.653 99.0884C119.513 98.9446 119.475 98.682 119.146 98.7175C118.743 98.8265 118.789 99.2193 118.629 99.4942C118.729 99.6921 118.83 99.8912 118.929 100.088C118.886 100.249 118.821 100.405 118.737 100.551C118.517 100.843 118.262 101.113 118.046 101.365C117.976 101.397 117.898 101.415 117.819 101.418C117.741 101.42 117.662 101.407 117.589 101.378C117.471 101.331 117.339 101.322 117.214 101.353C117.089 101.384 116.98 101.453 116.904 101.549C116.464 101.397 115.969 101.227 115.408 101.035C115.183 101.136 114.866 101.307 114.51 101.073C114.428 101.393 114.117 101.554 113.918 101.792C113.972 101.938 113.999 102.091 113.998 102.245C113.887 102.79 113.392 103.099 113.025 103.507C112.926 103.505 112.828 103.487 112.737 103.452C112.562 103.399 112.383 103.345 112.199 103.496C112.114 103.879 112.242 104.316 111.875 104.772C111.611 104.628 111.317 104.465 111.022 104.303C110.938 104.514 110.896 104.618 110.824 104.799C110.409 104.975 109.936 105.175 109.476 105.37C109.589 105.846 108.901 105.793 108.959 106.195C109.014 106.259 109.047 106.337 109.054 106.418C109.06 106.5 109.04 106.581 108.996 106.652L105.88 107.972C105.723 108.461 105.523 109.085 105.35 109.623C104.834 109.841 104.409 110.022 103.973 110.206C103.885 110.127 103.768 110.079 103.645 110.072C103.521 110.065 103.399 110.099 103.301 110.168C103.198 110.343 103.093 110.523 103.033 110.624C102.951 110.669 102.857 110.695 102.761 110.7C102.665 110.704 102.569 110.687 102.482 110.65C102.289 110.597 102.11 110.545 101.945 110.728C101.526 110.462 101.165 110.718 100.789 110.834C100.569 110.769 100.358 110.628 100.123 110.785C99.8252 111.154 99.5272 111.523 99.2993 111.805C98.8407 112.134 98.3232 112.157 98.007 112.49C97.917 112.716 97.8894 112.786 97.8002 112.786C97.7411 112.777 97.6835 112.761 97.6288 112.738ZM77.1939 95.6808C77.4437 95.5104 77.3765 95.202 77.6405 94.9659C77.8286 95.0582 78.0837 95.1825 78.2966 95.2865C78.5752 95.1401 78.4215 94.9317 78.5328 94.7902C78.5576 94.7577 78.5795 94.7234 78.5981 94.6876C78.4532 94.3179 78.3291 94.3643 78.2565 94.4112C78.2323 94.4271 78.2136 94.4428 78.2023 94.4428C77.7002 94.5042 77.7477 94.096 77.4721 94.0948C77.3444 94.2229 77.4066 94.4621 77.1647 94.519C77.1151 94.5478 77.0572 94.5626 76.9984 94.5613C76.9397 94.56 76.8826 94.5426 76.8346 94.5116C76.7694 94.4775 76.6953 94.4604 76.6202 94.462C76.6421 94.7855 76.2234 94.8284 76.1398 95.0874C76.175 95.1712 76.2115 95.2545 76.243 95.3309C76.4282 95.4942 76.605 95.343 76.8093 95.3272C76.9297 95.439 77.0594 95.5579 77.1941 95.6815L77.1939 95.6808ZM23.8619 68.121C23.9436 68.4396 24.0043 68.7635 24.4449 68.818C24.4185 69.1942 24.3922 69.5708 24.368 69.9114C24.5794 70.2541 25.0082 70.1653 25.2449 70.3899C25.2021 70.6263 24.6506 70.6474 25.0205 71.1373C25.2847 71.1778 25.6752 71.2382 26.1788 71.3167L26.2683 71.2639C26.3784 71.0067 26.1194 70.8458 26.0706 70.6301C26.4128 70.2978 26.5976 69.793 27.1514 69.7218C27.4252 69.8681 27.136 69.9683 27.2154 70.085C27.3364 70.2797 27.5851 70.277 27.811 70.3589C28.173 70.1601 28.135 69.8928 28.2591 69.7025C28.3037 69.2659 27.571 69.4727 27.6098 69.0406C27.601 68.786 28.0518 68.8381 27.9924 68.5274C27.8095 68.5431 27.6246 68.5579 27.4394 68.5731C26.999 68.3544 27.5119 67.9791 27.2453 67.6978C27.1055 67.5248 26.9274 67.6529 26.7542 67.7134C26.3728 67.5844 25.9951 67.4555 25.5885 67.3181L24.525 67.7687C24.3713 67.7302 24.2322 67.6939 24.0663 67.6513C24.0014 67.8046 23.9305 67.9656 23.8621 68.1219L23.8619 68.121ZM21.5729 63.5633C21.5863 63.7464 21.7842 63.6865 21.8865 63.7695C22.0018 64.0293 21.6809 63.9807 21.4755 64.3565C21.4274 64.4648 21.8726 64.664 21.8338 64.9765C22.0139 65.0494 22.1472 65.1036 22.2917 65.1629C22.2513 65.2809 22.2083 65.4067 22.1658 65.5325C22.4055 65.5971 22.6389 65.6796 22.8639 65.7791C23.011 65.8808 23.1418 66.0009 23.2526 66.1358C23.6113 65.7838 23.3441 65.3425 23.5187 64.9723C23.6934 64.6021 23.8261 64.2181 23.9774 63.8409L23.1996 63.5785C23.2315 63.4632 23.2647 63.3453 23.3035 63.2108C23.2169 62.9214 23.0184 62.6652 22.9127 62.3703C22.4297 62.527 22.9456 62.7795 22.7421 62.9293C22.514 63.2347 22.2191 63.02 22.0696 62.9795C21.6459 63.0938 21.6945 63.3785 21.5731 63.5642L21.5729 63.5633ZM7.94181 53.987C8.19006 54.1346 8.32322 54.0656 8.53189 53.9734C8.58761 53.7598 8.65697 53.4935 8.71231 53.2819C8.88658 53.2085 8.97766 53.1696 9.07738 53.127C9.0843 52.786 9.09198 52.4432 9.10005 52.1167C8.90791 52.0438 8.76918 51.9917 8.62565 51.9359C8.50229 51.6922 8.37477 51.4399 8.24309 51.179L7.87495 51.0717C7.6561 50.7846 7.54119 50.3792 7.29852 50.0038L6.75456 50.0516C6.54858 49.89 6.40869 49.724 6.78779 49.4795C7.20609 49.5114 7.63111 49.7563 8.08573 49.8625C8.13434 49.7392 8.16911 49.6512 8.21849 49.5301C8.3382 49.5563 8.46368 49.5852 8.65255 49.6283C8.73095 49.2518 8.38969 48.9889 8.33916 48.6833C8.37759 48.5481 8.41026 48.4304 8.44158 48.3165C8.31649 48.2742 8.22196 48.2413 8.09725 48.1998C7.85458 47.7195 7.60248 47.22 7.36384 46.7473C6.9905 46.487 6.45539 46.5347 6.23615 45.9969C6.09627 46.3608 6.25344 46.6636 6.09588 46.9037L6.3474 47.4013C6.73015 47.4299 6.82392 47.706 7.01126 48.0827C6.85159 48.3027 6.63273 48.6092 6.41215 48.9153C6.39293 49.1025 6.20503 49.0458 6.02307 48.961C5.79941 49.0777 5.82208 49.473 5.37919 49.3834C5.39091 49.0699 5.40302 48.7476 5.42012 48.2996C5.28293 48.2761 5.0585 48.2385 4.78181 48.1924C4.61349 48.2228 4.55931 48.3976 4.48495 48.5708C4.41386 48.7315 4.12295 48.7251 4.1168 48.9495C4.34987 49.0277 4.58679 49.108 4.88538 49.2094C4.95416 49.3257 5.04563 49.4813 5.21952 49.777C5.37938 49.7946 5.67932 49.8267 5.88338 49.849C6.03709 50.2904 5.53098 50.2011 5.56306 50.4616C5.95139 50.5358 6.08897 50.9535 6.47691 51.029C6.4429 51.1158 6.40889 51.2029 6.36892 51.3005C6.49554 51.5068 6.75686 51.486 6.9515 51.5758C7.0883 51.5342 7.20955 51.4157 7.37614 51.5229C7.355 51.591 7.35692 51.6889 7.3062 51.7271C7.19533 51.8093 7.01376 51.8173 7.01933 52.0065C7.32676 52.2093 7.69894 52.1938 8.06824 52.1933C7.98082 52.4123 7.89532 52.6294 7.80731 52.8473C8.04846 52.9374 8.04844 52.9373 8.47078 52.9129C8.28478 53.2924 8.10801 53.6524 7.94181 53.9888V53.987ZM49.0533 9.26609C49.1512 9.39465 49.2759 9.50428 49.4201 9.58867C49.5643 9.67307 49.7252 9.73057 49.8937 9.75792L50.1602 9.64523C50.2496 9.47025 50.2496 9.47026 49.9308 8.93336L49.3759 8.95683C49.2087 8.62518 49.7738 8.74994 49.7141 8.46388C49.6061 8.41899 49.4824 8.36601 49.349 8.30968C49.3896 8.19262 49.4332 8.06855 49.4772 7.94128C49.2931 7.8802 49.1046 7.81805 48.8815 7.74341C48.7981 7.99345 48.6933 8.23701 48.5681 8.47196C48.5472 8.50092 48.5201 8.52582 48.4886 8.54519C48.4571 8.56456 48.4218 8.57808 48.3846 8.5849C48.3474 8.59172 48.3091 8.59176 48.2718 8.58499C48.2346 8.57821 48.1992 8.5647 48.1677 8.54536C48.1831 8.38693 48.1981 8.22718 48.2117 8.07262C48.0597 7.79572 47.7846 7.76719 47.4977 7.75399C47.4435 8.10306 47.7254 8.34351 47.8305 8.6382C47.7828 8.76758 47.7363 8.8964 47.6921 9.01734C47.78 9.19108 47.8637 9.35707 47.9462 9.52025C48.1888 9.61003 48.3773 9.50921 48.5651 9.40834C48.6913 9.32504 48.8396 9.27439 48.9945 9.2617C49.0143 9.2626 49.034 9.2646 49.0535 9.26781L49.0533 9.26609ZM46.3206 7.16898C46.1961 7.32953 46.0274 7.54927 45.8034 7.83796C45.6925 7.91577 45.3855 7.88584 45.2537 8.23774C45.4717 8.29055 45.6914 8.34335 45.8762 8.38824C45.9861 8.36909 46.0846 8.31372 46.1531 8.23266C46.2216 8.1516 46.2553 8.05044 46.248 7.94816C46.733 7.74255 47.2191 7.53639 47.6564 7.35121C47.7525 7.11814 47.8236 6.94805 47.8926 6.78082L47.5836 6.16874C47.2762 6.29918 47.0623 6.38974 46.8727 6.47001L46.7476 6.78383C46.6225 6.75267 46.4943 6.72156 46.3544 6.68635C46.1487 6.7661 45.8946 6.79195 45.7384 7.00988C45.8091 7.19736 45.9177 7.15283 46.0297 7.10847C46.0751 7.08682 46.1248 7.07357 46.1758 7.06954C46.2282 7.07112 46.278 7.09544 46.3208 7.17096L46.3206 7.16898ZM12.8753 61.7538C12.8663 61.7489 12.8699 61.7438 12.9009 61.7587H12.898C12.8901 61.7589 12.8823 61.7573 12.8753 61.7538ZM15.1908 58.8252H15.1899H15.1908ZM20.4029 19.2192C20.4123 19.2129 20.4114 19.2137 20.4029 19.2192V19.2192ZM32.9213 19.1243C32.9985 19.0914 32.987 19.0963 32.9211 19.1241L32.9213 19.1243Z" fill="#008060" fill-opacity="0.1"/>
<path d="M335.478 106.493C299.61 105.724 283.917 91.1544 283.917 91.1544C283.917 91.1544 317.842 102.584 348.879 96.1571C351.037 88.8341 352.087 81.2294 351.994 73.5955C350.285 74.2869 348.517 74.824 346.712 75.2002C317.932 81.0465 283.993 71.1395 283.993 71.1395C283.993 71.1395 322.713 73.239 351.04 61.9199C349.954 54.9733 348.117 48.1651 345.561 41.6151C329.486 56.5712 317.365 69.3372 316.65 60.8952C316.088 54.2715 332.539 41.4934 339.441 28.273C337.594 24.8395 335.49 21.5507 333.147 18.4345C305.832 46.1507 266.902 57.9509 266.902 57.9509C266.902 57.9509 305.388 31.5334 325.294 9.47024C322.73 6.9581 320.002 4.61793 317.13 2.46484C289.689 13.1797 259.742 75.7856 245.46 57.108C237.796 47.0854 265.341 30.5118 248.371 13.9693C246.185 11.8381 243.127 11.3834 239.796 12.3291C236.244 26.2921 233.742 37.7421 233.742 37.7421C233.742 37.7421 232.113 29.9073 231.668 17.0784C226.121 21.9838 221.108 30.0719 219.247 40.1619V109.32H343.696C344.229 108.171 344.738 107.16 345.223 106.074C341.988 106.432 338.732 106.572 335.478 106.493Z" fill="currentColor" fill-opacity="1"/>
</svg>
