<svg width="352" height="116" viewBox="0 0 352 116" fill="none" xmlns="http://www.w3.org/2000/svg">
<path d="M234.775 124.43C270.968 123.649 286.742 108.664 286.742 108.664C286.742 108.664 252.561 120.01 221.242 113.484C219.047 106.14 217.97 98.5024 218.048 90.8327C219.773 91.5348 221.557 92.0801 223.378 92.4621C250.337 97.9733 282.09 89.719 286.464 88.4635C286.509 88.4507 286.551 88.4285 286.587 88.3985C286.623 88.3686 286.652 88.3313 286.673 88.2892C286.694 88.2472 286.706 88.2014 286.708 88.1544C286.71 88.1075 286.703 88.0606 286.686 88.0168C286.686 88.0168 247.608 90.3527 219.025 78.8578C220.613 68.3363 224.206 57.3837 230.17 45.8361C232.162 41.9769 234.469 38.2909 237.066 34.8161C264.629 62.963 303.912 74.9466 303.912 74.9466C303.912 74.9466 301 72.3492 295.559 68.3599C282.874 59.0589 259.258 41.1485 245.201 25.4693C253.516 17.3067 262.4 11.4038 273.624 7.12638C296.409 18.8096 317.447 38.4972 317.447 38.4972C317.447 38.4972 314.654 25.6413 293.697 1.48495C303.539 -0.173827 313.563 -0.444405 323.479 0.680835C330.593 23.195 337.373 54.4228 337.373 54.4228C337.373 54.4228 341.762 33.1964 338.157 3.30434C342.857 4.47071 347.48 5.93191 351.999 7.67939V127.111H226.421C225.884 125.945 225.503 125.087 225.013 123.984C228.253 124.356 231.515 124.505 234.775 124.43Z" fill="#008060" fill-opacity="0.1"/>
<path d="M43.8842 73.3311C43.5433 73.1312 43.2611 72.8588 43.062 72.5373V70.3522C42.9244 70.2452 42.7977 70.1271 42.6833 69.9995C42.6132 69.9103 42.5753 69.8037 42.5747 69.6941C42.5741 69.5845 42.6109 69.4773 42.68 69.3875C42.8066 69.2268 42.9438 69.0732 43.0908 68.9276V68.1742C42.8975 67.8628 42.7298 67.5388 42.5891 67.2049L43.0847 66.7063V66.2779C43.2014 66.1828 43.3297 66.1005 43.4672 66.0323C43.6092 65.9775 43.7914 66.0054 43.9225 65.9407C44.057 65.851 44.1771 65.7447 44.2794 65.6248C44.6017 65.5664 44.9309 65.5467 45.2588 65.5659C45.4354 65.5689 45.6157 65.5724 45.8013 65.5659C46.0972 65.4163 46.295 64.9827 46.809 65.1267C47.0457 64.9211 47.2796 64.7159 47.5054 64.5185C47.6767 64.2655 47.5054 63.8992 47.8794 63.7354H49.8504C50.0369 63.8953 50.2163 64.0482 50.4009 64.2051H51.8764C52.3 64.593 52.7067 64.9733 53.1265 65.3409C53.248 65.43 53.3799 65.5063 53.5199 65.5689H54.3128C54.4718 65.6917 54.6536 65.834 54.8765 66.0064H55.8095C56.0012 66.1633 56.1825 66.3102 56.3813 66.4753H57.3456C57.5292 66.6339 57.7096 66.7882 57.8909 66.9425C58.3846 66.9425 58.8849 66.9352 59.3815 66.9498C59.4425 66.9498 59.5154 67.0412 59.5538 67.1041C59.5626 67.1301 59.565 67.1577 59.5607 67.1847C59.5565 67.2117 59.5457 67.2373 59.5292 67.26C59.4208 67.3764 59.2972 67.4782 59.1562 67.6083V68.5019C58.8942 68.811 58.5692 69.0711 58.199 69.2682H57.3394C57.0081 69.5699 56.7141 69.8405 56.3974 70.1302H54.9404C54.7487 70.2853 54.5684 70.4344 54.3634 70.599H53.4034C53.2188 70.7576 53.0413 70.9102 52.8567 71.0679H52.3744C52.1907 71.2265 52.0122 71.3808 51.83 71.5351H49.3619C49.1645 71.6985 48.9832 71.848 48.7962 72.0023H46.8313C46.3418 72.4488 45.8723 72.8787 45.3724 73.3338L43.8842 73.3311ZM74.4054 67.3871C74.1579 67.1583 73.9207 66.9428 73.6774 66.7204V63.9768C73.8317 63.8225 73.9946 63.6574 74.1508 63.5027C73.9974 63.3423 73.8445 63.185 73.7034 63.0376C73.8786 62.8492 74.0348 62.6825 74.1649 62.5419C74.2075 61.8954 74.0982 61.2881 74.1943 60.8489L74.8878 60.0706C75.621 60.0478 75.6257 60.0447 75.6764 59.4189C75.5244 59.2646 75.3602 59.0995 75.1898 58.9241C75.1902 58.8545 75.1841 58.785 75.1713 58.7164C75.1423 58.6435 75.1427 58.5634 75.1726 58.4908C75.2026 58.4182 75.26 58.3578 75.3346 58.3203C75.4492 58.2565 75.5514 58.3268 75.6934 58.4725C75.9126 58.7013 76.1607 58.9064 76.3973 59.124C76.492 59.0262 76.6567 58.9348 76.6671 58.8275C76.7197 58.3823 76.7206 57.9303 76.7576 57.485C76.7628 57.4243 76.8678 57.375 76.928 57.319H77.4316C77.9012 57.7474 78.3717 58.1811 78.8488 58.6086C78.8791 58.6345 78.9634 58.612 79.024 58.612C79.3179 58.3435 79.6128 58.0742 79.9234 57.7898H80.899C81.0883 57.6303 81.2673 57.4776 81.4514 57.319H82.0942C82.3337 57.5966 82.6395 57.9551 82.9032 58.2624H83.9445L84.5164 58.6892C84.7027 58.6986 84.8895 58.6994 85.0759 58.6918C85.4013 58.6648 85.7294 58.6924 86.0439 58.7732C86.1613 58.8814 86.2806 58.9887 86.4273 59.124H88.0031C88.2649 59.4322 88.5712 59.7886 88.8112 60.0692C89.2959 60.0692 89.6306 60.0692 89.9548 60.0692C90.1385 60.2269 90.3046 60.489 90.4921 60.5084C91.1623 60.5803 91.1704 60.5546 91.2182 61.1778C91.0653 61.3338 90.901 61.5006 90.7226 61.6799V62.5967C90.3117 62.9548 89.889 63.3203 89.4389 63.7121L88.9854 63.7379C88.8159 63.8832 88.6356 64.0371 88.45 64.1948H88.014C87.3722 64.6129 86.9911 65.2292 86.3573 65.5701C84.9102 65.5701 83.4901 65.5702 82.0715 65.5741C81.9958 65.5881 81.9231 65.6134 81.8566 65.649C81.7377 65.7572 81.6199 65.8645 81.5025 65.974C81.0715 66.0371 80.6338 66.0541 80.1984 66.0245C79.7545 65.9905 79.3076 66.0119 78.8702 66.0882L78.4503 66.4732H77.4771C77.2877 66.6322 77.1088 66.786 76.9223 66.9433H76.4408C76.2553 67.1036 76.0759 67.2562 75.9202 67.3911L74.4054 67.3871ZM3.22597 61.416C3.03237 61.2617 2.85057 61.1145 2.66738 60.9684C2.43903 60.907 2.19679 60.9024 1.9659 60.9554C1.79914 61.0076 1.61986 61.0172 1.44752 60.9831C1.27519 60.9491 1.11637 60.8728 0.98838 60.7624V59.8705C0.812764 59.6951 0.645662 59.53 0.473359 59.3597V58.4729C0.306263 58.3005 0.152895 58.1422 0 57.9844C0.31431 57.7 0.611591 57.4307 0.899394 57.1553C0.925902 57.1311 0.888975 57.0493 0.882348 56.9903C0.732942 56.9121 0.615074 56.7923 0.54605 56.6485C0.477027 56.5047 0.460524 56.3446 0.498957 56.1916C0.630551 56.0558 0.793826 55.8898 0.961395 55.72C0.805187 55.5657 0.643298 55.4023 0.488036 55.2458V53.8779C0.904592 53.4969 1.31829 53.1172 1.7339 52.7379H6.23844C6.41595 52.8892 6.59816 53.0423 6.78466 53.2022H11.2541C11.4529 53.3655 11.6328 53.515 11.8221 53.671H18.7753C18.9936 53.8434 19.1767 53.9856 19.3774 54.1416H20.3175L21.2363 54.9817C21.5208 55.0039 21.7871 55.1185 21.9866 55.3046C21.6918 55.5738 21.3971 55.8437 21.1024 56.1144C21.0427 56.3213 20.9836 56.5273 20.913 56.7695C20.6877 56.9419 20.4364 57.1289 20.1879 57.319C19.8035 57.2518 19.626 57.5617 19.3495 57.6845C19.0007 57.8388 18.567 57.8388 18.3284 58.1896C18.1251 58.1821 17.9232 58.2239 17.7433 58.3106C17.5634 58.3974 17.412 58.5261 17.3046 58.6835H15.8074C15.6209 58.8435 15.4405 58.9979 15.2559 59.1539H14.7783L14.2401 59.6089C14.0564 59.6192 13.894 59.6318 13.7331 59.6422C13.0832 60.2339 12.4342 60.8278 11.7743 61.432H7.76027C7.60027 61.2945 7.42084 61.1426 7.23623 60.9857H4.24654C4.06193 61.1426 3.88252 61.2947 3.70927 61.4438C3.53318 61.4335 3.37035 61.4268 3.22597 61.416ZM103.021 58.6934C102.714 58.4267 102.474 58.2168 102.246 58.016V54.2155C102.553 53.9901 102.94 53.7093 103.272 53.4684V52.072C103.461 51.8423 103.673 51.684 103.731 51.4849C103.792 51.2694 103.773 51.0467 104.004 50.9024C104.414 50.9024 104.414 50.9023 104.672 50.7445C104.874 50.3997 104.612 49.9997 104.852 49.667C104.906 49.6121 104.968 49.5643 105.036 49.5247L105.507 49.5458C105.69 49.6893 105.862 49.8248 106.032 49.9598C106.286 49.7318 106.471 49.4769 106.868 49.5174C107.096 49.5274 107.325 49.517 107.551 49.486C107.879 49.1878 108.173 48.918 108.467 48.6486C108.629 48.6357 108.788 48.6219 108.972 48.6055L109.521 49.0588H109.98C110.17 49.2183 110.349 49.3708 110.535 49.5269H111.512C111.701 49.6872 111.882 49.8398 112.066 49.9941H115.023C115.228 50.1617 115.41 50.3071 115.603 50.4632H117.028C117.256 50.6356 117.441 50.7799 117.594 50.8941C117.756 50.9015 117.914 50.8997 118.074 50.8979C118.483 50.8768 118.893 50.9146 119.289 51.0097C119.289 51.5821 119.289 52.0372 119.289 52.5182C119.067 52.7371 118.83 52.9422 118.579 53.1323C118.469 53.2069 118.269 53.1754 117.953 53.2038C117.722 53.4706 117.414 53.8237 117.168 54.109H116.538C116.352 54.2667 116.171 54.4179 116.003 54.5631C115.822 54.5722 115.658 54.5827 115.496 54.593C115.387 54.749 115.234 54.8755 115.054 54.9601C114.873 55.0446 114.671 55.0839 114.469 55.0739C114.174 55.3446 113.879 55.6131 113.583 55.882C113.377 55.8751 113.173 55.9176 112.991 56.0051C112.808 56.0927 112.654 56.2225 112.544 56.3812H110.07C109.883 56.5355 109.701 56.6868 109.505 56.8484H107.537C107.353 57.0062 107.174 57.1604 106.991 57.3173H106C105.764 57.5328 105.527 57.7483 105.29 57.9638C105.266 58.0327 105.253 58.1045 105.252 58.1768C105.292 58.4354 105.163 58.6611 104.913 58.6753C104.629 58.693 104.345 58.6979 104.07 58.6979C103.707 58.7022 103.351 58.6934 103.021 58.6934ZM43.8728 51.3319C43.3834 50.9916 42.9514 50.588 42.5905 50.1338C42.5905 49.3942 42.5862 48.7068 42.5905 48.0219C42.5905 47.9573 42.6525 47.8926 42.6852 47.8357C42.8371 47.6633 43.1164 47.5598 43.0837 47.2965C43.0364 46.9207 43.3777 46.7871 43.5827 46.5496V45.6634C43.7583 45.488 43.9254 45.3221 44.0977 45.1501V42.7076C44.3331 42.7421 44.5743 42.713 44.7919 42.6243C45.0094 42.5355 45.1938 42.3909 45.3222 42.208H46.3684L47.0457 41.4529C47.0425 41.3494 47.064 41.2466 47.1087 41.1514C47.2576 40.937 47.4219 40.7317 47.6005 40.537C47.6099 40.3463 47.6088 40.1552 47.5972 39.9646C47.5817 39.8914 47.5858 39.816 47.6091 39.7445C47.6324 39.673 47.6742 39.6077 47.7311 39.554C47.8556 39.4463 47.9361 39.5066 48.0923 39.6544C49.0201 40.5212 49.964 41.3785 50.8908 42.2211H51.8967C52.15 42.462 52.3498 42.7137 52.7412 42.6521C52.946 42.6089 53.1606 42.6269 53.3533 42.7034C53.5459 42.78 53.7064 42.9109 53.811 43.077C54.049 43.1194 54.2924 43.1303 54.5338 43.1094C54.8568 43.0712 55.1852 43.1083 55.4881 43.2171C55.6098 43.3262 55.7248 43.4351 55.8592 43.5549H59.3398C59.5292 43.7139 59.7081 43.8671 59.8937 44.0253H63.5409C63.7776 44.3067 64.0862 44.6631 64.3267 44.942C66.685 44.942 66.6849 44.942 67.1805 45.1768C66.9211 45.3807 66.6736 45.5773 66.3493 45.8303H64.4299C63.9168 46.2975 63.3936 46.7755 62.8909 47.2315C62.6879 47.2444 62.5251 47.2517 62.3618 47.2603C62.2577 47.3803 62.1371 47.4878 62.0029 47.5798C61.6716 47.7552 61.1982 47.6849 60.9687 48.068C60.9412 48.1154 60.8347 48.1383 60.7618 48.149C60.6481 48.157 60.5338 48.157 60.42 48.149C60.2093 48.1216 59.9943 48.1486 59.7995 48.2267C59.5013 48.4982 59.2063 48.7693 58.8963 49.0538H56.9181C56.7288 49.2115 56.5503 49.3666 56.3647 49.5243H53.8778C53.6931 49.6829 53.5128 49.8354 53.3272 49.9945H47.3392C47.0748 50.2787 46.6989 50.4577 46.2917 50.4932C45.9968 50.7639 45.7024 51.0324 45.3753 51.3315L43.8728 51.3319ZM75.9552 48.1175C75.6451 47.8636 75.3957 47.6642 75.1837 47.4926V44.2601C75.3612 44.0813 75.5254 43.9124 75.6986 43.7374V42.861C75.9571 42.6231 76.1933 42.4071 76.4276 42.1916H76.8796V42.1948L78.6926 40.5901V40.1294C79.1143 39.7429 79.5275 39.3635 79.9324 38.9911C80.108 39.1389 80.2831 39.2828 80.4412 39.4147C80.6481 39.266 80.8374 39.1255 81.0263 38.9837C81.3103 39.0613 81.4997 38.9096 81.6862 38.7575C81.8727 38.6053 82.0501 38.4631 82.3209 38.526C82.7905 38.3359 83.0437 37.9226 83.4324 37.6269C83.6056 37.7709 83.7803 37.9179 83.9625 38.0674H84.4421C84.6276 38.2277 84.807 38.3777 84.9774 38.5256C85.1578 38.5346 85.3201 38.5411 85.4631 38.5506C85.6576 38.7066 85.8418 38.8523 86.0368 39.0104H87.4876C87.6358 39.1441 87.7532 39.2523 87.8891 39.3752C88.3269 39.4577 88.7759 39.4801 89.2211 39.4419C89.6611 39.4044 90.1047 39.4256 90.5379 39.5048L90.9375 39.8703H92.3841C92.5819 40.0289 92.7661 40.1721 92.98 40.3445H93.9268L94.4853 40.8146H96.9686C97.1522 40.9707 97.3316 41.1253 97.5191 41.2835H99.99C100.097 41.3466 100.179 41.4402 100.221 41.5497C100.264 41.6593 100.266 41.7786 100.227 41.8892C100.204 41.9558 100.164 42.0166 100.11 42.0666C100.057 42.1166 99.9911 42.1542 99.9185 42.1767C99.6114 42.2009 99.3028 42.2051 98.995 42.1895C98.569 42.5218 98.3105 42.9308 97.8329 43.1054H97.0784C96.6214 43.4255 96.1978 43.7833 95.8131 44.1743C95.3591 44.6317 94.8627 45.0527 94.3296 45.4328H93.4335C93.2773 45.575 93.159 45.6842 93.0373 45.7949C92.6065 45.868 92.1668 45.8872 91.7304 45.8522C91.2827 45.8132 90.8311 45.8369 90.3912 45.9225C90.2421 46.06 90.1238 46.1663 89.9846 46.2952H88.0206L87.4479 46.7655H83.9834C83.794 46.925 83.6123 47.0784 83.4286 47.2327H78.9317C78.6009 47.5705 78.2341 47.8775 77.8368 48.1495C77.5722 48.1357 77.3066 48.143 77.0468 48.1495C76.8948 48.1533 76.7452 48.1572 76.5985 48.1572C76.383 48.1612 76.1676 48.1478 75.9547 48.1175H75.9552ZM23.2528 47.2007C23.0158 46.9841 22.78 46.7686 22.5452 46.5542C22.5625 46.4459 22.556 46.3356 22.5259 46.2295C22.4959 46.1235 22.4429 46.024 22.37 45.9368C22.1888 45.8548 21.9836 45.827 21.784 45.8574C21.6434 45.8887 21.4959 45.8825 21.359 45.8398C21.2221 45.7971 21.1015 45.7196 21.0115 45.6165C20.7218 45.2445 20.0174 45.4872 19.812 44.97C19.6449 44.9596 19.4835 44.9489 19.2794 44.9411C18.7786 44.4843 18.2555 44.0067 17.7467 43.5433H16.7361C16.3286 42.9399 15.7534 43.0865 15.3511 43.1555C14.9833 43.4205 14.7253 43.6089 14.6069 43.693C14.4924 44.0567 14.4275 44.2605 14.3702 44.4415C13.7672 43.8886 13.1911 43.3593 12.5241 42.752V41.1008C12.0811 40.553 11.4444 40.1905 11.0567 39.6504C11.229 39.4603 11.3819 39.2914 11.504 39.1548C11.4707 38.6871 11.5 38.2176 11.5912 37.7564C11.8416 37.5641 12.0806 37.3562 12.0096 37.0084C12.3338 36.6714 12.6723 36.3455 13.0003 35.9581C13.0997 35.8413 12.8948 35.5099 13.183 35.4061C13.4415 35.3155 13.5276 35.6186 13.7231 35.7289C14.0528 35.7885 14.3904 35.8031 14.7248 35.772C15.1058 35.7301 15.4921 35.7583 15.8608 35.8552C16.0057 35.9883 16.1235 36.0952 16.2551 36.2171C16.4274 36.0723 16.6026 35.9271 16.7853 35.7758H18.7696C18.9481 35.9284 19.1285 36.0832 19.2937 36.2237H20.7781C20.9788 36.0603 21.1606 35.9115 21.3296 35.771C21.5133 35.7882 21.6733 35.8042 21.8347 35.8141C22.2039 36.102 22.4633 36.5094 22.9366 36.6892C23.1022 36.6973 23.2681 36.6973 23.4336 36.6892C23.7575 36.6575 24.0851 36.6888 24.3946 36.7814C24.6895 37.052 24.9834 37.3205 25.2878 37.5981H26.2672C26.4527 37.758 26.6321 37.911 26.8158 38.067H27.2944C27.4837 38.2286 27.6655 38.38 27.851 38.5378H29.8865C29.9602 38.69 30.0839 38.8177 30.2405 38.9033C30.3971 38.989 30.579 39.0284 30.7612 39.0161C31.0798 39.2652 31.3293 39.4613 31.5764 39.6544C31.1362 40.0587 30.7243 40.4345 30.3092 40.8138H29.8041C29.575 41.0293 29.3426 41.2448 29.1007 41.4702C29.0875 41.5266 29.0685 41.5973 29.0534 41.6676C28.962 42.1451 28.9355 42.1779 28.4763 42.1887C28.2349 42.1921 27.9916 42.1887 27.8085 42.1887C27.3772 42.521 27.1221 42.9317 26.6435 43.1041H25.8942C25.821 43.1278 25.7521 43.1615 25.6901 43.2041C25.1567 43.6851 24.6275 44.1705 24.0396 44.708V46.0039C24.0396 46.2319 24.0396 46.4607 24.0396 46.6887C24.0396 47.0848 23.942 47.206 23.5032 47.206C23.4317 47.2103 23.3475 47.2068 23.2524 47.2007H23.2528ZM54.3255 36.2237C53.9852 35.8789 53.5965 35.484 53.1525 35.0327C53.1473 34.9836 53.1322 34.8362 53.1151 34.6642C52.966 34.5147 52.8027 34.3475 52.6233 34.1669V31.896C52.7838 31.7373 52.9509 31.571 53.1251 31.4003V30.9719C53.3027 30.7923 53.4667 30.6274 53.6169 30.4771C53.634 30.3047 53.6491 30.1569 53.6614 30.0099C53.9577 29.7392 54.2526 29.4686 54.5565 29.191C54.6588 28.9363 54.5736 28.6009 54.9012 28.4151C55.1535 28.2729 55.1241 28.0376 55.1213 27.7109C55.5033 27.4127 55.9425 27.0644 56.5163 26.617C56.3927 26.6446 56.4689 26.6217 56.5437 26.6097C57.1117 26.5092 57.1065 26.5094 57.1316 26.0926C57.1486 25.8064 57.0118 25.4795 57.3721 25.2476H58.3401C58.5295 25.086 58.7074 24.9332 58.8925 24.7737H59.3758C59.5614 24.9314 59.7408 25.0838 59.9291 25.2476H60.9014C61.2272 25.5935 61.6026 25.898 62.0176 26.1528C62.0976 26.1528 62.18 26.1528 62.2619 26.1528C62.6727 26.1446 63.0851 26.1355 63.3378 26.5583C63.5412 26.5548 63.7421 26.5988 63.9214 26.686C64.1008 26.7733 64.2527 26.9009 64.3626 27.0567H66.3872C66.9079 27.5308 67.4286 28.0049 67.9408 28.4721H68.905C69.1417 28.6519 69.331 28.7924 69.482 28.9031C69.7883 28.9031 70.0397 28.8957 70.2901 28.9065C70.362 28.9087 70.4723 28.938 70.4959 28.9875C70.788 29.5103 71.6287 29.2314 71.898 29.79C71.9151 29.8258 72.0519 29.8258 72.1272 29.8167C72.1862 29.8033 72.2476 29.8015 72.3075 29.8112C72.3674 29.821 72.4243 29.8421 72.4746 29.8733C72.5249 29.9045 72.5674 29.9448 72.5993 29.992C72.6311 30.0392 72.6518 30.092 72.6597 30.1469C72.6919 30.2762 72.6758 30.505 72.5868 30.5615C72.2005 30.7985 72.2081 31.1866 72.0594 31.5163C72.0329 31.5745 71.9378 31.6084 71.8545 31.664H70.9002C70.4136 32.1106 69.9402 32.542 69.4593 32.9825C68.9687 33.0382 68.4736 33.0527 67.9801 33.0257C67.4255 32.9893 66.8681 33.015 66.3205 33.1023L65.9162 33.4708H64.4398L63.8883 33.9449H59.3957C59.212 34.1026 59.0317 34.2553 58.8594 34.4009C58.6818 34.4122 58.5185 34.4186 58.3566 34.4289C57.9855 34.7225 57.7181 35.1251 57.2547 35.3143C57.1049 35.361 56.9491 35.3898 56.7912 35.4004C56.4954 35.6702 56.202 35.9413 55.8919 36.2258L54.3255 36.2237ZM25.3697 29.8878C25.08 29.6245 24.7917 29.3607 24.5177 29.1077V27.7341C24.0197 27.2772 23.5482 26.8473 23.0587 26.3982V25.5128C22.8855 25.3404 22.7203 25.1758 22.5447 25.0003V23.0436C22.8269 23.0385 23.1034 22.9704 23.35 22.8453C23.5966 22.7203 23.8057 22.5421 23.9591 22.3264C24.0717 21.9859 24.1404 21.7854 24.2067 21.5833H26.2525C26.439 21.4255 26.6193 21.273 26.8092 21.1144H28.2965C28.4721 21.2657 28.6524 21.4161 28.8427 21.5786H30.303C30.5009 21.7403 30.6817 21.8906 30.8748 22.0475H31.8088C32.0327 22.2199 32.2145 22.3622 32.3745 22.4867C32.6665 22.4867 32.9179 22.4828 33.1673 22.4867C33.2436 22.4984 33.318 22.5191 33.3884 22.5484C33.443 22.6062 33.5026 22.6598 33.5668 22.7087C33.6927 22.7928 33.8276 22.8665 33.9592 22.9436C34.8037 22.9229 34.8113 22.9229 35.323 23.4005H36.0013C37.3339 23.4005 38.6668 23.3948 39.9993 23.4034C40.1534 23.4219 40.3047 23.4559 40.4504 23.5051C40.5692 23.6141 40.6871 23.7206 40.8045 23.8283C41.6793 23.9145 41.7985 24.1229 41.3427 24.7737H40.3543C39.9155 24.9564 40.2597 25.5189 39.7863 25.699H38.7605C38.6886 25.8913 38.6157 26.092 38.5343 26.3136C38.7445 26.5508 38.9814 26.7675 39.241 26.9601C39.5688 27.1054 39.9129 27.2182 40.2672 27.2964C39.7797 27.6498 39.392 27.9303 39.0564 28.1708V29.1233C38.7875 29.384 38.5594 29.6059 38.3464 29.8167H34.3323C34.1458 29.9745 33.9664 30.128 33.8116 30.2608H32.3252C32.1174 30.094 31.9356 29.9468 31.7969 29.8361H26.7841C26.4191 30.1434 26.2189 30.2942 26.0291 30.2942C25.8426 30.299 25.6679 30.1603 25.3692 29.887L25.3697 29.8878ZM87.4483 24.3202H86.7894V24.3164C86.814 24.1021 86.7749 23.8857 86.6762 23.6899C86.5775 23.494 86.4229 23.3259 86.2285 23.2031V22.2687C86.3535 22.1428 86.5125 21.9776 86.6957 21.791V19.9735C87.0962 19.6063 87.4947 19.2193 87.9264 18.8685C88.0211 18.7883 88.2379 18.8305 88.5214 18.8068C88.8357 18.4741 89.2121 18.071 89.6732 17.5797C89.5932 17.3038 89.8597 17.0332 90.1811 16.7961C90.1924 16.7155 90.2057 16.6449 90.2175 16.5716C90.2681 16.2268 90.3633 16.0798 90.5612 16.0711C90.8854 16.0565 91.2092 16.0584 91.4241 16.0549C91.7555 15.7843 92.0002 15.5841 92.2046 15.4152C92.252 15.1454 92.137 14.8937 92.4532 14.7291C92.6103 14.8502 92.7817 14.9839 92.9592 15.1214C93.4207 14.9792 93.0539 14.4115 93.4752 14.2352H93.9732C94.0565 14.3546 94.2297 14.4883 94.2098 14.5908C94.1152 15.0921 94.9023 15.2575 94.7258 15.7717C94.8858 15.9406 95.0429 16.1087 95.2043 16.2759C95.2602 16.3315 95.3118 16.4109 95.3828 16.4338C95.7502 16.5536 96.1776 16.5566 96.4162 16.9186C96.4441 16.943 96.4779 16.9612 96.5148 16.9719C96.5517 16.9826 96.5908 16.9855 96.6292 16.9803C97.0277 16.9264 97.2062 17.2065 97.4618 17.4241H98.4227C98.6121 17.581 98.7948 17.7296 98.9936 17.8939H101.962L102.507 18.3613H104.491C104.675 18.5173 104.854 18.6715 105.04 18.8301H106.085C106.153 19.0267 106.224 19.2263 106.271 19.3582C105.813 19.7788 105.406 20.1502 104.871 20.6385C104.606 20.6833 104.334 20.6901 104.067 20.6588C103.679 20.6128 103.285 20.6384 102.909 20.7339C102.778 20.8528 102.66 20.9601 102.542 21.067C102.382 21.0817 102.221 21.104 102.061 21.1074C101.916 21.1104 101.769 21.11 101.624 21.1074C101.52 21.1074 101.416 21.1074 101.312 21.1074C100.985 21.1104 100.732 21.2454 100.799 21.3846C100.829 21.4574 100.89 21.5167 100.967 21.55C101.044 21.5833 101.133 21.5881 101.214 21.5635C101.293 21.5382 101.38 21.5387 101.459 21.5649C101.539 21.5912 101.605 21.6415 101.649 21.7074C101.724 21.8135 101.659 21.9097 101.491 22.0351C101.3 22.1734 101.132 22.3367 100.948 22.4958H98.994C98.7843 22.6634 98.6017 22.8113 98.4161 22.9592H90.9479C90.6346 23.2454 90.3396 23.5137 90.0376 23.7909C89.7659 23.9034 89.4133 23.8194 89.1856 24.1009C88.9703 24.3324 88.7368 24.5493 88.4869 24.7499C88.3236 24.7603 88.1612 24.768 87.9852 24.7766C87.8106 24.6278 87.6314 24.4753 87.4474 24.3193L87.4483 24.3202ZM49.404 16.5255C48.7816 15.9743 48.1861 15.448 47.5982 14.9257V14.0144C47.4207 13.8364 47.2573 13.6697 47.1215 13.5361V12.6202C47.3525 12.3831 47.6294 12.2281 47.6162 11.8613C47.6029 11.4945 48.1686 11.3637 48.1283 10.9082C48.1028 10.6147 48.507 10.4513 48.7276 10.2333C49.0116 9.95612 49.3472 9.71621 49.5976 9.41839C49.8343 9.13781 50.2021 9.27271 50.4606 9.10419C50.6087 9.00764 50.6087 8.87432 50.6196 8.70622C50.6418 8.3291 50.6669 8.32623 51.323 8.27796C51.4863 8.14349 51.6667 7.99646 51.8702 7.83138H52.8558C53.0172 7.96973 53.1956 8.1223 53.3764 8.2809H54.86C55.0436 8.1223 55.2249 7.968 55.3944 7.82275H64.8876L65.4343 8.28869H69.4006C69.6013 8.45333 69.7831 8.60066 69.9743 8.75884H70.9073C71.1312 8.93124 71.3139 9.07484 71.4597 9.18647C71.6029 9.20549 71.748 9.20799 71.8919 9.19384C72.182 9.17746 72.4557 9.16051 72.6644 9.42428V10.0371C72.4248 10.0144 72.1829 10.0523 71.9654 10.1465C71.7478 10.2408 71.563 10.388 71.4313 10.5717C70.975 10.5717 70.4803 10.5524 69.9904 10.5855C69.9164 10.6041 69.8487 10.6391 69.7935 10.6876C69.7382 10.7361 69.6973 10.7963 69.6742 10.8629C69.6486 11.1523 69.6442 11.4428 69.6609 11.7327C69.4918 11.825 69.3511 11.9548 69.2518 12.1098C69.1525 12.2649 69.0978 12.4403 69.0929 12.6198C68.8354 12.8939 68.6196 13.1236 68.4388 13.3185C68.2077 13.3288 68.0444 13.3348 67.8972 13.3395C67.7079 13.4981 67.5252 13.6452 67.3316 13.8021H66.4047C66.1775 13.9745 65.9938 14.1157 65.8367 14.2369C64.8743 14.2369 63.9588 14.2368 63.0438 14.2394C62.9672 14.25 62.8928 14.2708 62.8228 14.301C62.7054 14.4079 62.5861 14.5167 62.3968 14.6891C62.0957 14.7059 61.7939 14.7076 61.4926 14.6946C61.1125 14.6747 60.7312 14.6843 60.3528 14.7234L59.8832 15.1544C57.7843 15.1544 55.6278 15.1505 53.4716 15.1544C53.4015 15.1544 53.3329 15.2136 53.2699 15.2407C53.0806 15.3799 52.967 15.6358 52.6806 15.6044C52.2721 15.5582 52.1258 15.8695 51.8655 16.0596H51.3921C51.2056 16.2173 51.0253 16.3726 50.8478 16.523L49.404 16.5255Z" fill="currentColor" fill-opacity="1"/>
</svg>
