<svg width="360" height="116" viewBox="0 0 360 116" fill="none" xmlns="http://www.w3.org/2000/svg">
<path d="M147.085 91.335V91.2771C147.082 88.1737 146.529 85.0725 145.425 82.7182L140.6 73.6767C137.89 69.2185 134.662 61.4243 133.426 56.3556L130.443 46.5502C128.67 41.645 123.203 36.1788 118.297 34.405L108.492 31.4224C103.425 30.1868 95.6299 26.9592 91.1714 24.2492L82.1298 19.4234C77.4053 17.2098 69.6761 17.2098 64.9525 19.4234L55.9119 24.248C51.4548 26.959 43.6594 30.1867 38.5908 31.4224L28.7851 34.405C23.879 36.1786 18.4132 41.645 16.6388 46.5502L13.6565 56.3556C12.4204 61.4243 9.19182 69.2187 6.48203 73.6767L1.65808 82.7169C0.563999 85.051 0.0127771 88.1192 0 91.1962V91.4153C0.0127771 94.4921 0.564593 97.5608 1.65808 99.8952L6.48276 108.936C9.19254 113.394 12.421 121.187 13.6573 126.257L16.6388 136.06C18.4132 140.966 23.879 146.432 28.7851 148.207L38.5894 151.188C43.6579 152.425 51.4525 155.653 55.9104 158.364L64.9522 163.187C69.6758 165.402 77.4057 165.402 82.1295 163.187L91.1711 158.363C95.6296 155.653 103.424 152.425 108.492 151.188L118.297 148.207C123.203 146.432 128.669 140.967 130.443 136.062L133.425 126.257C134.661 121.188 137.89 113.394 140.599 108.936L145.425 99.8945C146.529 97.5395 147.082 94.4383 147.085 91.335Z" fill="currentColor" fill-opacity="1"/>
<path d="M269.749 78.7217L251.309 68.8852C246.896 66.2014 240.88 63.2693 234.674 60.6738L236.064 56.1029C239.522 46.543 250.174 35.8897 259.735 32.4333L278.844 26.6202C288.722 24.2125 303.914 17.9219 312.599 12.6377L330.218 3.235C339.424 -1.07833 354.489 -1.07833 363.693 3.235L381.314 12.6401C387.009 16.1017 395.497 19.9967 403.451 22.948L403.314 23.3981C399.696 33.4025 388.547 44.5481 378.543 48.1696L358.544 54.2502C348.208 56.7722 332.311 63.3551 323.218 68.8819L304.778 78.7214C299.96 80.98 293.611 82.1098 287.261 82.1098C280.911 82.1098 274.566 80.9803 269.749 78.7217Z" fill="#008060" fill-opacity="0.1"/>
</svg>
