<svg width="570" height="211" viewBox="0 0 570 211" fill="none" xmlns="http://www.w3.org/2000/svg">
<path d="M26.2297 -67.8713C28.4587 -64.2023 31.4081 -62.8588 33.6614 -59.0481C39.3475 -49.6088 44.1446 -38.2236 47.8278 -25.4268C52.7258 -8.22742 56.4953 10.1382 61.697 26.9647C65.5534 39.4365 69.7226 51.5247 73.8079 63.7113C76.0939 70.5295 78.3792 77.3682 80.8754 83.8789C82.8652 89.416 85.3896 94.104 88.3004 97.668C89.5224 99.0767 90.1688 102.181 91.3701 104.158C96.0487 111.886 101.508 117.1 106.598 123.474C112.309 130.62 117.391 139.382 122.647 147.699C125.95 152.617 129.547 156.695 133.356 159.837C141.275 167.025 149.379 173.37 157.634 178.844C165.808 184.169 174.192 188.179 182.424 193.167C188.29 196.721 194.334 198.273 200.319 200.508C201.279 201.107 202.316 200.965 203.225 200.111C203.827 201.229 204.619 200.983 205.337 201.264C210.554 203.687 215.92 203.196 221.186 204.432C226.538 205.566 231.928 205.819 237.302 205.188C243.462 204.607 249.618 203.916 255.787 203.869C255.682 203.525 255.586 203.168 255.502 202.801C255.587 203.168 255.682 203.524 255.787 203.869C256.607 204.303 257.474 204.228 258.272 203.655C259.218 203.243 260.2 204.331 261.134 203.389C261.364 203.537 261.606 203.593 261.846 203.554C262.087 203.515 262.321 203.381 262.536 203.161C264.722 204.038 266.973 204.044 269.16 203.178L269.601 202.848C271.649 203.159 273.717 203.204 275.74 203.828C287.255 207.385 298.743 211.301 310.468 210.745C316.477 210.46 322.502 210.952 328.456 208.731C329.297 209.815 330.1 209.068 330.906 208.513L331.891 208.375C333.263 208.318 334.633 208.094 335.991 207.704C344.859 204.128 353.741 200.67 362.566 196.688C372.356 192.269 382.14 187.743 391.806 182.268C395.68 180.072 399.573 178.003 403.456 175.879C407.964 172.827 412.628 170.751 417.045 167.14C416.923 166.644 416.745 166.212 416.525 165.878C416.745 166.213 416.923 166.646 417.045 167.141C419.868 166.543 422.494 164.453 425.188 162.869C428.158 160.333 431.407 159.358 434.304 156.405C434.757 156.237 435.212 156.075 435.665 155.909C436.592 155.134 437.495 154.345 438.389 153.565L435.689 155.922L435.844 156.837L442.153 151.334L445.938 148.034L450.564 143.998C450.481 143.717 450.399 143.439 450.317 143.152L451.064 141.628C452.195 140.2 453.96 140.072 453.867 136.142L454.684 135.384L455.537 134.659L463.44 122.733C465.7 120.026 467.961 117.32 470.221 114.614C473.57 110.766 476.925 106.938 480.262 103.061C480.762 102.391 481.238 101.654 481.687 100.854C481.389 99.9899 481.127 99.0302 480.826 98.1804C481.124 99.0302 481.387 99.988 481.687 100.854C483.34 99.6812 484.834 97.7616 486.053 95.2457C490.197 90.5421 493.937 84.5441 497.129 77.4799C497.576 77.0551 498.045 76.6805 498.199 75.5923C501.913 69.8855 505.375 63.5547 508.548 56.6694C509.849 53.9879 511.027 51.0791 512.262 48.2579C512.486 47.761 512.711 47.2643 512.937 46.7673C514.94 43.3893 516.793 39.6715 518.475 35.6558C519.448 34.0884 520.217 32.076 520.717 29.7897C523.6 27.1381 525.668 22.5989 527.63 17.8304L527.836 17.6553L528.035 17.4521C527.987 17.0087 527.936 16.5671 527.884 16.1255C527.936 16.5671 527.987 17.0087 528.035 17.4521L532.63 11.2004C534.053 9.29395 535.569 7.67957 537.155 6.38171L541.203 2.02307L542.019 1.27783C541.947 0.255249 541.909 -0.775513 541.904 -1.80798C541.909 -0.775513 541.947 0.255249 542.019 1.27783C544.963 -1.80701 547.619 -5.87805 549.872 -10.7578L550.851 -13.3182C554.488 -17.9897 556.538 -25.0336 558.151 -32.735C559.359 -35.8424 560.277 -39.3591 560.86 -43.1161C560.426 -42.7891 559.955 -42.7168 559.502 -42.9084C559.049 -43.1 558.633 -43.5472 558.303 -44.1968C558.632 -43.547 559.048 -43.0996 559.501 -42.908C559.954 -42.7163 560.426 -42.7887 560.859 -43.1161C562.626 -46.746 564.584 -50.0459 565.851 -54.5479C567.496 -56.7161 568.767 -59.8379 569.495 -63.4923C568.869 -63.8628 568.216 -64.0142 567.564 -63.9396C568.216 -64.0148 568.868 -63.864 569.494 -63.4941C572.358 -70.2657 572.944 -78.8953 574.289 -86.9061C574.83 -91.9746 577.02 -96.0087 576.614 -101.675C578.111 -106.033 579.071 -111.033 579.417 -116.27C580.32 -117.03 580.394 -118.707 580.544 -120.298L586.022 -141.019C585.753 -141.051 585.493 -141.214 585.263 -141.493C585.493 -141.213 585.754 -141.051 586.023 -141.021C587.438 -145.402 588.58 -150.111 589.424 -155.043C591.747 -161.938 593.908 -168.993 594.562 -177.415C595.008 -178.139 595.352 -179.081 595.561 -180.148C595.77 -181.215 595.837 -182.372 595.755 -183.507C597.588 -191.84 599.465 -200.142 600.135 -209.261C600.515 -210.232 600.795 -211.344 600.96 -212.532C601.124 -213.72 601.169 -214.961 601.091 -216.184C600.858 -216.064 600.624 -215.833 600.422 -215.738C600.623 -215.831 600.858 -216.062 601.091 -216.184C602.38 -221.501 603.134 -227.271 603.311 -233.167C604.682 -236.476 604.665 -240.561 604.899 -244.504C605.471 -249.673 606.148 -254.806 606.572 -260.022C606.809 -262.925 607.445 -265.985 606.572 -268.944C607.762 -274.975 608.235 -281.473 607.954 -287.93C607.69 -288.28 607.411 -288.586 607.121 -288.843C607.41 -288.585 607.689 -288.281 607.954 -287.932C608.259 -289.169 608.399 -290.542 608.361 -291.918C608.771 -306.307 609.039 -320.7 609.053 -335.121C609.053 -339.627 608.25 -344.105 609.077 -348.687C610.365 -354.985 611.407 -361.472 612.193 -368.09C612.724 -373.557 613.796 -378.917 613.2 -384.664C613.401 -389.041 611.921 -392.255 611.238 -396.019C610.195 -400.421 609.521 -405.134 609.24 -409.97C609.045 -413.736 608.736 -417.474 608.316 -421.166C606.888 -431.681 605.165 -442.136 604.752 -453.05C604.325 -462.857 603.521 -472.584 602.347 -482.146C600.665 -496.548 598.085 -510.436 597.322 -525.386C596.772 -537.892 595.875 -550.328 594.637 -562.637C593.358 -574.505 592.395 -586.556 589.675 -597.55C585.745 -613.447 583.977 -630.849 580.773 -647.242L580.063 -652.686C579.111 -654.406 579.845 -657.032 579.222 -658.929C579.114 -665.559 577.793 -671.6 576.576 -677.526C573.967 -690.212 572.484 -703.546 570.482 -716.577C570.138 -718.813 569.225 -720.863 569.607 -723.5L567.217 -734.41L566.482 -737.764L558.762 -773.012C558.394 -774.69 558.026 -776.367 557.659 -778.043C557.292 -779.719 556.924 -781.396 556.555 -783.075C556.003 -785.591 555.452 -788.109 554.9 -790.627L552.878 -799.858C547.915 -822.518 542.951 -845.178 537.988 -867.837C535.133 -875.889 531.344 -882.143 527.805 -888.869C527.675 -888.716 527.56 -888.52 527.465 -888.288C527.561 -888.52 527.676 -888.716 527.806 -888.869C527.226 -890.259 526.607 -891.583 525.953 -892.835C523.711 -896.712 521.735 -901.384 518.686 -902.966C517.334 -910.871 513.688 -914.292 510.758 -919.112C510.688 -919.441 510.585 -919.739 510.456 -919.988C510.327 -920.237 510.174 -920.432 510.007 -920.562C509.84 -920.693 509.662 -920.756 509.483 -920.747C509.303 -920.739 509.126 -920.66 508.963 -920.514C508.682 -919.632 508.921 -918.721 508.937 -917.844C508.921 -918.719 508.683 -919.629 508.963 -920.514C508.594 -921.542 508.539 -923.061 507.791 -923.495C506.23 -928.366 503.746 -930.602 501.206 -932.68C500.603 -934.035 499.941 -935.304 499.404 -936.755C495.2 -948.111 490.022 -957.644 485.076 -967.615C485.006 -967.9 484.935 -968.185 484.865 -968.472C482.583 -979.241 479.846 -989.538 474.962 -996.455C469.997 -1003.21 464.859 -1009.45 459.567 -1015.14C449.412 -1026.56 438.557 -1034.95 427.991 -1044.58C420.611 -1051.31 412.752 -1055.26 404.874 -1058.84C402.456 -1059.94 400.068 -1062.14 397.465 -1061.23C393.547 -1064.4 389.325 -1064.75 385.246 -1066.41C383.184 -1067.25 381.136 -1068.88 378.955 -1068.02C378.003 -1069.97 376.812 -1069.27 375.685 -1069.25C376.467 -1067.97 377.163 -1066.49 377.756 -1064.85C377.163 -1066.49 376.467 -1067.97 375.685 -1069.25C374.319 -1070.62 372.798 -1071.26 371.272 -1071.1C362.535 -1075.89 353.667 -1079.67 344.711 -1082.41C341.92 -1083.24 339.119 -1085.67 336.21 -1083.53C332.269 -1088.27 327.752 -1086.35 323.522 -1087.7C321.356 -1088.46 319.142 -1088.51 316.968 -1087.85C315.507 -1088.67 313.968 -1088.76 312.484 -1088.13C310.145 -1088.5 307.793 -1088.36 305.47 -1087.72C303.079 -1087.76 300.698 -1087.11 298.403 -1085.77C295.797 -1084.87 293.083 -1084.85 290.721 -1081.99C288.9 -1082.05 287.089 -1081.41 285.39 -1080.11C277.381 -1073.75 269.538 -1066.59 261.893 -1058.65C256.314 -1052.96 250.402 -1049.41 244.43 -1045.93C240.288 -1043.5 236.14 -1040.95 231.992 -1038.73C225.93 -1035.36 219.991 -1031.16 214.217 -1026.17C212.855 -1025.14 211.526 -1023.94 210.235 -1022.6C211.526 -1023.94 212.855 -1025.14 214.217 -1026.17C214.17 -1026.48 214.123 -1026.8 214.075 -1027.11L206.926 -1020.87L193.049 -1008.76L188.423 -1004.73C186.946 -1001.85 185.046 -1000.28 183.315 -998.195C177.756 -991.917 172.198 -985.644 166.639 -979.375C162.932 -975.201 159.21 -971.085 155.506 -966.89C147.151 -957.443 139.008 -947.39 132.133 -933.781C131.947 -933.308 131.79 -932.792 131.666 -932.244C131.085 -931.685 130.392 -931.411 130.171 -929.922C128.7 -928.036 127.336 -925.835 126.104 -923.359C123.781 -920.011 121.677 -916.099 119.838 -911.715C117.409 -906.415 114.438 -902.047 112.606 -895.667C111.541 -893.319 110.074 -891.584 109.726 -888.145C108.881 -887.407 108.153 -886.224 107.62 -884.723C105.769 -880.108 103.873 -875.54 102.214 -870.657C99.5733 -862.879 96.2813 -856.025 94.0756 -847.643C93.8788 -847.064 93.6819 -846.486 93.4851 -845.907C92.4285 -844.669 92.309 -842.165 91.6224 -840.43C91.8399 -840.239 92.0456 -839.999 92.2352 -839.713C92.0459 -839.998 91.8405 -840.238 91.6233 -840.428C90.8545 -839.497 91.343 -837.769 91.002 -836.571C89.1131 -835.606 88.6815 -832.296 88.0603 -829.291C87.523 -827.845 87.0286 -826.337 86.5796 -824.776C84.8719 -818.026 82.3821 -811.957 82.0018 -804.043C79.7551 -799.48 79.2732 -793.275 78.1717 -787.646C78.2894 -787.091 78.4071 -786.537 78.5248 -785.983C77.4878 -785.4 77.3224 -784.14 77.826 -782.363C77.2225 -781.955 77.1937 -780.98 77.2058 -779.966C77.1133 -779.916 77.0321 -779.805 76.9759 -779.65C76.2583 -777.426 75.7609 -774.949 75.511 -772.353C73.0605 -761.53 71.3931 -750.126 69.2696 -739.059C68.242 -737.499 68.4699 -734.991 68.0953 -732.934C66.154 -725.881 64.606 -718.399 62.2471 -711.803L57.1222 -703.231C57.1838 -703.092 57.2398 -702.955 57.2996 -702.818C57.2408 -702.955 57.1838 -703.092 57.1222 -703.231C54.1056 -698.77 50.7826 -695.166 47.9379 -690.217C45.9415 -688.727 44.6776 -685.346 43.0886 -682.805C42.9176 -681.394 43.7526 -679.206 43.1818 -678.107C43.0629 -677.894 42.9204 -677.74 42.7661 -677.656C42.9204 -677.74 43.0629 -677.894 43.1818 -678.107C43.7545 -679.206 42.9185 -681.394 43.0886 -682.805C42.028 -681.724 41.1704 -679.99 40.6436 -677.859C36.121 -668.351 32.8231 -656.796 31.0326 -644.186C29.351 -632.325 26.3764 -621.48 23.8933 -610.253C21.9219 -602.057 20.1874 -593.642 18.6981 -585.05C16.5999 -571.606 14.1066 -558.404 12.2905 -544.775C10.2577 -529.523 8.01829 -514.424 6.59176 -498.803C5.59402 -487.877 4.84103 -476.917 4.18896 -465.951C3.3108 -451.215 2.9335 -436.36 2.37391 -421.549C1.88003 -408.488 1.41292 -395.423 0.9726 -382.353C0.372839 -364.147 0.569835 -345.901 0.28677 -327.682C0.15785 -319.297 0.16255 -310.936 0.246628 -302.577C0.43347 -283.911 -0.200771 -265.254 0.42795 -246.572C1.01557 -229.138 2.27103 -211.899 3.70224 -194.721C4.9083 -180.227 6.75705 -165.952 8.09296 -151.49C9.76283 -133.884 12.39 -116.693 15.9274 -100.222C18.4171 -88.3503 21.0439 -76.4001 26.2297 -67.8713Z" fill="currentColor" fill-opacity="1"/>
</svg>
