<svg width="86" height="206" viewBox="0 0 86 206" fill="none" xmlns="http://www.w3.org/2000/svg">
<path d="M74.6654 0.00056789C73.7363 1.43721 72.7864 2.91922 71.7208 3.78045C63.5152 10.4098 53.8909 18.4176 49.4645 28.1232C48.5231 30.1876 44.5459 32.8239 43.1707 34.48C39.1192 39.3529 36.584 45.9336 32.8944 51.6959C31.0083 54.6434 28.3386 56.5058 26.4528 59.4503C25.6985 60.6311 26.4812 62.3213 25.9965 63.6372C24.9729 66.4332 22.1682 67.7762 21.0844 70.1502C19.7857 73.0014 19.8951 75.3627 18.7877 78.3805C18.0673 80.3423 16.1297 81.6882 15.4104 83.6503C14.6629 85.6856 15.5465 88.6625 14.6487 90.6339C6.9759 107.454 5.12992 126.603 3.02799 145.878C2.55376 150.225 -1.02263 167.429 0.286344 171.015L5.67746 185.765C6.16079 187.086 5.03295 188.566 5.22031 189.957C5.61238 192.867 8.25421 193.664 8.75659 196.016C8.89874 196.69 9.07413 197.357 9.25837 198.027C9.28197 197.757 9.32662 197.658 9.34368 197.31C9.50687 189.891 12.0558 199.071 12.7606 194.394C12.7264 193.257 15.1923 186.327 12.6579 190.34C9.72636 191.633 12.6864 185.786 10.2074 188.796C9.0591 182.338 7.3447 192.634 6.43745 191.987C5.22202 187.68 8.05007 179.649 10.8415 179.592C12.9761 179.051 5.19047 185.01 9.11399 184.693C11.8903 181.864 10.7346 180.357 12.0973 183.91C12.2787 184.159 14.0778 189.656 13.9191 183.532C14.2304 179.91 14.0898 173.652 15.3214 180.597C13.3912 184.269 17.3187 186.267 14.4491 185.819C14.8426 189.819 16.2201 189.987 17.5342 188.238C19.5497 189.842 19.7615 184.842 19.9204 183.022C20.2291 182.992 20.539 183.066 20.8018 183.235C20.8586 183.137 20.9678 183.099 21.1916 183.256C21.1733 183.363 21.1238 183.463 21.0494 183.542C21.4591 184.59 19.8382 186.951 22.8192 187.666C23.2545 189.53 26.672 179.167 22.9302 186.595C20.2983 186.443 25.9763 180.728 22.3061 180.606C21.1501 177.989 23.4883 173.035 21.7787 171.495C19.2199 176.344 22.1591 165.88 22.8505 165.463C25.2274 164.615 26.3621 162.556 25.3721 167.944C21.8634 171.258 26.9074 162.872 22.8039 167.492C21.9635 172.495 24.7427 170.933 26.1907 170.065C30.2134 174.082 29.3721 166.009 27.1363 168.042C27.998 162.859 27.88 165.129 29.6354 167.285C28.7316 161.195 31.6352 169.528 34.0823 169.947C36.294 173.104 35.0774 163.4 33.1878 168.482C32.655 166.191 29.5424 163.181 29.8045 162.63C30.0991 160.066 33.5743 161.082 33.3016 158.169C34.0528 163.609 35.5292 156.437 35.0225 159.832C38.5557 161.184 33.1725 169.355 37.5697 164.309C39.2096 162.022 40.5536 165.53 39.7615 160.542C42.111 156.793 42.1312 161.589 44.8524 157.207C44.8655 153.79 45.2748 151.689 47.824 153.327C47.8308 150.451 51.1749 152.633 48.1612 150.073C45.5799 154.469 48.5067 142.423 50.5196 148.372C49.7033 153.501 52.4052 141.868 52.8629 148.517C53.2359 154.87 55.9827 160.351 50.3629 166.285C48.4057 168.589 45.9805 171.58 47.4914 172.688C50.7877 168.441 54.3237 163.789 57.3092 159.729C58.2048 156.174 59.6477 151.866 62.0999 146.56C64.891 143.273 64.2422 138.383 65.6183 134.796C65.2487 131.178 63.1484 122.215 63.3102 131.368C62.2207 134.547 63.6099 144.45 60.4821 136.261C61.071 142.492 59.2127 147.86 56.8714 152.12C52.891 159.895 54.54 150.453 55.2599 147.661C54.7891 142.786 52.4996 151.557 52.8655 144.634C57.0309 145.451 57.1827 142.292 57.0067 139.265C56.694 143.2 49.5677 142.609 53.4961 140.656C52.4572 136.721 52.389 134.679 54.0439 136.415C54.9091 135.816 52.0039 126.919 54.3012 133.126C56.6158 132.66 56.9621 138.626 58.2935 133.293C54.9651 136.448 56.1578 126.438 58.8408 131.923C62.5591 136.799 59.9025 121.181 56.3585 127.188C55.8951 122.764 57.6683 121.42 57.5188 115.727C52.7955 112.947 59.6713 112.83 56.1927 109.132C54.8693 108.63 56.6778 113.894 54.6353 108.987C52.518 116.339 55.7174 115.58 56.0637 120.376C52.9078 120.161 55.3475 123.495 53.6888 123.007C53.0753 128.232 52.6209 124.657 52.1166 123.087C51.4627 126.483 53.4898 130.108 51.107 128.159C51.4408 130.7 50.6867 136.226 48.1441 132.646C45.4716 129.938 51.2181 128.136 48.2559 131.084C51.3955 133.859 50.5531 121.688 48.0176 127.439C44.8734 126.911 53.494 123.463 47.2315 123.272C47.9789 118.638 46.6851 111.027 45.8207 108.613C48.3548 111.573 42.332 98.6307 47.7683 105.037C51.3671 111.076 46.1622 102.426 48.8845 102.136C53.1716 102.414 49.5614 97.7585 48.866 100.705C48.1646 95.7763 50.925 96.8376 52.3915 97.1865C50.2725 93.3313 54.1122 95.451 52.6144 98.5371C52.5615 99.3024 56.3625 101.578 54.6822 97.4134C56.9283 94.4058 53.6979 93.9448 52.576 91.9409C54.3868 87.048 51.0674 89.2581 52.0267 85.1346C50.0786 81.1896 50.1855 80.3565 47.3489 76.2274C47.5081 73.9202 42.9099 73.7377 45.3061 76.3461C45.2305 80.1867 46.5003 86.3918 46.332 88.7034C52.1018 86.3593 48.3582 88.8621 47.7276 94.1853C50.1102 97.8361 47.0655 104.513 44.9269 101.842C43.5781 100.236 47.1988 98.2914 44.7193 94.6601C41.5231 91.2823 39.2707 87.1809 40.0131 81.3456C39.948 74.6305 38.9651 65.8482 42.9569 60.0458C47.9056 60.4237 38.8735 72.5008 45.7445 67.8108C46.9955 68.8901 45.1412 62.0636 48.769 65.7339C54.1869 64.2452 46.3604 58.8806 50.2191 59.8131C54.2847 55.4784 56.1979 58.3255 59.7603 53.5617C60.3193 56.8368 60.7693 67.101 63.8092 59.5398C66.488 56.1481 63.7578 55.0173 63.0626 53.797C63.5206 51.9687 62.8454 42.0198 62.5776 36.5716C64.2078 31.9875 64.0599 22.3597 65.662 20.6873C67.8982 26.2582 67.2503 31.3774 68.2399 35.0363C74.1821 31.8426 67.1797 25.9957 69.6169 21.2956C67.6477 18.5933 67.8004 7.86619 70.8678 15.6964C71.5476 21.2536 76.3684 25.3999 74.2463 31.209C74.2833 36.4834 77.4397 29.3083 76.6477 36.6C74.6748 35.8693 73.0746 41.9125 73.0954 35.6932C73.5321 30.7721 70.0678 45.6612 75.2909 40.8291C81.8648 43.5607 83.5203 35.9997 85.2598 31.2888C81.183 34.9788 80.7563 23.1155 77.3075 21.3666C79.3958 15.9239 83.8274 13.3566 77.1338 9.70411C77.5182 6.19202 75.9994 3.0335 74.6631 0L74.6654 0.00056789ZM21.0485 183.541C20.9986 183.416 20.9124 183.309 20.8015 183.235C20.6849 183.441 20.8586 183.828 21.0485 183.541ZM82.3049 18.6708C81.5122 18.5254 81.4633 23.6705 83.3054 21.0618C82.917 19.3573 82.5699 18.7192 82.3049 18.6712V18.6708ZM85.9631 24.8266C85.7217 24.8705 84.371 29.1239 85.9063 25.618C86.0172 25.0306 86.0208 24.8187 85.9631 24.8272V24.8266ZM72.7594 31.1418C72.6921 31.1845 72.6398 31.2479 72.6099 31.3229C72.5801 31.3978 72.5742 31.4805 72.5931 31.5591C72.6121 31.6377 72.6549 31.708 72.7154 31.7601C72.7759 31.8123 72.8511 31.8435 72.93 31.8493C72.9712 31.273 72.8637 31.1125 72.7594 31.1421V31.1418ZM66.1727 39.3486C65.7369 39.3195 66.1423 40.6207 66.4107 39.4556C66.3418 39.3993 66.2598 39.3624 66.1727 39.3486ZM74.0749 43.6039C72.7793 43.4481 73.2603 46.9395 74.3763 43.9493L74.7402 43.9222C74.55 43.7575 74.3204 43.6478 74.0749 43.6042V43.6039ZM68.0555 45.4542C67.9667 45.4441 67.8564 46.3248 68.1248 45.8415C68.1143 45.5583 68.0842 45.4577 68.0555 45.4545V45.4542ZM74.693 46.7399C74.063 46.6065 73.7584 47.5119 74.7214 50.1128C75.0009 51.0455 75.4131 52.7355 76.1359 53.1347C77.6891 50.0942 75.7415 46.9656 74.693 46.7402V46.7399ZM68.6684 46.8703C68.4125 46.9834 68.559 47.6079 69.0628 46.9976C68.8882 46.8566 68.7551 46.8325 68.6684 46.8706V46.8703ZM68.3474 47.5811C68.2604 47.5712 68.1416 48.4563 68.4114 47.974C68.4031 47.6855 68.3764 47.5849 68.348 47.5814L68.3474 47.5811ZM67.9036 48.7974C67.1982 48.7201 65.1577 53.6874 67.9346 51.0278C68.2254 49.412 68.137 48.8239 67.9038 48.7977L67.9036 48.7974ZM66.1693 53.2626C65.9032 53.3748 66.057 54.4806 66.5389 53.5292C66.48 53.4329 66.4026 53.3497 66.3115 53.2847C66.2915 53.2691 66.268 53.2588 66.2432 53.2549C66.2183 53.2511 66.1929 53.2537 66.1693 53.2626ZM57.0943 59.3189C57.0717 59.3022 57.045 59.2922 57.0172 59.2902C56.9893 59.2881 56.9615 59.294 56.9368 59.3072C56.6917 59.4572 56.8436 60.4976 57.3167 59.5669C57.2598 59.4703 57.1839 59.3868 57.0937 59.322L57.0943 59.3189ZM51.0174 61.0207C50.3635 61.1512 49.9208 62.5157 51.6665 61.4352C51.4772 61.0666 51.2358 60.9745 51.0183 61.0207H51.0174ZM51.6304 63.2197C51.3162 63.1543 52.1024 64.7317 52.3742 63.9757C51.9665 63.4442 51.7362 63.2403 51.6304 63.2197ZM51.9892 69.2594C51.532 69.2759 51.6088 70.0154 52.6087 69.5551C52.4456 69.3812 52.2251 69.2758 51.99 69.2594H51.9892ZM47.4348 70.8783C47.1772 70.9655 47.0524 72.9464 47.7151 71.6191C47.6262 71.0306 47.5226 70.8498 47.4356 70.8783H47.4348ZM44.7338 72.4144C44.4728 72.3196 44.2849 73.1552 44.9897 72.8939C44.9175 72.5769 44.8234 72.4449 44.7355 72.4144H44.7338ZM56.0845 88.2076C55.1434 88.0445 55.4391 90.4624 57.4207 89.4561C56.8515 88.6059 56.3986 88.2637 56.0861 88.2079L56.0845 88.2076ZM47.0271 88.8473C46.161 89.1291 46.7877 91.9311 48.2576 89.5207C48.0439 89.267 47.7839 89.0581 47.4922 88.906C47.3495 88.8285 47.1838 88.8078 47.0271 88.8479V88.8473ZM53.6857 91.5444C53.5942 91.5371 53.4722 92.4126 53.7494 91.9311C53.7437 91.6494 53.7167 91.5484 53.6877 91.5449L53.6857 91.5444ZM56.8075 99.7894C56.3093 99.7313 56.5609 100.921 57.0662 99.8958C56.9897 99.8404 56.9017 99.8043 56.8091 99.79L56.8075 99.7894ZM50.1594 102.595C49.7613 102.704 49.7514 104.613 50.6686 103.272C50.471 102.719 50.2941 102.557 50.1614 102.595L50.1594 102.595ZM55.1917 103.618C54.9332 103.717 54.5161 104.403 53.5697 106.35C48.4054 111.826 56.4753 107.059 56.9103 104.97C55.6267 104.94 55.6267 103.458 55.194 103.619L55.1917 103.618ZM50.4525 105.196C50.1463 105.15 50.0118 105.561 50.1047 105.719C49.703 106.024 50.2122 111.235 50.9213 107.897C50.5676 106.362 50.3328 105.837 50.1798 105.758C50.2785 105.783 50.4482 105.693 50.7143 105.326C50.6404 105.259 50.5498 105.213 50.4525 105.195V105.196ZM47.3572 109.575C46.9131 109.546 47.3472 110.852 47.6057 109.684C47.534 109.627 47.4492 109.59 47.3594 109.576L47.3572 109.575ZM48.9635 109.763C48.9539 110.376 46.4283 114.538 49.5737 112.472C49.9958 113.364 50.5543 114.182 51.2281 114.895C50.879 114.662 51.0487 117.983 51.7839 116.799C51.5519 115.587 51.3859 115.076 51.2608 114.932C51.8624 115.591 52.6146 116.088 53.45 116.378C53.2896 112.6 48.5814 113.113 48.9658 109.764L48.9635 109.763ZM52.4577 112.52C52.2019 112.58 52.2329 113.464 52.8006 112.822C52.6645 112.57 52.5445 112.5 52.46 112.52L52.4577 112.52ZM70.7191 116.282C70.6293 116.272 70.4977 117.154 70.778 116.671C70.7749 116.387 70.7521 116.286 70.7214 116.283L70.7191 116.282ZM48.9297 116.589C48.6778 116.732 48.6121 118.436 49.2251 117.135C49.1213 116.671 49.0147 116.543 48.9319 116.591L48.9297 116.589ZM51.3433 118.645C51.2932 118.594 51.2525 118.602 51.2227 118.637C51.0476 118.857 51.2457 120.297 51.5309 118.971C51.4867 118.853 51.4233 118.742 51.3433 118.645ZM57.8324 119.881C57.454 119.881 57.8205 120.799 58.4775 120.28C58.3122 120.079 58.0862 119.939 57.8347 119.882L57.8324 119.881ZM52.539 119.486C50.8991 119.113 49.699 125.78 53.2586 120.134C53.1125 119.829 52.8541 119.596 52.5402 119.487L52.539 119.486ZM58.6234 122.655C58.3675 122.713 58.3959 123.602 58.9645 122.961C58.8283 122.711 58.7098 122.635 58.6245 122.655H58.6234ZM68.978 125.466C68.7693 125.252 68.2274 127.367 69.04 125.718C69.0439 125.63 69.0227 125.542 68.9788 125.466H68.978ZM69.7988 129.743C69.233 129.845 68.4424 131.455 70.0161 131.79C70.4013 130.164 70.1392 129.684 69.7997 129.743H69.7988ZM49.6248 132.279C49.1415 132.061 49.4352 133.948 49.8807 132.518C49.8146 132.42 49.7274 132.338 49.6257 132.279H49.6248ZM59.8991 134.518C59.397 134.396 59.1846 136.222 60.454 135.459C60.2684 134.813 60.0674 134.554 59.8999 134.516L59.8991 134.518ZM58.6398 134.46C58.3896 134.52 58.4161 135.395 58.9728 134.759C58.838 134.509 58.724 134.436 58.6407 134.457L58.6398 134.46ZM57.7699 137.374C57.6812 137.367 57.5725 138.241 57.8398 137.756C57.8321 137.473 57.8017 137.375 57.7715 137.371L57.7699 137.374ZM54.8176 140.744C54.5546 140.853 54.6572 141.484 55.2011 140.873C55.0359 140.724 54.9059 140.706 54.8187 140.741L54.8176 140.744ZM51.6156 150.03C51.0803 150.014 51.2358 154.163 52.0989 150.85C51.9028 150.259 51.741 150.033 51.6167 150.028L51.6156 150.03ZM50.8841 154.6C50.3391 154.628 49.4861 156.126 50.1281 157.157L50.8104 157.427L51.1459 156.545C51.4302 155.092 51.2136 154.581 50.8855 154.6H50.8841ZM35.2955 161.256C34.9495 161.561 34.4945 163.811 35.5456 161.83C35.5172 161.267 35.4117 161.154 35.2963 161.254L35.2955 161.256ZM34.2068 161.323C34.1766 161.299 34.1398 161.286 34.1017 161.286C34.0637 161.285 34.0265 161.297 33.9956 161.32C33.5407 161.606 33.2544 163.659 34.6674 163.559C34.6208 162.1 34.4189 161.473 34.2065 161.324L34.2068 161.323ZM45.8472 164.308C45.5856 164.213 45.3969 165.058 46.1011 164.794C46.0295 164.474 45.9336 164.339 45.848 164.305L45.8472 164.308ZM32.4845 165.066C32.17 165.191 31.8741 166.883 32.7628 165.625C32.6989 165.152 32.5917 165.019 32.4853 165.063L32.4845 165.066ZM35.919 166.62C35.8303 166.613 35.7199 167.491 35.9866 167.008C35.9787 166.722 35.9491 166.621 35.9198 166.617L35.919 166.62ZM32.5595 169.778C32.3011 169.832 32.1101 171.34 32.8095 170.352C32.7387 169.902 32.6459 169.755 32.5604 169.775L32.5595 169.778ZM30.4633 170.382C30.3905 170.523 30.1483 171.226 29.5919 172.84C28.8072 173.389 27.7243 172.937 27.3009 173.924C25.806 178.277 25.8313 166.578 24.2682 173.301C30.5415 175.815 22.2279 182.439 27.2978 179.875C28.7557 179.969 27.6566 175.844 30.4892 174.762C29.3835 174.581 30.6837 169.954 30.4642 170.379L30.4633 170.382ZM42.8121 171.865C42.5847 172.04 42.2205 173.589 42.9489 172.212C42.9533 172.102 42.937 171.991 42.9008 171.887C42.8761 171.843 42.846 171.839 42.8136 171.865H42.8121ZM31.2568 170.793C30.0502 170.428 30.5404 174.683 32.3679 171.924C31.9045 171.201 31.5363 170.872 31.2574 170.789L31.2568 170.793ZM45.4861 173.153C44.6431 172.767 42.6825 175.815 45.7295 174.96C45.9231 173.792 45.7676 173.279 45.4867 173.149L45.4861 173.153ZM42.2904 173.935C41.7463 173.819 41.2604 174.56 40.0034 175.616C37.4682 172.291 35.5449 178.752 33.603 178.87C31.4235 182.796 33.0736 186.687 36.8609 186.016C38.6768 182.986 41.6681 179.345 44.9476 177.368C43.4422 175.017 42.836 174.047 42.2907 173.932L42.2904 173.935ZM31.9983 173.179C30.9677 173.208 31.6256 177.271 32.5462 173.449C32.4041 173.29 32.2084 173.192 31.9986 173.175L31.9983 173.179ZM30.6467 175.615C30.4957 175.731 30.6131 177.038 30.8884 176.022C30.7729 175.663 30.6962 175.572 30.6481 175.611L30.6467 175.615ZM25.5782 176.952C24.4018 176.781 22.6842 181.814 25.8862 178.206L26.2401 178.071C26.0928 177.304 25.8489 176.986 25.5785 176.949L25.5782 176.952ZM28.9354 177.893C28.7042 178.036 28.5723 179.326 29.2751 179.008C29.2257 178.318 29.133 178.002 29.0398 177.908C29.0274 177.893 29.0101 177.883 28.9911 177.88C28.9721 177.876 28.9526 177.88 28.936 177.89L28.9354 177.893ZM30.6941 185.177C26.8752 187.953 23.7854 192.099 21.7099 196.27C20.4373 197.615 13.6513 202.238 19.1511 200.301C21.9735 198.637 24.9346 195.3 26.3777 194.237C28.6113 189.938 30.1778 195.724 30.8096 193.055C26.4195 191.095 31.9516 187.682 30.6944 185.174L30.6941 185.177ZM10.7419 184.613C10.2924 184.763 10.1625 186.143 11.6262 186.225C11.3973 184.877 11.0131 184.522 10.7422 184.609L10.7419 184.613ZM14.3445 187.532C13.8549 187.474 14.117 188.658 14.6029 187.642C14.5272 187.583 14.4386 187.545 14.3448 187.529L14.3445 187.532ZM20.2235 188.198C19.7242 188.142 19.9764 189.33 20.4816 188.308C20.4059 188.25 20.3174 188.211 20.2238 188.195L20.2235 188.198ZM21.4011 188.518C21.1938 188.305 20.6505 190.393 21.4645 188.769C21.4688 188.68 21.4468 188.592 21.4014 188.516L21.4011 188.518ZM19.6207 189.106C18.4909 188.728 18.0473 193.224 20.4882 190.295C20.1805 189.534 19.882 189.189 19.621 189.103L19.6207 189.106ZM6.83886 189.158C6.39448 189.143 6.82635 190.432 7.08764 189.257C7.01402 189.203 6.92883 189.169 6.83921 189.156L6.83886 189.158ZM14.9557 190.249C14.3211 190.106 14.7726 192.91 15.2969 190.52C15.2117 190.396 15.0931 190.302 14.9557 190.247V190.249ZM17.2626 191.294C16.7583 191.381 16.9252 194.928 17.5205 191.501C17.4204 191.339 17.3343 191.279 17.2626 191.291V191.294ZM19.242 195.542C18.9603 195.649 19.3313 197.752 19.7638 196.304C19.5031 195.688 19.3353 195.506 19.242 195.54V195.542ZM17.8543 197.04C17.3693 196.869 17.1677 197.537 18.7195 198.395C18.5406 197.542 18.1475 197.139 17.854 197.037L17.8543 197.04ZM15.3777 200.272C14.3382 200.097 14.0113 205.408 16.5718 202.772C16.1482 200.999 15.7234 200.33 15.3777 200.272ZM20.2707 202.196C19.9233 202.233 19.9673 203.472 20.7375 202.679C20.5462 202.307 20.3861 202.185 20.2707 202.195V202.196ZM11.5929 202.672C11.3419 202.507 11.1534 203.547 11.919 204.542C11.9119 203.304 11.7413 202.768 11.5926 202.671L11.5929 202.672ZM11.8027 205.259C11.9034 205.508 12.0074 205.751 12.1095 206C12.2003 205.928 12.2852 205.848 12.3631 205.761C12.1983 205.57 12.01 205.401 11.8027 205.259V205.259Z" fill="currentColor" fill-opacity="1"/>
</svg>
