<svg width="447" height="191" viewBox="0 0 447 191" fill="none" xmlns="http://www.w3.org/2000/svg">
<path d="M446.709 223.154C447.77 220.223 445.541 217.412 446.204 214.468C446.407 213.569 445.385 212.898 444.352 212.453C444.156 212.851 442.361 203.842 440.337 199.735C439.886 196.825 436.641 191.433 436.958 191.517C435.684 189.336 433.484 183.573 433.081 182.935L432.289 180.908C429.029 174.627 426.982 167.992 423.285 161.843C420.587 157.353 418.671 152.59 415.425 148.3C414.151 145.544 409.461 140.266 410.304 140.556L407.504 136.72L405.366 133.468L399.749 125.969C398.715 124.409 397.17 123.155 395.719 121.846C395.531 121.933 395.334 122.007 395.13 122.067C395.334 122.007 395.531 121.933 395.719 121.846C394.699 120 392.973 118.53 391.473 116.941C388.738 113.579 385.46 110.509 381.719 107.807L379.525 105.589C379.365 105.473 379.2 105.361 379.03 105.254C378.826 105.303 378.613 105.326 378.4 105.321C378.613 105.326 378.826 105.303 379.03 105.254C378.393 103.941 376.869 103.187 375.824 102.132L371.168 98.7832C371.116 98.8333 371.059 98.8803 370.999 98.9239C371.059 98.8803 371.116 98.8333 371.168 98.7832C370.417 97.7499 369.723 96.6696 367.984 96.4689L367.254 96.2145C366.127 96.332 365.648 96.1108 365.53 95.7017C365.648 96.1108 366.127 96.3315 367.253 96.214C367.687 95.1486 366.683 94.8364 365.774 94.4733C364.024 92.4507 361.463 91.0467 359.354 89.2978C358.638 88.8932 357.92 88.4889 357.202 88.085C356.111 86.6028 354.293 85.7668 352.549 84.865C352.443 85.0241 352.282 85.1561 352.083 85.2453C352.282 85.1561 352.443 85.0241 352.549 84.865C351.042 83.4731 349.443 82.1682 347.263 81.4083C346.367 79.7404 343.683 79.6157 342.615 78.0964C342.456 78.1943 342.295 78.2904 342.134 78.3846C342.295 78.29 342.456 78.1939 342.615 78.0964C339.997 76.715 337.705 74.9546 334.791 73.9097C332.164 71.9064 325.361 67.8057 324.576 67.6327L323.388 67.0745C323.307 67.2032 323.216 67.3283 323.117 67.4492C323.216 67.3283 323.307 67.2032 323.388 67.0745L318.707 64.9681C317.174 63.574 315.169 62.7177 313.102 61.9294C309.642 60.159 306.537 57.9694 302.749 56.5803C301.971 56.2954 301.043 56.0293 300.914 55.1768L297.386 53.6037L293.86 52.0305L272.704 42.5908L260.949 37.3464C260.842 37.4637 260.712 37.5666 260.564 37.6513C257.131 37.9129 255.976 34.846 252.985 34.4635L248.203 32.3322L244.735 30.7529C244.334 30.5807 243.933 30.4089 243.533 30.2374C238.721 28.5523 234.324 26.1262 229.499 24.5946C219.155 21.3115 209.457 16.9479 198.993 13.8721C191.01 11.5252 182.992 9.27909 174.859 7.29023C167.012 5.41301 159.032 3.89735 150.959 2.75102C141.909 1.4207 132.953 0.461104 123.769 1.14345C121.687 0.812545 119.537 0.86235 117.484 1.2888C106.682 1.05986 96.5519 3.78588 86.2263 5.65224C85.9466 5.72612 85.6668 5.80013 85.3871 5.87404C70.9237 7.48153 56.4368 8.96865 42.0059 10.7396C33.2986 11.8078 24.611 13.0839 16.2348 15.3544C14.4921 15.6487 12.5696 15.5467 11.2415 16.7523C9.67682 17.0919 8.11221 17.4316 6.54754 17.7716C2.9137 18.9731 -0.500864 20.5467 -3.60686 22.4512L-4.7786 23.1018C-6.59328 24.128 -8.40794 25.1544 -10.2226 26.1806C-14.4963 29.3506 -18.9257 32.4015 -22.9971 35.7257C-26.6679 38.724 -30.8285 41.3796 -33.8145 44.8817L-34.6635 45.7237C-40.3474 51.0772 -46.1927 56.3376 -50.5089 62.4865C-50.9893 62.9227 -51.2596 63.5535 -52.1674 63.5951L-53.8393 65.8993L-54.508 66.8212L-55.5114 68.2036C-55.1024 68.6182 -55.3309 69.0307 -55.5177 69.4431C-57.108 71.1114 -57.8442 73.1853 -57.5817 75.2572C-58.5016 77.8896 -59.4858 80.5165 -58.7329 83.2947C-58.7371 84.2946 -58.3377 85.2699 -57.5917 86.0812C-57.5662 86.7675 -56.9435 87.0933 -56.2925 87.402C-55.1533 89.0689 -53.4364 90.4498 -51.3395 91.3858C-47.145 94.3337 -42.9591 97.2859 -40.9086 101.582C-39.5741 101.591 -39.5641 105.492 -38.8905 107.448C-37.5766 111.03 -37.9813 114.987 -35.0867 118.223C-34.9635 120.983 -32.8599 123.252 -32.0193 125.833C-27.9578 132.292 -15.4756 141.576 -17.2311 143.899C-17.0123 144.669 -16.4792 145.361 -15.7127 145.872C-7.68671 150.284 0.142583 154.959 9.55964 157.512L10.7625 158.11C12.9439 159.301 15.3702 160.131 17.3953 161.602C22.0978 165.015 25.129 169.448 29.3822 173.116C35.0308 179.302 41.1916 185.084 49.7348 188.987C50.2061 190.27 51.832 190.395 52.9938 190.983L56.7886 193.311L75.6389 203.712C78.7222 206.144 82.022 208.402 85.5137 210.468C87.2055 209.569 87.0443 209.132 86.3671 208.812C87.045 209.132 87.2063 209.569 85.5137 210.468C87.7822 212.834 90.8319 214.464 93.9749 216.011C94.324 216.204 94.6735 216.397 95.0235 216.591C95.242 216.497 95.4663 216.412 95.6957 216.336C95.4665 216.412 95.2424 216.497 95.0242 216.591C95.6561 217.745 97.0656 218.05 98.3668 218.475C98.5103 218.6 98.6629 218.718 98.8239 218.828C99.3043 218.726 99.767 218.592 100.207 218.514C99.767 218.592 99.3043 218.726 98.8239 218.828C103.657 222.257 108.78 225.425 113 229.386C115.559 231.786 118.57 233.89 121.378 236.127L122.386 236.739C123.153 237.94 124.433 238.892 126.004 239.429C128.452 241.63 131.806 242.982 134.47 244.983L136.754 246.007C138.142 247.212 139.81 248.202 141.667 248.922L153.301 256.466C153.286 256.266 153.292 256.065 153.319 255.866C153.344 255.689 153.39 255.515 153.455 255.344C153.39 255.515 153.344 255.689 153.319 255.866C153.292 256.065 153.286 256.266 153.301 256.465C154.8 257.294 155.857 258.587 157.706 259.046C163.199 263.326 169.933 266.343 176.253 269.693C183.085 273.327 190.408 276.359 198.089 278.734C211.739 282.914 225.659 286.657 240.497 287.445C246.677 288.427 252.906 288.19 259.13 287.852C259.838 287.813 260.514 287.341 261.204 287.069C261.024 286.781 260.85 286.522 260.672 286.296C260.85 286.522 261.026 286.781 261.204 287.069C263.751 288.05 266.062 286.704 268.498 286.6C269.814 286.182 271.13 285.765 272.445 285.347C272.398 285.064 272.241 284.799 271.996 284.587C272.241 284.799 272.398 285.064 272.445 285.347C277.285 284.029 282.125 282.711 286.965 281.395C288.62 280.89 290.276 280.385 291.933 279.881C293.839 279.758 295.703 279.376 297.442 278.752C303.054 277.669 308.65 276.548 313.801 274.401C318.108 273.958 321.982 272.368 326.139 271.528C330.395 271.669 333.667 269.47 337.494 268.59C338.842 268.184 340.19 267.776 341.537 267.367C345.264 266.169 348.992 264.971 352.722 263.774C351.767 263.408 350.879 262.94 350.085 262.386C350.879 262.94 351.766 263.407 352.721 263.774C353.117 263.535 353.513 263.297 353.909 263.059L356.74 262.542L358.013 261.87C361.855 261.161 365.103 259.445 368.542 258.053C368.517 257.936 368.504 257.816 368.502 257.697C368.504 257.816 368.517 257.936 368.542 258.053C369.717 257.595 371.081 257.398 371.965 256.535C373.928 256.319 375.771 255.665 377.271 254.65C377.05 254.38 376.887 254.083 376.787 253.772C376.887 254.083 377.05 254.38 377.271 254.65C378.868 254.484 380.129 253.769 381.44 253.117C384.164 251.763 387.077 250.63 389.795 249.285C392.04 248.176 395.491 247.765 398.341 246.875C400.164 246.881 401.99 247.242 403.81 246.853C405.65 246.752 406.736 247.967 408.177 248.515C412.866 250.3 417.254 249.719 421.699 248.179C425.118 248.22 426.984 246.095 429.113 244.608C433.539 241.508 437.348 237.906 440.412 233.922C443.955 230.859 446.48 227.42 446.709 223.154Z" fill="currentColor" fill-opacity="1"/>
</svg>
